Hack-Italic.ufo
<glyph name="nine" format="1">
  <advance width="1233"/>
  <unicode hex="0039"/>
  <outline>
    <contour>
      <point x="343" y="-29" type="curve" smooth="yes" name="sh03"/>
      <point x="292" y="-29"/>
      <point x="244" y="-24"/>
      <point x="197" y="-14" type="curve" smooth="yes"/>
      <point x="154" y="-5"/>
      <point x="110" y="8" name="dv01"/>
      <point x="63" y="31" type="curve"/>
      <point x="98" y="217" type="line" name="ih01"/>
      <point x="137" y="192"/>
      <point x="179" y="174" name="dv02"/>
      <point x="224" y="161" type="curve" smooth="yes"/>
      <point x="270" y="148" name="sh01"/>
      <point x="317" y="141"/>
      <point x="366" y="141" type="curve" smooth="yes"/>
      <point x="495" y="141"/>
      <point x="602" y="189" name="at01"/>
      <point x="686" y="285" type="curve" smooth="yes"/>
      <point x="769" y="380" name="sh04"/>
      <point x="829" y="522"/>
      <point x="866" y="711" type="curve"/>
      <point x="821" y="644"/>
      <point x="768" y="592"/>
      <point x="705" y="557" type="curve" smooth="yes" name="dv03"/>
      <point x="637" y="518"/>
      <point x="568" y="504" name="ah02"/>
      <point x="492" y="504" type="curve" smooth="yes"/>
      <point x="376" y="504" name="sv01"/>
      <point x="288" y="539"/>
      <point x="224" y="604" type="curve" smooth="yes" name="sh02"/>
      <point x="159" y="671"/>
      <point x="127" y="766"/>
      <point x="127" y="889" type="curve" smooth="yes" name="ah01"/>
      <point x="127" y="973" name="sh05"/>
      <point x="142" y="1052"/>
      <point x="167" y="1127" type="curve" smooth="yes"/>
      <point x="194" y="1204"/>
      <point x="231" y="1274"/>
      <point x="274" y="1327" type="curve" smooth="yes"/>
      <point x="323" y="1388"/>
      <point x="385" y="1440"/>
      <point x="452" y="1472" type="curve" smooth="yes"/>
      <point x="518" y="1504"/>
      <point x="593" y="1520"/>
      <point x="676" y="1520" type="curve" smooth="yes"/>
      <point x="811" y="1520"/>
      <point x="918" y="1479"/>
      <point x="990" y="1403" type="curve" smooth="yes"/>
      <point x="1063" y="1326"/>
      <point x="1100" y="1211"/>
      <point x="1100" y="1059" type="curve" smooth="yes"/>
      <point x="1100" y="967"/>
      <point x="1088" y="846"/>
      <point x="1061" y="726" type="curve" smooth="yes"/>
      <point x="1034" y="605"/>
      <point x="998" y="497"/>
      <point x="954" y="401" type="curve" smooth="yes"/>
      <point x="885" y="252"/>
      <point x="803" y="150"/>
      <point x="703" y="79" type="curve" smooth="yes"/>
      <point x="595" y="3"/>
      <point x="476" y="-29"/>
    </contour>
    <contour>
      <point x="551" y="662" type="curve" smooth="yes"/>
      <point x="651" y="662"/>
      <point x="736" y="708"/>
      <point x="799" y="788" type="curve" smooth="yes"/>
      <point x="862" y="868"/>
      <point x="897" y="978"/>
      <point x="897" y="1097" type="curve" smooth="yes"/>
      <point x="897" y="1189"/>
      <point x="876" y="1252"/>
      <point x="837" y="1295" type="curve" smooth="yes"/>
      <point x="798" y="1338"/>
      <point x="739" y="1362"/>
      <point x="671" y="1362" type="curve" smooth="yes"/>
      <point x="575" y="1362"/>
      <point x="490" y="1315"/>
      <point x="427" y="1228" type="curve" smooth="yes"/>
      <point x="367" y="1144"/>
      <point x="330" y="1027"/>
      <point x="330" y="907" type="curve" smooth="yes"/>
      <point x="330" y="831"/>
      <point x="345" y="766"/>
      <point x="388" y="722" type="curve" smooth="yes"/>
      <point x="427" y="682"/>
      <point x="486" y="662"/>
    </contour>
  </outline>
</glyph>
<glyph name="P" format="1">
  <advance width="1233"/>
  <unicode hex="0050"/>
  <outline>
    <contour>
      <point x="321" y="1493" type="line" name="at01"/>
      <point x="761" y="1493" type="line" smooth="yes"/>
      <point x="898" y="1493"/>
      <point x="1004" y="1461" name="dh02"/>
      <point x="1076" y="1401" type="curve" smooth="yes"/>
      <point x="1148" y="1341" name="dv01"/>
      <point x="1183" y="1253"/>
      <point x="1183" y="1126" type="curve" smooth="yes" name="ab01"/>
      <point x="1183" y="966"/>
      <point x="1127" y="835" name="dv02"/>
      <point x="1023" y="743" type="curve" smooth="yes"/>
      <point x="919" y="651" name="dh01"/>
      <point x="776" y="600"/>
      <point x="583" y="600" type="curve" smooth="yes" name="sv01"/>
      <point x="350" y="600" type="line"/>
      <point x="233" y="0" type="line"/>
      <point x="30" y="0" type="line"/>
    </contour>
    <contour>
      <point x="616" y="766" type="line" smooth="yes" name="sh01"/>
      <point x="726" y="766"/>
      <point x="814" y="798"/>
      <point x="880" y="862" type="curve" smooth="yes"/>
      <point x="945" y="926"/>
      <point x="978" y="1012"/>
      <point x="978" y="1111" type="curve" smooth="yes"/>
      <point x="978" y="1182"/>
      <point x="961" y="1239"/>
      <point x="916" y="1276" type="curve" smooth="yes"/>
      <point x="875" y="1310"/>
      <point x="811" y="1327"/>
      <point x="724" y="1327" type="curve" smooth="yes"/>
      <point x="491" y="1327" type="line"/>
      <point x="382" y="766" type="line"/>
    </contour>
  </outline>
</glyph>
<glyph name="d" format="1">
  <advance width="1233"/>
  <unicode hex="0064"/>
  <outline>
    <contour>
      <point x="462" y="-29" type="curve" smooth="yes" name="dv01"/>
      <point x="349" y="-29"/>
      <point x="269" y="8" name="dh01"/>
      <point x="210" y="76" type="curve" smooth="yes"/>
      <point x="149" y="147"/>
      <point x="119" y="241"/>
      <point x="119" y="374" type="curve" smooth="yes" name="at02"/>
      <point x="119" y="462"/>
      <point x="132" y="560" name="iv01"/>
      <point x="159" y="657" type="curve" smooth="yes" name="at01"/>
      <point x="187" y="758"/>
      <point x="225" y="841" name="ab01"/>
      <point x="268" y="909" type="curve" smooth="yes"/>
      <point x="320" y="992" name="iv02"/>
      <point x="378" y="1048" name="ab02"/>
      <point x="445" y="1087" type="curve" smooth="yes"/>
      <point x="512" y="1126" name="dv02"/>
      <point x="584" y="1147"/>
      <point x="668" y="1147" type="curve" smooth="yes"/>
      <point x="736" y="1147"/>
      <point x="791" y="1133"/>
      <point x="840" y="1104" type="curve" smooth="yes"/>
      <point x="889" y="1075" name="sv01"/>
      <point x="927" y="1032"/>
      <point x="954" y="977" type="curve"/>
      <point x="1069" y="1556" type="line"/>
      <point x="1253" y="1556" type="line" name="dh02"/>
      <point x="950" y="0" type="line"/>
      <point x="786" y="0" type="line"/>
      <point x="793" y="141" type="line"/>
      <point x="750" y="86"/>
      <point x="701" y="43"/>
      <point x="646" y="14" type="curve" smooth="yes"/>
      <point x="591" y="-15"/>
      <point x="530" y="-29"/>
    </contour>
    <contour>
      <point x="518" y="127" type="curve" smooth="yes" name="hr01"/>
      <point x="575" y="127"/>
      <point x="626" y="142"/>
      <point x="672" y="172" type="curve" smooth="yes"/>
      <point x="719" y="203"/>
      <point x="755" y="245"/>
      <point x="788" y="305" type="curve" smooth="yes"/>
      <point x="821" y="363"/>
      <point x="846" y="431"/>
      <point x="865" y="508" type="curve" smooth="yes"/>
      <point x="884" y="583"/>
      <point x="893" y="660"/>
      <point x="893" y="727" type="curve" smooth="yes"/>
      <point x="893" y="815"/>
      <point x="875" y="881"/>
      <point x="840" y="924" type="curve" smooth="yes"/>
      <point x="807" y="965"/>
      <point x="754" y="991"/>
      <point x="682" y="991" type="curve" smooth="yes"/>
      <point x="626" y="991"/>
      <point x="572" y="975"/>
      <point x="531" y="948" type="curve" smooth="yes"/>
      <point x="488" y="920"/>
      <point x="448" y="873"/>
      <point x="417" y="817" type="curve" smooth="yes"/>
      <point x="388" y="764"/>
      <point x="361" y="689"/>
      <point x="342" y="613" type="curve" smooth="yes"/>
      <point x="323" y="537"/>
      <point x="315" y="456"/>
      <point x="315" y="388" type="curve" smooth="yes"/>
      <point x="315" y="296"/>
      <point x="331" y="234"/>
      <point x="366" y="191" type="curve" smooth="yes"/>
      <point x="400" y="148"/>
      <point x="451" y="127"/>
    </contour>
  </outline>
</glyph>
<glyph name="i" format="1">
  <advance width="1233"/>
  <unicode hex="0069"/>
  <outline>
    <contour>
      <point x="627" y="1323" type="line" smooth="yes" name="sv01"/>
      <point x="607" y="1323"/>
      <point x="596" y="1336"/>
      <point x="600" y="1356" type="curve" smooth="yes" name="at01"/>
      <point x="634" y="1529" type="line" smooth="yes"/>
      <point x="637" y="1547"/>
      <point x="647" y="1556"/>
      <point x="666" y="1556" type="curve" smooth="yes"/>
      <point x="790" y="1556" type="line" smooth="yes" name="ab01"/>
      <point x="810" y="1556"/>
      <point x="821" y="1543" name="dh01"/>
      <point x="817" y="1523" type="curve" smooth="yes" name="sh01"/>
      <point x="783" y="1350" type="line" smooth="yes"/>
      <point x="780" y="1332" name="sv02"/>
      <point x="769" y="1323"/>
      <point x="751" y="1323" type="curve" smooth="yes" name="at02"/>
    </contour>
    <contour>
      <point x="749" y="-4" type="line" smooth="yes"/>
      <point x="633" y="-4"/>
      <point x="547" y="17"/>
      <point x="492" y="60" type="curve" smooth="yes" name="dh02"/>
      <point x="435" y="103"/>
      <point x="407" y="167" name="sv03"/>
      <point x="407" y="252" type="curve" smooth="yes"/>
      <point x="407" y="275"/>
      <point x="409" y="295"/>
      <point x="412" y="322" type="curve" smooth="yes"/>
      <point x="415" y="349"/>
      <point x="419" y="379"/>
      <point x="426" y="408" type="curve" smooth="yes"/>
      <point x="559" y="976" type="line"/>
      <point x="313" y="976" type="line"/>
      <point x="342" y="1120" type="line"/>
      <point x="772" y="1120" type="line"/>
      <point x="610" y="404" type="line" smooth="yes"/>
      <point x="605" y="383"/>
      <point x="601" y="353"/>
      <point x="600" y="342" type="curve" smooth="yes"/>
      <point x="597" y="321"/>
      <point x="596" y="310"/>
      <point x="596" y="297" type="curve" smooth="yes"/>
      <point x="596" y="248"/>
      <point x="611" y="211"/>
      <point x="640" y="188" type="curve" smooth="yes"/>
      <point x="670" y="164"/>
      <point x="715" y="152"/>
      <point x="776" y="152" type="curve" smooth="yes"/>
      <point x="987" y="152" type="line"/>
      <point x="956" y="-4" type="line"/>
    </contour>
  </outline>
</glyph>
<glyph name="m" format="1">
  <advance width="1233"/>
  <unicode hex="006D"/>
  <outline>
    <contour>
      <point x="203" y="1120" type="line" name="at01"/>
      <point x="351" y="1120" type="line"/>
      <point x="352" y="1024" type="line" name="iv01"/>
      <point x="381" y="1064" name="at02"/>
      <point x="414" y="1095" name="at05"/>
      <point x="452" y="1116" type="curve" smooth="yes" name="at03"/>
      <point x="489" y="1137" name="iv02"/>
      <point x="529" y="1147" name="at04"/>
      <point x="572" y="1147" type="curve" smooth="yes" name="at06"/>
      <point x="621" y="1147"/>
      <point x="661" y="1135"/>
      <point x="692" y="1110" type="curve" smooth="yes"/>
      <point x="722" y="1085"/>
      <point x="741" y="1051" name="ab01"/>
      <point x="748" y="1006" type="curve"/>
      <point x="775" y="1053"/>
      <point x="811" y="1088"/>
      <point x="850" y="1111" type="curve" smooth="yes"/>
      <point x="891" y="1135"/>
      <point x="940" y="1147" name="sv01"/>
      <point x="987" y="1147" type="curve" smooth="yes"/>
      <point x="1043" y="1147"/>
      <point x="1092" y="1130" name="ab02"/>
      <point x="1127" y="1094" type="curve" smooth="yes"/>
      <point x="1167" y="1051"/>
      <point x="1178" y="994"/>
      <point x="1178" y="943" type="curve" smooth="yes"/>
      <point x="1178" y="916"/>
      <point x="1176" y="869" name="sv02"/>
      <point x="1169" y="824" type="curve"/>
      <point x="1164" y="776"/>
      <point x="1155" y="732" name="ab03"/>
      <point x="1139" y="649" type="curve" smooth="yes"/>
      <point x="1012" y="0" type="line"/>
      <point x="844" y="0" type="line"/>
      <point x="969" y="641" type="line" smooth="yes"/>
      <point x="977" y="682"/>
      <point x="994" y="773"/>
      <point x="997" y="792" type="curve" smooth="yes"/>
      <point x="1004" y="827"/>
      <point x="1006" y="861"/>
      <point x="1006" y="881" type="curve" smooth="yes"/>
      <point x="1006" y="913"/>
      <point x="998" y="946"/>
      <point x="983" y="965" type="curve" smooth="yes"/>
      <point x="968" y="984"/>
      <point x="944" y="993"/>
      <point x="909" y="993" type="curve" smooth="yes"/>
      <point x="854" y="993"/>
      <point x="820" y="972"/>
      <point x="793" y="929" type="curve" smooth="yes"/>
      <point x="761" y="878"/>
      <point x="738" y="794"/>
      <point x="707" y="641" type="curve"/>
      <point x="582" y="0" type="line"/>
      <point x="414" y="0" type="line"/>
      <point x="539" y="641" type="line"/>
      <point x="547" y="676"/>
      <point x="562" y="753"/>
      <point x="567" y="795" type="curve" smooth="yes"/>
      <point x="571" y="822"/>
      <point x="575" y="857"/>
      <point x="575" y="881" type="curve" smooth="yes"/>
      <point x="575" y="912"/>
      <point x="569" y="940"/>
      <point x="552" y="963" type="curve" smooth="yes"/>
      <point x="537" y="983"/>
      <point x="512" y="993"/>
      <point x="478" y="993" type="curve" smooth="yes"/>
      <point x="431" y="993"/>
      <point x="394" y="977"/>
      <point x="366" y="934" type="curve" smooth="yes"/>
      <point x="336" y="888"/>
      <point x="311" y="805"/>
      <point x="279" y="641" type="curve" smooth="yes"/>
      <point x="154" y="0" type="line" name="hr01"/>
      <point x="-14" y="0" type="line"/>
    </contour>
  </outline>
</glyph>
<glyph name="exclamdown" format="1">
  <advance width="1233"/>
  <unicode hex="00A1"/>
  <outline>
    <contour>
      <point x="713" y="1170" type="curve" smooth="yes" name="sv01"/>
      <point x="669" y="1170"/>
      <point x="636" y="1182" name="dh01"/>
      <point x="612" y="1211" type="curve" smooth="yes"/>
      <point x="584" y="1244" name="at01"/>
      <point x="577" y="1288"/>
      <point x="577" y="1319" type="curve" smooth="yes" name="dh02"/>
      <point x="577" y="1374"/>
      <point x="599" y="1420"/>
      <point x="638" y="1459" type="curve"/>
      <point x="677" y="1496"/>
      <point x="723" y="1514"/>
      <point x="771" y="1514" type="curve" smooth="yes"/>
      <point x="812" y="1514" name="ab01"/>
      <point x="850" y="1501"/>
      <point x="875" y="1474" type="curve" smooth="yes"/>
      <point x="904" y="1442"/>
      <point x="909" y="1398"/>
      <point x="909" y="1378" type="curve" smooth="yes"/>
      <point x="909" y="1321"/>
      <point x="885" y="1261"/>
      <point x="838" y="1218" type="curve"/>
      <point x="806" y="1187"/>
      <point x="766" y="1170"/>
    </contour>
    <contour>
      <point x="498" y="655" type="line"/>
      <point x="606" y="1012" type="line"/>
      <point x="768" y="1012" type="line"/>
      <point x="729" y="655" type="line"/>
      <point x="602" y="0" type="line"/>
      <point x="369" y="0" type="line"/>
    </contour>
  </outline>
</glyph>
<glyph name="twosuperior" format="1">
  <advance width="1233"/>
  <unicode hex="00B2"/>
  <outline>
    <contour>
      <point x="328" y="1230" type="line" name="hr00"/>
      <point x="531" y="1397" type="line" smooth="yes"/>
      <point x="740" y="1568" name="dh01"/>
      <point x="844" y="1679" name="dv03"/>
      <point x="844" y="1760" type="curve" smooth="yes"/>
      <point x="844" y="1808"/>
      <point x="805" y="1867" name="dv04"/>
      <point x="704" y="1867" type="curve" smooth="yes" name="dh02"/>
      <point x="640" y="1867"/>
      <point x="562" y="1844"/>
      <point x="451" y="1789" type="curve"/>
      <point x="475" y="1916" type="line" name="dv02"/>
      <point x="588" y="1955" name="dv01"/>
      <point x="665" y="1972"/>
      <point x="737" y="1972" type="curve" smooth="yes"/>
      <point x="905" y="1972" name="sh01"/>
      <point x="991" y="1876"/>
      <point x="991" y="1781" type="curve" smooth="yes"/>
      <point x="991" y="1674"/>
      <point x="885" y="1537"/>
      <point x="682" y="1385" type="curve" smooth="yes"/>
      <point x="662" y="1370" type="line"/>
      <point x="492" y="1234" type="line"/>
      <point x="887" y="1234" type="line"/>
      <point x="864" y="1120" type="line"/>
      <point x="307" y="1120" type="line"/>
    </contour>
  </outline>
</glyph>
<glyph name="threesuperior" format="1">
  <advance width="1233"/>
  <unicode hex="00B3"/>
  <outline>
    <contour>
      <point x="536" y="1103" type="curve" smooth="yes" name="dv01"/>
      <point x="452" y="1103"/>
      <point x="367" y="1117"/>
      <point x="287" y="1144" type="curve" name="dv02"/>
      <point x="311" y="1265" type="line" name="dh01"/>
      <point x="400" y="1226" name="dv05"/>
      <point x="464" y="1210"/>
      <point x="536" y="1210" type="curve" smooth="yes" name="hr01"/>
      <point x="680" y="1210" name="dv06"/>
      <point x="774" y="1276" name="sh01"/>
      <point x="774" y="1384" type="curve" smooth="yes" name="dv03"/>
      <point x="774" y="1469"/>
      <point x="716" y="1511"/>
      <point x="600" y="1511" type="curve" smooth="yes" name="dv04"/>
      <point x="528" y="1511" type="line" name="sh02"/>
      <point x="549" y="1617" type="line" name="iv01"/>
      <point x="621" y="1617" type="line" smooth="yes" name="dh02"/>
      <point x="751" y="1617"/>
      <point x="836" y="1676"/>
      <point x="836" y="1760" type="curve" smooth="yes"/>
      <point x="836" y="1829"/>
      <point x="778" y="1863"/>
      <point x="671" y="1863" type="curve" smooth="yes"/>
      <point x="604" y="1863"/>
      <point x="545" y="1851"/>
      <point x="461" y="1820" type="curve"/>
      <point x="483" y="1935" type="line"/>
      <point x="580" y="1958"/>
      <point x="661" y="1970"/>
      <point x="728" y="1970" type="curve" smooth="yes" name="hr02"/>
      <point x="895" y="1970"/>
      <point x="983" y="1900"/>
      <point x="983" y="1783" type="curve" smooth="yes"/>
      <point x="983" y="1672"/>
      <point x="904" y="1591"/>
      <point x="772" y="1566" type="curve"/>
      <point x="871" y="1549"/>
      <point x="922" y="1488"/>
      <point x="922" y="1388" type="curve" smooth="yes"/>
      <point x="922" y="1217"/>
      <point x="772" y="1103"/>
    </contour>
  </outline>
</glyph>
<glyph name="Idieresis" format="1">
  <advance width="1233"/>
  <unicode hex="00CF"/>
  <outline>
    <contour>
      <point x="506" y="1627" type="line" smooth="yes" name="dv01"/>
      <point x="486" y="1627"/>
      <point x="475" y="1640"/>
      <point x="479" y="1660" type="curve" smooth="yes" name="dv02"/>
      <point x="507" y="1803" type="line" smooth="yes"/>
      <point x="510" y="1821"/>
      <point x="520" y="1830"/>
      <point x="539" y="1830" type="curve" smooth="yes"/>
      <point x="683" y="1830" type="line" smooth="yes"/>
      <point x="701" y="1830" name="sv01"/>
      <point x="710" y="1822"/>
      <point x="710" y="1806" type="curve" smooth="yes"/>
      <point x="710" y="1802" name="sv02"/>
      <point x="710" y="1799"/>
      <point x="709" y="1797" type="curve" smooth="yes"/>
      <point x="680" y="1654" type="line" smooth="yes"/>
      <point x="676" y="1636"/>
      <point x="665" y="1627" name="sv03"/>
      <point x="648" y="1627" type="curve" smooth="yes"/>
    </contour>
    <contour>
      <point x="897" y="1627" type="line" smooth="yes" name="sv04"/>
      <point x="877" y="1627"/>
      <point x="866" y="1640" name="at01"/>
      <point x="870" y="1660" type="curve" smooth="yes"/>
      <point x="898" y="1803" type="line" smooth="yes" name="sv05"/>
      <point x="901" y="1821" name="sv06"/>
      <point x="911" y="1830" name="sv07"/>
      <point x="930" y="1830" type="curve" smooth="yes" name="sv08"/>
      <point x="1073" y="1830" type="line" smooth="yes" name="ab01"/>
      <point x="1093" y="1830"/>
      <point x="1104" y="1817"/>
      <point x="1100" y="1797" type="curve" smooth="yes"/>
      <point x="1072" y="1654" type="line" smooth="yes"/>
      <point x="1069" y="1636"/>
      <point x="1058" y="1627"/>
      <point x="1040" y="1627" type="curve" smooth="yes"/>
    </contour>
    <contour>
      <point x="90" y="170" type="line"/>
      <point x="403" y="170" type="line"/>
      <point x="627" y="1323" type="line"/>
      <point x="313" y="1323" type="line"/>
      <point x="346" y="1493" type="line"/>
      <point x="1176" y="1493" type="line"/>
      <point x="1143" y="1323" type="line"/>
      <point x="829" y="1323" type="line"/>
      <point x="606" y="170" type="line"/>
      <point x="920" y="170" type="line"/>
      <point x="887" y="0" type="line"/>
      <point x="57" y="0" type="line"/>
    </contour>
  </outline>
</glyph>
<glyph name="ograve" format="1">
  <advance width="1233"/>
  <unicode hex="00F2"/>
  <outline>
    <contour>
      <point x="453" y="1673" type="line" name="ih01"/>
      <point x="651" y="1673" type="line"/>
      <point x="848" y="1297" type="line" name="ih02"/>
      <point x="705" y="1297" type="line"/>
    </contour>
    <contour>
      <point x="510" y="-29" type="curve" smooth="yes" name="dv01"/>
      <point x="387" y="-29"/>
      <point x="287" y="4" name="sh01"/>
      <point x="218" y="80" type="curve" smooth="yes"/>
      <point x="155" y="148"/>
      <point x="117" y="251"/>
      <point x="117" y="396" type="curve" smooth="yes" name="at01"/>
      <point x="117" y="483"/>
      <point x="131" y="572" name="sh02"/>
      <point x="158" y="663" type="curve" smooth="yes"/>
      <point x="183" y="747"/>
      <point x="221" y="833"/>
      <point x="274" y="910" type="curve" smooth="yes"/>
      <point x="328" y="989" name="dv02"/>
      <point x="391" y="1048"/>
      <point x="464" y="1087" type="curve" smooth="yes" name="ah02"/>
      <point x="539" y="1127"/>
      <point x="623" y="1147" name="sv01"/>
      <point x="717" y="1147" type="curve" smooth="yes"/>
      <point x="838" y="1147" name="sh03"/>
      <point x="941" y="1113"/>
      <point x="1012" y="1040" type="curve" smooth="yes"/>
      <point x="1080" y="969" name="ah01"/>
      <point x="1114" y="864" name="sh04"/>
      <point x="1114" y="726" type="curve" smooth="yes"/>
      <point x="1114" y="636"/>
      <point x="1100" y="545"/>
      <point x="1073" y="453" type="curve"/>
      <point x="1042" y="353"/>
      <point x="1001" y="270"/>
      <point x="958" y="207" type="curve" smooth="yes"/>
      <point x="902" y="126"/>
      <point x="842" y="69"/>
      <point x="766" y="30" type="curve" smooth="yes"/>
      <point x="690" y="-9"/>
      <point x="603" y="-29"/>
    </contour>
    <contour>
      <point x="533" y="127" type="curve" smooth="yes"/>
      <point x="649" y="127"/>
      <point x="744" y="190"/>
      <point x="812" y="298" type="curve"/>
      <point x="884" y="409"/>
      <point x="920" y="567"/>
      <point x="920" y="718" type="curve" smooth="yes"/>
      <point x="920" y="814"/>
      <point x="905" y="880"/>
      <point x="864" y="927" type="curve" smooth="yes"/>
      <point x="824" y="972"/>
      <point x="767" y="991"/>
      <point x="702" y="991" type="curve" smooth="yes"/>
      <point x="582" y="991"/>
      <point x="490" y="928"/>
      <point x="422" y="820" type="curve" smooth="yes"/>
      <point x="355" y="715"/>
      <point x="313" y="563"/>
      <point x="313" y="402" type="curve" smooth="yes"/>
      <point x="313" y="306"/>
      <point x="328" y="238"/>
      <point x="369" y="191" type="curve" smooth="yes"/>
      <point x="408" y="148"/>
      <point x="466" y="127"/>
    </contour>
  </outline>
</glyph>
<glyph name="amacron" format="1">
  <advance width="1233"/>
  <unicode hex="0101"/>
  <outline>
    <contour>
      <point x="469" y="1495" type="line" name="at01"/>
      <point x="1067" y="1495" type="line"/>
      <point x="1038" y="1347" type="line" name="sv01"/>
      <point x="440" y="1347" type="line"/>
    </contour>
    <contour>
      <point x="404" y="-29" type="curve" smooth="yes" name="sv03"/>
      <point x="203" y="-29" name="sh01"/>
      <point x="72" y="90"/>
      <point x="72" y="283" type="curve" smooth="yes" name="dv02"/>
      <point x="72" y="534" name="sh02"/>
      <point x="293" y="707" name="ah02"/>
      <point x="645" y="707" type="curve" smooth="yes" name="sv04"/>
      <point x="891" y="707" type="line" name="sh04"/>
      <point x="903" y="768" type="line" smooth="yes"/>
      <point x="906" y="780" name="at02"/>
      <point x="907" y="794" name="sh05"/>
      <point x="907" y="807" type="curve" smooth="yes" name="hr01"/>
      <point x="907" y="932" name="ab01"/>
      <point x="821" y="991"/>
      <point x="665" y="991" type="curve" smooth="yes" name="ih01"/>
      <point x="548" y="991"/>
      <point x="416" y="957" name="sv02"/>
      <point x="268" y="889" type="curve"/>
      <point x="303" y="1069" type="line" name="dv01"/>
      <point x="448" y="1121"/>
      <point x="574" y="1147"/>
      <point x="693" y="1147" type="curve" smooth="yes" name="sh03"/>
      <point x="942" y="1147"/>
      <point x="1087" y="1030" name="ah01"/>
      <point x="1087" y="839" type="curve" smooth="yes" name="sh06"/>
      <point x="1087" y="794"/>
      <point x="1079" y="723"/>
      <point x="1063" y="639" type="curve" smooth="yes"/>
      <point x="938" y="0" type="line"/>
      <point x="774" y="0" type="line"/>
      <point x="786" y="166" type="line"/>
      <point x="690" y="42"/>
      <point x="561" y="-29"/>
    </contour>
    <contour>
      <point x="461" y="125" type="curve" smooth="yes"/>
      <point x="640" y="125"/>
      <point x="805" y="269"/>
      <point x="856" y="522" type="curve" smooth="yes"/>
      <point x="864" y="563" type="line" name="hr02"/>
      <point x="692" y="563" type="line" smooth="yes"/>
      <point x="542" y="563"/>
      <point x="472" y="555"/>
      <point x="414" y="530" type="curve" smooth="yes"/>
      <point x="323" y="491"/>
      <point x="264" y="411"/>
      <point x="264" y="307" type="curve" smooth="yes"/>
      <point x="264" y="195"/>
      <point x="334" y="125"/>
    </contour>
  </outline>
</glyph>
<glyph name="abreve" format="1">
  <advance width="1233"/>
  <unicode hex="0103"/>
  <outline>
    <contour>
      <point x="747" y="1297" type="curve" smooth="yes" name="dv01"/>
      <point x="568" y="1297" name="dh03"/>
      <point x="469" y="1386"/>
      <point x="469" y="1543" type="curve" smooth="yes" name="sv01"/>
      <point x="469" y="1566" name="dh04"/>
      <point x="469" y="1573" name="dv02"/>
      <point x="472" y="1584" type="curve" name="sv02"/>
      <point x="592" y="1584" type="line" name="sh01"/>
      <point x="592" y="1567" type="line" smooth="yes"/>
      <point x="592" y="1479" name="sv04"/>
      <point x="652" y="1434" name="dh01"/>
      <point x="761" y="1434" type="curve" smooth="yes"/>
      <point x="874" y="1434" name="dv04"/>
      <point x="940" y="1484"/>
      <point x="979" y="1584" type="curve" name="dh05"/>
      <point x="1098" y="1584" type="line" name="sv05"/>
      <point x="1054" y="1392" name="sh02"/>
      <point x="932" y="1297"/>
    </contour>
    <contour>
      <point x="404" y="-29" type="curve" smooth="yes" name="dh06"/>
      <point x="203" y="-29"/>
      <point x="72" y="90" name="ab01"/>
      <point x="72" y="283" type="curve" smooth="yes"/>
      <point x="72" y="534" name="ih01"/>
      <point x="293" y="707"/>
      <point x="645" y="707" type="curve" smooth="yes" name="sv03"/>
      <point x="891" y="707" type="line"/>
      <point x="903" y="768" type="line" smooth="yes" name="dv03"/>
      <point x="906" y="780"/>
      <point x="907" y="794"/>
      <point x="907" y="807" type="curve" smooth="yes" name="dh02"/>
      <point x="907" y="932"/>
      <point x="821" y="991"/>
      <point x="665" y="991" type="curve" smooth="yes" name="sh03"/>
      <point x="548" y="991"/>
      <point x="416" y="957"/>
      <point x="268" y="889" type="curve"/>
      <point x="303" y="1069" type="line"/>
      <point x="448" y="1121"/>
      <point x="574" y="1147"/>
      <point x="693" y="1147" type="curve" smooth="yes"/>
      <point x="942" y="1147"/>
      <point x="1087" y="1030"/>
      <point x="1087" y="839" type="curve" smooth="yes"/>
      <point x="1087" y="794"/>
      <point x="1079" y="723"/>
      <point x="1063" y="639" type="curve" smooth="yes"/>
      <point x="938" y="0" type="line"/>
      <point x="774" y="0" type="line" name="hr02"/>
      <point x="786" y="166" type="line"/>
      <point x="690" y="42"/>
      <point x="561" y="-29"/>
    </contour>
    <contour>
      <point x="461" y="125" type="curve" smooth="yes"/>
      <point x="640" y="125"/>
      <point x="805" y="269"/>
      <point x="856" y="522" type="curve" smooth="yes" name="hr03"/>
      <point x="864" y="563" type="line"/>
      <point x="692" y="563" type="line" smooth="yes" name="hr04"/>
      <point x="542" y="563"/>
      <point x="472" y="555"/>
      <point x="414" y="530" type="curve" smooth="yes"/>
      <point x="323" y="491"/>
      <point x="264" y="411"/>
      <point x="264" y="307" type="curve" smooth="yes"/>
      <point x="264" y="195"/>
      <point x="334" y="125"/>
    </contour>
  </outline>
</glyph>
<glyph name="cacute" format="1">
  <advance width="1233"/>
  <unicode hex="0107"/>
  <outline>
    <contour>
      <point x="997" y="1673" type="line" name="av01"/>
      <point x="1216" y="1673" type="line"/>
      <point x="821" y="1297" type="line"/>
      <point x="665" y="1297" type="line" name="iv01"/>
    </contour>
    <contour>
      <point x="607" y="-29" type="curve" smooth="yes" name="dv01"/>
      <point x="454" y="-29"/>
      <point x="344" y="12" name="dh01"/>
      <point x="271" y="84" type="curve" smooth="yes"/>
      <point x="194" y="160"/>
      <point x="156" y="271"/>
      <point x="156" y="412" type="curve" smooth="yes" name="at01"/>
      <point x="156" y="512"/>
      <point x="174" y="617"/>
      <point x="209" y="709" type="curve" smooth="yes"/>
      <point x="244" y="801"/>
      <point x="294" y="883" name="sv01"/>
      <point x="354" y="950" type="curve" smooth="yes"/>
      <point x="418" y="1021"/>
      <point x="495" y="1070"/>
      <point x="559" y="1098" type="curve" smooth="yes" name="dh02"/>
      <point x="632" y="1131"/>
      <point x="714" y="1147" name="dv02"/>
      <point x="804" y="1147" type="curve" smooth="yes"/>
      <point x="863" y="1147"/>
      <point x="920" y="1140"/>
      <point x="975" y="1126" type="curve" smooth="yes"/>
      <point x="1026" y="1113"/>
      <point x="1084" y="1090"/>
      <point x="1137" y="1061" type="curve"/>
      <point x="1100" y="879" type="line"/>
      <point x="1057" y="918"/>
      <point x="1011" y="946"/>
      <point x="964" y="964" type="curve" smooth="yes"/>
      <point x="917" y="982"/>
      <point x="865" y="991"/>
      <point x="810" y="991" type="curve" smooth="yes"/>
      <point x="736" y="991"/>
      <point x="671" y="976"/>
      <point x="614" y="947" type="curve" smooth="yes"/>
      <point x="558" y="918"/>
      <point x="509" y="873"/>
      <point x="469" y="813" type="curve" smooth="yes"/>
      <point x="434" y="762"/>
      <point x="403" y="698"/>
      <point x="382" y="626" type="curve" smooth="yes"/>
      <point x="361" y="554"/>
      <point x="350" y="485"/>
      <point x="350" y="418" type="curve" smooth="yes"/>
      <point x="350" y="326"/>
      <point x="371" y="251"/>
      <point x="418" y="200" type="curve" smooth="yes"/>
      <point x="461" y="153"/>
      <point x="526" y="127"/>
      <point x="625" y="127" type="curve" smooth="yes"/>
      <point x="685" y="127"/>
      <point x="748" y="137"/>
      <point x="808" y="158" type="curve" smooth="yes"/>
      <point x="871" y="181"/>
      <point x="928" y="213"/>
      <point x="979" y="252" type="curve"/>
      <point x="940" y="51" type="line"/>
      <point x="883" y="20"/>
      <point x="835" y="4"/>
      <point x="784" y="-8" type="curve" smooth="yes"/>
      <point x="725" y="-23"/>
      <point x="671" y="-29"/>
    </contour>
  </outline>
</glyph>
<glyph name="ccircumflex" format="1">
  <advance width="1233"/>
  <unicode hex="0109"/>
  <outline>
    <contour>
      <point x="603" y="1297" type="line" name="hr00"/>
      <point x="828" y="1538" type="line"/>
      <point x="945" y="1297" type="line"/>
      <point x="1078" y="1297" type="line"/>
      <point x="914" y="1673" type="line"/>
      <point x="767" y="1673" type="line"/>
      <point x="447" y="1297" type="line"/>
    </contour>
    <contour>
      <point x="930" y="51" type="curve"/>
      <point x="969" y="252" type="line"/>
      <point x="864" y="172"/>
      <point x="739" y="127"/>
      <point x="615" y="127" type="curve" smooth="yes"/>
      <point x="432" y="127"/>
      <point x="340" y="224"/>
      <point x="340" y="418" type="curve" smooth="yes"/>
      <point x="340" y="485"/>
      <point x="351" y="554"/>
      <point x="372" y="625" type="curve" smooth="yes"/>
      <point x="393" y="696"/>
      <point x="422" y="759"/>
      <point x="459" y="813" type="curve" smooth="yes"/>
      <point x="538" y="932"/>
      <point x="651" y="991"/>
      <point x="800" y="991" type="curve" smooth="yes"/>
      <point x="912" y="991"/>
      <point x="1003" y="956"/>
      <point x="1090" y="879" type="curve"/>
      <point x="1127" y="1061" type="line"/>
      <point x="1022" y="1118"/>
      <point x="911" y="1147"/>
      <point x="794" y="1147" type="curve" smooth="yes"/>
      <point x="701" y="1147"/>
      <point x="619" y="1131"/>
      <point x="549" y="1098" type="curve"/>
      <point x="473" y="1066"/>
      <point x="400" y="1014"/>
      <point x="344" y="950" type="curve"/>
      <point x="283" y="883"/>
      <point x="235" y="802"/>
      <point x="199" y="709" type="curve" smooth="yes"/>
      <point x="164" y="617"/>
      <point x="146" y="518"/>
      <point x="146" y="412" type="curve" smooth="yes"/>
      <point x="146" y="127"/>
      <point x="302" y="-29"/>
      <point x="597" y="-29" type="curve" smooth="yes"/>
      <point x="720" y="-29"/>
      <point x="831" y="-2"/>
    </contour>
  </outline>
</glyph>
<glyph name="Emacron" format="1">
  <advance width="1233"/>
  <unicode hex="0112"/>
  <outline>
    <contour>
      <point x="549" y="1800" type="line" name="hr00"/>
      <point x="1147" y="1800" type="line" name="dv02"/>
      <point x="1118" y="1652" type="line" name="dv01"/>
      <point x="520" y="1652" type="line"/>
    </contour>
    <contour>
      <point x="344" y="1493" type="line" name="at01"/>
      <point x="1229" y="1493" type="line"/>
      <point x="1196" y="1323" type="line" name="sv01"/>
      <point x="512" y="1323" type="line"/>
      <point x="426" y="881" type="line"/>
      <point x="1079" y="881" type="line" name="dv04"/>
      <point x="1047" y="711" type="line" name="dv03"/>
      <point x="393" y="711" type="line"/>
      <point x="289" y="170" type="line" name="sv02"/>
      <point x="991" y="170" type="line"/>
      <point x="958" y="0" type="line" name="ab01"/>
      <point x="53" y="0" type="line"/>
    </contour>
  </outline>
</glyph>
<glyph name="Hcircumflex" format="1">
  <advance width="1233"/>
  <unicode hex="0124"/>
  <outline>
    <contour>
      <point x="619" y="1595" type="line" name="hr00"/>
      <point x="828" y="1773" type="line"/>
      <point x="967" y="1595" type="line"/>
      <point x="1100" y="1595" type="line"/>
      <point x="942" y="1861" type="line"/>
      <point x="729" y="1861" type="line"/>
      <point x="467" y="1595" type="line"/>
    </contour>
    <contour>
      <point x="195" y="0" type="line"/>
      <point x="332" y="711" type="line"/>
      <point x="887" y="711" type="line"/>
      <point x="748" y="0" type="line"/>
      <point x="950" y="0" type="line"/>
      <point x="1241" y="1493" type="line"/>
      <point x="1038" y="1493" type="line"/>
      <point x="920" y="881" type="line"/>
      <point x="367" y="881" type="line"/>
      <point x="485" y="1493" type="line"/>
      <point x="283" y="1493" type="line"/>
      <point x="-8" y="0" type="line"/>
    </contour>
  </outline>
</glyph>
<glyph name="IJ" format="1">
  <advance width="1233"/>
  <unicode hex="0132"/>
  <outline>
    <contour>
      <point x="65" y="203" type="line"/>
      <point x="623" y="203" type="line" smooth="yes"/>
      <point x="660" y="203"/>
      <point x="695" y="212"/>
      <point x="730" y="231" type="curve" smooth="yes"/>
      <point x="799" y="267"/>
      <point x="851" y="333"/>
      <point x="866" y="406" type="curve"/>
      <point x="1043" y="1323" type="line"/>
      <point x="723" y="1323" type="line"/>
      <point x="756" y="1493" type="line"/>
      <point x="1279" y="1494" type="line"/>
      <point x="1069" y="406" type="line"/>
      <point x="1054" y="332"/>
      <point x="1022" y="264"/>
      <point x="975" y="203" type="curve" smooth="yes" name="hr01"/>
      <point x="926" y="140"/>
      <point x="867" y="91"/>
      <point x="798" y="54" type="curve" smooth="yes" name="hr02"/>
      <point x="729" y="18"/>
      <point x="657" y="0"/>
      <point x="584" y="0" type="curve" smooth="yes"/>
      <point x="26" y="0" type="line"/>
    </contour>
    <contour>
      <point x="316" y="1493" type="line"/>
      <point x="519" y="1493" type="line"/>
      <point x="308" y="406" type="line"/>
      <point x="105" y="406" type="line"/>
    </contour>
  </outline>
</glyph>
<glyph name="uni0136" format="1">
  <advance width="1233"/>
  <unicode hex="0136"/>
  <outline>
    <contour>
      <point x="283" y="1493" type="line" name="at01"/>
      <point x="485" y="1493" type="line"/>
      <point x="358" y="846" type="line" name="iv01"/>
      <point x="1100" y="1493" type="line" name="at02"/>
      <point x="1354" y="1493" type="line"/>
      <point x="651" y="874" type="line"/>
      <point x="1079" y="0" type="line" name="ab01"/>
      <point x="860" y="0" type="line"/>
      <point x="500" y="741" type="line" name="iv02"/>
      <point x="307" y="573" type="line"/>
      <point x="195" y="0" type="line" name="ab02"/>
      <point x="-8" y="0" type="line"/>
    </contour>
    <contour>
      <point x="439" y="-199" type="line"/>
      <point x="678" y="-199" type="line" name="iv03"/>
      <point x="424" y="-544" type="line" name="av01"/>
      <point x="278" y="-544" type="line"/>
    </contour>
  </outline>
</glyph>
<glyph name="nacute" format="1">
  <advance width="1233"/>
  <unicode hex="0144"/>
  <outline>
    <contour>
      <point x="900" y="1685" type="line" name="av01"/>
      <point x="1119" y="1685" type="line"/>
      <point x="724" y="1309" type="line"/>
      <point x="568" y="1309" type="line" name="iv01"/>
    </contour>
    <contour>
      <point x="303" y="1120" type="line" name="at01"/>
      <point x="467" y="1120" type="line"/>
      <point x="455" y="952" type="line" name="iv02"/>
      <point x="559" y="1085" name="at02"/>
      <point x="672" y="1147" name="dh02"/>
      <point x="809" y="1147" type="curve" smooth="yes"/>
      <point x="985" y="1147" name="ab01"/>
      <point x="1096" y="1045"/>
      <point x="1096" y="874" type="curve" smooth="yes"/>
      <point x="1096" y="827"/>
      <point x="1088" y="763" name="dh01"/>
      <point x="1075" y="694" type="curve" smooth="yes" name="sv01"/>
      <point x="940" y="0" type="line"/>
      <point x="756" y="0" type="line" name="ab02"/>
      <point x="891" y="695" type="line"/>
      <point x="894" y="709" type="line" smooth="yes" name="hr01"/>
      <point x="904" y="756" name="sh01"/>
      <point x="909" y="793"/>
      <point x="909" y="821" type="curve" smooth="yes"/>
      <point x="909" y="926"/>
      <point x="846" y="987"/>
      <point x="729" y="987" type="curve" smooth="yes"/>
      <point x="562" y="987"/>
      <point x="434" y="857"/>
      <point x="391" y="633" type="curve" smooth="yes"/>
      <point x="268" y="0" type="line"/>
      <point x="84" y="0" type="line"/>
    </contour>
  </outline>
</glyph>
<glyph name="Ncaron" format="1">
  <advance width="1233"/>
  <unicode hex="0147"/>
  <outline>
    <contour>
      <point x="534" y="1861" type="line" name="av01"/>
      <point x="670" y="1861" type="line"/>
      <point x="809" y="1683" type="line"/>
      <point x="1018" y="1861" type="line" name="av02"/>
      <point x="1169" y="1861" type="line"/>
      <point x="905" y="1595" type="line"/>
      <point x="692" y="1595" type="line"/>
    </contour>
    <contour>
      <point x="285" y="1493" type="line" name="at01"/>
      <point x="541" y="1493" type="line"/>
      <point x="805" y="264" type="line" name="iv01"/>
      <point x="1044" y="1493" type="line" name="at02"/>
      <point x="1239" y="1493" type="line"/>
      <point x="948" y="0" type="line" name="ab01"/>
      <point x="692" y="0" type="line"/>
      <point x="428" y="1229" type="line" name="iv02"/>
      <point x="188" y="0" type="line" name="ab02"/>
      <point x="-6" y="0" type="line"/>
    </contour>
  </outline>
</glyph>
<glyph name="Omacron" format="1">
  <advance width="1233"/>
  <unicode hex="014C"/>
  <outline>
    <contour>
      <point x="531" y="1800" type="line" name="hr00"/>
      <point x="1129" y="1800" type="line" name="dv04"/>
      <point x="1100" y="1652" type="line" name="dv03"/>
      <point x="502" y="1652" type="line"/>
    </contour>
    <contour>
      <point x="480" y="-29" type="curve" smooth="yes" name="dv01"/>
      <point x="215" y="-29" name="sh01"/>
      <point x="82" y="134"/>
      <point x="82" y="459" type="curve" smooth="yes"/>
      <point x="82" y="544"/>
      <point x="90" y="632" name="at01"/>
      <point x="105" y="722" type="curve" smooth="yes" name="sh02"/>
      <point x="121" y="812"/>
      <point x="142" y="896"/>
      <point x="167" y="975" type="curve" smooth="yes"/>
      <point x="208" y="1104" name="dv02"/>
      <point x="256" y="1200"/>
      <point x="304" y="1272" type="curve" smooth="yes" name="ah02"/>
      <point x="416" y="1439" name="sv01"/>
      <point x="560" y="1520"/>
      <point x="751" y="1520" type="curve" smooth="yes" name="sh03"/>
      <point x="1019" y="1520"/>
      <point x="1151" y="1362" name="ah01"/>
      <point x="1151" y="1037" type="curve" smooth="yes" name="sh04"/>
      <point x="1151" y="876"/>
      <point x="1117" y="683"/>
      <point x="1064" y="516" type="curve" smooth="yes"/>
      <point x="1024" y="391"/>
      <point x="976" y="292"/>
      <point x="927" y="219" type="curve" smooth="yes"/>
      <point x="814" y="48"/>
      <point x="667" y="-29"/>
    </contour>
    <contour>
      <point x="497" y="135" type="curve" smooth="yes"/>
      <point x="628" y="135"/>
      <point x="712" y="209"/>
      <point x="778" y="333" type="curve" smooth="yes"/>
      <point x="878" y="521"/>
      <point x="944" y="841"/>
      <point x="944" y="1060" type="curve" smooth="yes"/>
      <point x="944" y="1236"/>
      <point x="901" y="1356"/>
      <point x="734" y="1356" type="curve" smooth="yes"/>
      <point x="603" y="1356"/>
      <point x="522" y="1283"/>
      <point x="455" y="1159" type="curve" smooth="yes"/>
      <point x="355" y="972"/>
      <point x="287" y="651"/>
      <point x="287" y="432" type="curve" smooth="yes"/>
      <point x="287" y="247"/>
      <point x="334" y="135"/>
    </contour>
  </outline>
</glyph>
<glyph name="ohungarumlaut" format="1">
  <advance width="1233"/>
  <unicode hex="0151"/>
  <outline>
    <contour>
      <point x="688" y="1673" type="line" name="dv03"/>
      <point x="877" y="1673" type="line" name="ih01"/>
      <point x="575" y="1297" type="line" name="sv01"/>
      <point x="440" y="1297" type="line" name="ih02"/>
    </contour>
    <contour>
      <point x="1028" y="1673" type="line"/>
      <point x="1225" y="1673" type="line" name="sv02"/>
      <point x="901" y="1297" type="line"/>
      <point x="766" y="1297" type="line" name="ih03"/>
    </contour>
    <contour>
      <point x="514" y="-29" type="curve" smooth="yes" name="dv01"/>
      <point x="253" y="-29" name="sh01"/>
      <point x="117" y="121"/>
      <point x="117" y="392" type="curve" smooth="yes" name="at01"/>
      <point x="117" y="571" name="sh02"/>
      <point x="177" y="769"/>
      <point x="274" y="911" type="curve" smooth="yes"/>
      <point x="382" y="1068" name="dv02"/>
      <point x="526" y="1147" name="ah02"/>
      <point x="717" y="1147" type="curve" smooth="yes" name="sv03"/>
      <point x="974" y="1147" name="sh03"/>
      <point x="1114" y="1004"/>
      <point x="1114" y="724" type="curve" smooth="yes" name="ah01"/>
      <point x="1114" y="550" name="sh04"/>
      <point x="1060" y="354"/>
      <point x="958" y="207" type="curve" smooth="yes"/>
      <point x="851" y="52"/>
      <point x="707" y="-29"/>
    </contour>
    <contour>
      <point x="524" y="127" type="curve" smooth="yes"/>
      <point x="792" y="127"/>
      <point x="920" y="442"/>
      <point x="920" y="707" type="curve" smooth="yes"/>
      <point x="920" y="906"/>
      <point x="850" y="991"/>
      <point x="709" y="991" type="curve" smooth="yes"/>
      <point x="441" y="991"/>
      <point x="313" y="676"/>
      <point x="313" y="411" type="curve" smooth="yes"/>
      <point x="313" y="212"/>
      <point x="383" y="127"/>
    </contour>
  </outline>
</glyph>
<glyph name="racute" format="1">
  <advance width="1233"/>
  <unicode hex="0155"/>
  <outline>
    <contour>
      <point x="1045" y="1673" type="line" name="av01"/>
      <point x="1264" y="1673" type="line"/>
      <point x="869" y="1297" type="line"/>
      <point x="713" y="1297" type="line" name="iv01"/>
    </contour>
    <contour>
      <point x="434" y="1120" type="line" name="at02"/>
      <point x="598" y="1120" type="line"/>
      <point x="578" y="901" type="line" name="iv02"/>
      <point x="667" y="1062" name="at01"/>
      <point x="812" y="1147"/>
      <point x="992" y="1147" type="curve" smooth="yes" name="iv03"/>
      <point x="1089" y="1147" name="sv01"/>
      <point x="1165" y="1123"/>
      <point x="1219" y="1075" type="curve" name="ab01"/>
      <point x="1184" y="889" type="line"/>
      <point x="1124" y="949"/>
      <point x="1044" y="977"/>
      <point x="948" y="977" type="curve" smooth="yes"/>
      <point x="721" y="977"/>
      <point x="558" y="812"/>
      <point x="508" y="549" type="curve"/>
      <point x="401" y="0" type="line"/>
      <point x="217" y="0" type="line"/>
    </contour>
  </outline>
</glyph>
<glyph name="Rcaron" format="1">
  <advance width="1233"/>
  <unicode hex="0158"/>
  <outline>
    <contour>
      <point x="438" y="1861" type="line" name="av01"/>
      <point x="574" y="1861" type="line"/>
      <point x="713" y="1683" type="line"/>
      <point x="922" y="1861" type="line" name="av02"/>
      <point x="1073" y="1861" type="line" name="ih01"/>
      <point x="809" y="1595" type="line"/>
      <point x="596" y="1595" type="line"/>
    </contour>
    <contour>
      <point x="281" y="1493" type="line" name="at01"/>
      <point x="697" y="1493" type="line" smooth="yes"/>
      <point x="973" y="1493" name="dh02"/>
      <point x="1131" y="1373" name="iv01"/>
      <point x="1131" y="1140" type="curve" smooth="yes"/>
      <point x="1131" y="913"/>
      <point x="982" y="734" name="ih02"/>
      <point x="746" y="705" type="curve"/>
      <point x="793" y="697"/>
      <point x="835" y="671" name="dv01"/>
      <point x="862" y="638" type="curve" smooth="yes"/>
      <point x="890" y="602" name="ab01"/>
      <point x="923" y="529"/>
      <point x="959" y="408" type="curve" smooth="yes" name="dv02"/>
      <point x="1080" y="0" type="line" name="dh01"/>
      <point x="879" y="0" type="line" name="sv01"/>
      <point x="773" y="377" type="line" smooth="yes"/>
      <point x="714" y="585"/>
      <point x="656" y="631"/>
      <point x="510" y="631" type="curve" smooth="yes" name="sh01"/>
      <point x="318" y="631" type="line"/>
      <point x="195" y="0" type="line"/>
      <point x="-8" y="0" type="line"/>
    </contour>
    <contour>
      <point x="570" y="797" type="line" smooth="yes"/>
      <point x="787" y="797"/>
      <point x="928" y="920"/>
      <point x="928" y="1112" type="curve" smooth="yes"/>
      <point x="928" y="1260"/>
      <point x="847" y="1327"/>
      <point x="666" y="1327" type="curve" smooth="yes"/>
      <point x="453" y="1327" type="line"/>
      <point x="351" y="797" type="line"/>
    </contour>
  </outline>
</glyph>
<glyph name="sacute" format="1">
  <advance width="1233"/>
  <unicode hex="015B"/>
  <outline>
    <contour>
      <point x="900" y="1680" type="line" name="av01"/>
      <point x="1119" y="1680" type="line"/>
      <point x="724" y="1304" type="line"/>
      <point x="568" y="1304" type="line" name="ih01"/>
    </contour>
    <contour>
      <point x="476" y="-29" type="curve" smooth="yes" name="dv01"/>
      <point x="360" y="-29"/>
      <point x="248" y="-6"/>
      <point x="115" y="41" type="curve" name="dv02"/>
      <point x="152" y="231" type="line" name="ah02"/>
      <point x="277" y="160"/>
      <point x="394" y="125"/>
      <point x="505" y="125" type="curve" smooth="yes"/>
      <point x="684" y="125" name="sh01"/>
      <point x="807" y="217" name="at01"/>
      <point x="807" y="325" type="curve" smooth="yes"/>
      <point x="807" y="401"/>
      <point x="742" y="455" name="sv01"/>
      <point x="611" y="487" type="curve" smooth="yes" name="sh03"/>
      <point x="583" y="494" type="line"/>
      <point x="516" y="512" type="line" smooth="yes"/>
      <point x="345" y="557"/>
      <point x="266" y="634" name="sh02"/>
      <point x="266" y="778" type="curve" smooth="yes"/>
      <point x="266" y="1002" name="ah01"/>
      <point x="454" y="1147" name="sh04"/>
      <point x="754" y="1147" type="curve" smooth="yes"/>
      <point x="872" y="1147"/>
      <point x="980" y="1125"/>
      <point x="1077" y="1081" type="curve"/>
      <point x="1042" y="901" type="line"/>
      <point x="946" y="961"/>
      <point x="844" y="993"/>
      <point x="731" y="993" type="curve" smooth="yes"/>
      <point x="554" y="993"/>
      <point x="449" y="914"/>
      <point x="449" y="810" type="curve" smooth="yes"/>
      <point x="449" y="734"/>
      <point x="506" y="687"/>
      <point x="670" y="645" type="curve" smooth="yes"/>
      <point x="692" y="639" type="line"/>
      <point x="764" y="621" type="line" smooth="yes"/>
      <point x="924" y="581"/>
      <point x="997" y="498"/>
      <point x="997" y="365" type="curve" smooth="yes"/>
      <point x="997" y="141"/>
      <point x="788" y="-29"/>
    </contour>
  </outline>
</glyph>
<glyph name="Scaron" format="1">
  <advance width="1233"/>
  <unicode hex="0160"/>
  <outline>
    <contour>
      <point x="489" y="1861" type="line" name="ih01"/>
      <point x="625" y="1861" type="line" name="sv02"/>
      <point x="764" y="1683" type="line"/>
      <point x="973" y="1861" type="line" name="sv03"/>
      <point x="1124" y="1861" type="line"/>
      <point x="860" y="1595" type="line" name="sh03"/>
      <point x="647" y="1595" type="line"/>
    </contour>
    <contour>
      <point x="435" y="-29" type="curve" smooth="yes" name="dv01"/>
      <point x="358" y="-29"/>
      <point x="294" y="-21"/>
      <point x="226" y="-6" type="curve" smooth="yes"/>
      <point x="157" y="9"/>
      <point x="90" y="32" name="dv02"/>
      <point x="25" y="61" type="curve"/>
      <point x="66" y="270" type="line" name="ah02"/>
      <point x="131" y="225"/>
      <point x="197" y="191"/>
      <point x="265" y="168" type="curve" smooth="yes"/>
      <point x="333" y="145"/>
      <point x="403" y="135" name="sh01"/>
      <point x="475" y="135" type="curve" smooth="yes"/>
      <point x="590" y="135" name="at01"/>
      <point x="676" y="163"/>
      <point x="745" y="223" type="curve" smooth="yes"/>
      <point x="814" y="282"/>
      <point x="848" y="355"/>
      <point x="848" y="444" type="curve" smooth="yes" name="sv01"/>
      <point x="848" y="503"/>
      <point x="833" y="542" name="sh04"/>
      <point x="804" y="573" type="curve"/>
      <point x="769" y="608"/>
      <point x="715" y="631"/>
      <point x="627" y="659" type="curve" smooth="yes"/>
      <point x="526" y="692" type="line" smooth="yes" name="sh02"/>
      <point x="418" y="727"/>
      <point x="328" y="765"/>
      <point x="269" y="824" type="curve" smooth="yes" name="ah01"/>
      <point x="220" y="873" name="sh05"/>
      <point x="195" y="933"/>
      <point x="195" y="1025" type="curve" smooth="yes"/>
      <point x="195" y="1160"/>
      <point x="248" y="1285"/>
      <point x="360" y="1380" type="curve" smooth="yes"/>
      <point x="471" y="1473"/>
      <point x="618" y="1520"/>
      <point x="783" y="1520" type="curve" smooth="yes"/>
      <point x="847" y="1520"/>
      <point x="902" y="1513"/>
      <point x="962" y="1500" type="curve" smooth="yes"/>
      <point x="1026" y="1485"/>
      <point x="1080" y="1469"/>
      <point x="1147" y="1442" type="curve"/>
      <point x="1108" y="1237" type="line"/>
      <point x="1053" y="1276"/>
      <point x="997" y="1306"/>
      <point x="940" y="1326" type="curve" smooth="yes"/>
      <point x="882" y="1346"/>
      <point x="822" y="1356"/>
      <point x="759" y="1356" type="curve" smooth="yes"/>
      <point x="646" y="1356"/>
      <point x="554" y="1325"/>
      <point x="490" y="1274" type="curve" smooth="yes"/>
      <point x="426" y="1223"/>
      <point x="387" y="1151"/>
      <point x="387" y="1068" type="curve" smooth="yes"/>
      <point x="387" y="1016"/>
      <point x="403" y="979"/>
      <point x="436" y="950" type="curve" smooth="yes"/>
      <point x="469" y="921"/>
      <point x="526" y="894"/>
      <point x="614" y="866" type="curve" smooth="yes"/>
      <point x="735" y="827" type="line" smooth="yes" name="hr01"/>
      <point x="848" y="791"/>
      <point x="921" y="753"/>
      <point x="974" y="694" type="curve" smooth="yes"/>
      <point x="1025" y="638"/>
      <point x="1049" y="572"/>
      <point x="1049" y="473" type="curve" smooth="yes"/>
      <point x="1049" y="326"/>
      <point x="995" y="201"/>
      <point x="883" y="109" type="curve" smooth="yes"/>
      <point x="771" y="17"/>
      <point x="619" y="-29"/>
    </contour>
  </outline>
</glyph>
<glyph name="Ubreve" format="1">
  <advance width="1233"/>
  <unicode hex="016C"/>
  <outline>
    <contour>
      <point x="1139" y="1861" type="curve"/>
      <point x="1018" y="1861" type="line"/>
      <point x="982" y="1784"/>
      <point x="912" y="1746"/>
      <point x="800" y="1746" type="curve" smooth="yes" name="hr01"/>
      <point x="745" y="1746"/>
      <point x="710" y="1754"/>
      <point x="683" y="1773" type="curve" smooth="yes"/>
      <point x="657" y="1790"/>
      <point x="638" y="1820"/>
      <point x="627" y="1861" type="curve" name="hr02"/>
      <point x="513" y="1861" type="line"/>
      <point x="528" y="1778"/>
      <point x="556" y="1723"/>
      <point x="603" y="1680" type="curve"/>
      <point x="650" y="1639"/>
      <point x="713" y="1619"/>
      <point x="793" y="1619" type="curve" smooth="yes"/>
      <point x="878" y="1619"/>
      <point x="951" y="1641"/>
      <point x="1013" y="1684" type="curve" smooth="yes"/>
      <point x="1075" y="1727"/>
      <point x="1117" y="1786"/>
    </contour>
    <contour>
      <point x="679" y="2" type="curve" smooth="yes"/>
      <point x="811" y="45"/>
      <point x="903" y="121"/>
      <point x="964" y="253" type="curve"/>
      <point x="985" y="302"/>
      <point x="1001" y="348"/>
      <point x="1013" y="392" type="curve" smooth="yes"/>
      <point x="1026" y="436"/>
      <point x="1039" y="496"/>
      <point x="1053" y="573" type="curve"/>
      <point x="1231" y="1493" type="line"/>
      <point x="1028" y="1493" type="line"/>
      <point x="850" y="573" type="line"/>
      <point x="829" y="472"/>
      <point x="813" y="402"/>
      <point x="801" y="361" type="curve" smooth="yes"/>
      <point x="786" y="308"/>
      <point x="768" y="267"/>
      <point x="746" y="238" type="curve" smooth="yes"/>
      <point x="725" y="209"/>
      <point x="692" y="185"/>
      <point x="649" y="165" type="curve" smooth="yes"/>
      <point x="605" y="144"/>
      <point x="561" y="135"/>
      <point x="501" y="135" type="curve" smooth="yes"/>
      <point x="424" y="135"/>
      <point x="369" y="150"/>
      <point x="334" y="181" type="curve"/>
      <point x="299" y="210"/>
      <point x="279" y="257"/>
      <point x="279" y="313" type="curve" smooth="yes"/>
      <point x="279" y="360"/>
      <point x="289" y="433"/>
      <point x="309" y="532" type="curve" smooth="yes"/>
      <point x="315" y="561" type="line" smooth="yes"/>
      <point x="316" y="569"/>
      <point x="317" y="573"/>
      <point x="317" y="573" type="curve"/>
      <point x="496" y="1493" type="line"/>
      <point x="293" y="1493" type="line"/>
      <point x="115" y="573" type="line"/>
      <point x="106" y="530"/>
      <point x="97" y="484"/>
      <point x="90" y="433" type="curve" smooth="yes"/>
      <point x="83" y="382"/>
      <point x="80" y="343"/>
      <point x="80" y="315" type="curve" smooth="yes"/>
      <point x="80" y="96"/>
      <point x="224" y="-29"/>
      <point x="477" y="-29" type="curve" smooth="yes"/>
      <point x="549" y="-29"/>
      <point x="616" y="-19"/>
    </contour>
  </outline>
</glyph>
<glyph name="uni01A4" format="1">
  <advance width="1233"/>
  <unicode hex="01A4"/>
  <outline>
    <contour>
      <point x="433" y="1327" type="line" name="hr00"/>
      <point x="361" y="1327"/>
      <point x="317" y="1261"/>
      <point x="289" y="1120" type="curve"/>
      <point x="114" y="1120" type="line"/>
      <point x="136" y="1234" type="line" smooth="yes"/>
      <point x="152" y="1315"/>
      <point x="189" y="1378"/>
      <point x="248" y="1424" type="curve" smooth="yes"/>
      <point x="307" y="1470"/>
      <point x="380" y="1493"/>
      <point x="465" y="1493" type="curve" smooth="yes"/>
      <point x="901" y="1493" type="line" smooth="yes"/>
      <point x="1056" y="1493"/>
      <point x="1167" y="1463"/>
      <point x="1234" y="1403" type="curve" smooth="yes"/>
      <point x="1301" y="1343"/>
      <point x="1334" y="1263"/>
      <point x="1334" y="1163" type="curve" smooth="yes"/>
      <point x="1334" y="1127"/>
      <point x="1330" y="1088"/>
      <point x="1322" y="1046" type="curve" smooth="yes"/>
      <point x="1266" y="753"/>
      <point x="1064" y="600"/>
      <point x="728" y="600" type="curve" smooth="yes"/>
      <point x="494" y="600" type="line"/>
      <point x="377" y="0" type="line"/>
      <point x="175" y="0" type="line"/>
    </contour>
    <contour>
      <point x="760" y="766" type="line" smooth="yes"/>
      <point x="949" y="766"/>
      <point x="1076" y="871"/>
      <point x="1112" y="1047" type="curve" smooth="yes"/>
      <point x="1117" y="1070"/>
      <point x="1119" y="1093"/>
      <point x="1119" y="1114" type="curve" smooth="yes"/>
      <point x="1119" y="1253"/>
      <point x="1030" y="1327"/>
      <point x="869" y="1327" type="curve" smooth="yes"/>
      <point x="635" y="1327" type="line"/>
      <point x="526" y="766" type="line"/>
    </contour>
  </outline>
</glyph>
<glyph name="uni02C0" format="1">
  <advance width="1233"/>
  <unicode hex="02C0"/>
  <outline>
    <contour>
      <point x="511" y="1341" type="line" name="hr00"/>
      <point x="551" y="1341" type="line" smooth="yes" name="dv02"/>
      <point x="639" y="1341"/>
      <point x="699" y="1366" name="dh01"/>
      <point x="739" y="1405" type="curve" smooth="yes"/>
      <point x="776" y="1441" name="dv03"/>
      <point x="799" y="1494"/>
      <point x="799" y="1543" type="curve" smooth="yes"/>
      <point x="799" y="1570" name="dv04"/>
      <point x="792" y="1594" name="dh02"/>
      <point x="779" y="1613" type="curve" smooth="yes"/>
      <point x="752" y="1652"/>
      <point x="697" y="1677" name="dv01"/>
      <point x="614" y="1677" type="curve" smooth="yes"/>
      <point x="550" y="1677"/>
      <point x="481" y="1661"/>
      <point x="409" y="1629" type="curve"/>
      <point x="427" y="1725" type="line"/>
      <point x="496" y="1752"/>
      <point x="566" y="1764"/>
      <point x="638" y="1764" type="curve" smooth="yes"/>
      <point x="839" y="1764"/>
      <point x="922" y="1670"/>
      <point x="922" y="1557" type="curve" smooth="yes"/>
      <point x="922" y="1538"/>
      <point x="920" y="1520"/>
      <point x="916" y="1502" type="curve" smooth="yes"/>
      <point x="886" y="1362"/>
      <point x="764" y="1283"/>
      <point x="623" y="1259" type="curve"/>
      <point x="552" y="894" type="line"/>
      <point x="425" y="894" type="line"/>
    </contour>
  </outline>
</glyph>
<glyph name="tilde" format="1">
  <advance width="1233"/>
  <unicode hex="02DC"/>
  <outline>
    <contour>
      <point x="890" y="1307" type="curve" smooth="yes" name="av01"/>
      <point x="861" y="1307"/>
      <point x="836" y="1312"/>
      <point x="814" y="1322" type="curve" smooth="yes"/>
      <point x="794" y="1331"/>
      <point x="769" y="1347"/>
      <point x="741" y="1376" type="curve" smooth="yes" name="hr01"/>
      <point x="694" y="1425" type="line" smooth="yes" name="av02"/>
      <point x="687" y="1432"/>
      <point x="671" y="1446"/>
      <point x="658" y="1453" type="curve" smooth="yes" name="sv01"/>
      <point x="647" y="1459"/>
      <point x="634" y="1462"/>
      <point x="621" y="1462" type="curve" smooth="yes"/>
      <point x="601" y="1462"/>
      <point x="577" y="1456"/>
      <point x="558" y="1425" type="curve"/>
      <point x="541" y="1400" name="sv02"/>
      <point x="531" y="1361"/>
      <point x="526" y="1309" type="curve"/>
      <point x="401" y="1309" type="line"/>
      <point x="412" y="1399"/>
      <point x="436" y="1469"/>
      <point x="475" y="1518" type="curve" smooth="yes"/>
      <point x="513" y="1567"/>
      <point x="562" y="1591"/>
      <point x="622" y="1591" type="curve" smooth="yes"/>
      <point x="651" y="1591"/>
      <point x="676" y="1586"/>
      <point x="698" y="1576" type="curve" smooth="yes"/>
      <point x="721" y="1565"/>
      <point x="746" y="1546"/>
      <point x="770" y="1522" type="curve" smooth="yes"/>
      <point x="817" y="1475" type="line" smooth="yes"/>
      <point x="836" y="1456"/>
      <point x="839" y="1453"/>
      <point x="854" y="1445" type="curve" smooth="yes"/>
      <point x="865" y="1439"/>
      <point x="876" y="1436"/>
      <point x="888" y="1436" type="curve" smooth="yes"/>
      <point x="915" y="1436"/>
      <point x="938" y="1451"/>
      <point x="953" y="1475" type="curve" smooth="yes"/>
      <point x="968" y="1499"/>
      <point x="980" y="1539"/>
      <point x="985" y="1591" type="curve"/>
      <point x="1110" y="1591" type="line"/>
      <point x="1099" y="1507"/>
      <point x="1076" y="1432"/>
      <point x="1037" y="1381" type="curve" smooth="yes"/>
      <point x="998" y="1330"/>
      <point x="949" y="1307"/>
    </contour>
  </outline>
</glyph>
<glyph name="uni0306" format="1">
  <advance width="0"/>
  <unicode hex="0306"/>
  <outline>
    <contour>
      <point x="-486" y="1321" type="curve" smooth="yes" name="dv01"/>
      <point x="-665" y="1321" name="dh01"/>
      <point x="-764" y="1410"/>
      <point x="-764" y="1567" type="curve" smooth="yes" name="sv01"/>
      <point x="-764" y="1590" name="dh02"/>
      <point x="-764" y="1597" name="dv02"/>
      <point x="-761" y="1608" type="curve" name="sv02"/>
      <point x="-641" y="1608" type="line" name="hr01"/>
      <point x="-641" y="1591" type="line" smooth="yes"/>
      <point x="-641" y="1503"/>
      <point x="-581" y="1458"/>
      <point x="-472" y="1458" type="curve" smooth="yes" name="hr02"/>
      <point x="-359" y="1458"/>
      <point x="-293" y="1508"/>
      <point x="-254" y="1608" type="curve"/>
      <point x="-135" y="1608" type="line"/>
      <point x="-179" y="1416"/>
      <point x="-301" y="1321"/>
    </contour>
  </outline>
</glyph>
<glyph name="uni0307" format="1">
  <advance width="0"/>
  <unicode hex="0307"/>
  <outline>
    <contour>
      <point x="-561" y="1552" type="line" name="hr00"/>
      <point x="-356" y="1552" type="line" name="dv02"/>
      <point x="-397" y="1348" type="line" name="dv01"/>
      <point x="-602" y="1348" type="line"/>
    </contour>
  </outline>
</glyph>
<glyph name="hookabovecomb" format="1">
  <advance width="0"/>
  <unicode hex="0309"/>
  <outline>
    <contour>
      <point x="-711" y="1374" type="line"/>
      <point x="-660" y="1390"/>
      <point x="-604" y="1425" name="dh01"/>
      <point x="-582" y="1444" type="curve" smooth="yes" name="sv01"/>
      <point x="-562" y="1463" name="iv01"/>
      <point x="-541" y="1501"/>
      <point x="-541" y="1536" type="curve" smooth="yes" name="dv02"/>
      <point x="-541" y="1576" name="dh02"/>
      <point x="-567" y="1611" name="sh01"/>
      <point x="-654" y="1611" type="curve" smooth="yes" name="sh02"/>
      <point x="-701" y="1611"/>
      <point x="-760" y="1602" name="dv01"/>
      <point x="-808" y="1579" type="curve"/>
      <point x="-783" y="1710" type="line"/>
      <point x="-722" y="1726"/>
      <point x="-663" y="1734"/>
      <point x="-604" y="1734" type="curve" smooth="yes"/>
      <point x="-464" y="1734"/>
      <point x="-394" y="1688"/>
      <point x="-394" y="1596" type="curve" smooth="yes"/>
      <point x="-394" y="1585"/>
      <point x="-395" y="1575"/>
      <point x="-397" y="1564" type="curve" smooth="yes"/>
      <point x="-399" y="1554" type="line" smooth="yes" name="hr01"/>
      <point x="-415" y="1470"/>
      <point x="-490" y="1397"/>
      <point x="-567" y="1354" type="curve"/>
      <point x="-584" y="1266" type="line" name="hr02"/>
      <point x="-732" y="1266" type="line"/>
    </contour>
  </outline>
</glyph>
<glyph name="uni031A" format="1">
  <advance width="0"/>
  <unicode hex="031A"/>
  <outline>
    <contour>
      <point x="-486" y="1768" type="line" name="sv01"/>
      <point x="-840" y="1768" type="line"/>
      <point x="-814" y="1904" type="line"/>
      <point x="-324" y="1904" type="line" name="dv02"/>
      <point x="-419" y="1414" type="line" name="dv01"/>
      <point x="-555" y="1414" type="line"/>
    </contour>
  </outline>
</glyph>
<glyph name="uni031B" format="1">
  <advance width="0"/>
  <unicode hex="031B"/>
  <outline>
    <contour>
      <point x="-628" y="764" type="curve" smooth="yes" name="sv01"/>
      <point x="-703" y="764"/>
      <point x="-760" y="797" name="iv01"/>
      <point x="-829" y="872" type="curve" name="sv02"/>
      <point x="-806" y="991" type="line"/>
      <point x="-733" y="927"/>
      <point x="-684" y="903" name="at01"/>
      <point x="-639" y="903" type="curve" smooth="yes"/>
      <point x="-583" y="903"/>
      <point x="-545" y="940"/>
      <point x="-530" y="1012" type="curve"/>
      <point x="-527" y="1031"/>
      <point x="-525" y="1048"/>
      <point x="-525" y="1063" type="curve" smooth="yes"/>
      <point x="-525" y="1086"/>
      <point x="-529" y="1111"/>
      <point x="-536" y="1137" type="curve"/>
      <point x="-403" y="1137" type="line" name="hr01"/>
      <point x="-402" y="1118"/>
      <point x="-401" y="1103"/>
      <point x="-401" y="1088" type="curve" smooth="yes"/>
      <point x="-401" y="1052"/>
      <point x="-405" y="1025"/>
      <point x="-409" y="1001" type="curve" smooth="yes"/>
      <point x="-437" y="849"/>
      <point x="-507" y="764"/>
    </contour>
  </outline>
</glyph>
<glyph name="uni032E" format="1">
  <advance width="0"/>
  <unicode hex="032E"/>
  <outline>
    <contour>
      <point x="-838" y="-487" type="curve" smooth="yes" name="dv01"/>
      <point x="-1017" y="-487" name="dh01"/>
      <point x="-1116" y="-398"/>
      <point x="-1116" y="-241" type="curve" smooth="yes" name="sv01"/>
      <point x="-1116" y="-218" name="dh02"/>
      <point x="-1116" y="-211" name="dv02"/>
      <point x="-1113" y="-200" type="curve" name="sv02"/>
      <point x="-993" y="-200" type="line" name="hr01"/>
      <point x="-993" y="-217" type="line" smooth="yes"/>
      <point x="-993" y="-305"/>
      <point x="-933" y="-350"/>
      <point x="-824" y="-350" type="curve" smooth="yes" name="hr02"/>
      <point x="-711" y="-350"/>
      <point x="-645" y="-300"/>
      <point x="-606" y="-200" type="curve"/>
      <point x="-487" y="-200" type="line"/>
      <point x="-531" y="-392"/>
      <point x="-653" y="-487"/>
    </contour>
  </outline>
</glyph>
<glyph name="Etatonos" format="1">
  <advance width="1233"/>
  <unicode hex="0389"/>
  <outline>
    <contour>
      <point x="157" y="1638" type="line" name="av01"/>
      <point x="376" y="1638" type="line"/>
      <point x="-19" y="1262" type="line"/>
      <point x="-175" y="1262" type="line" name="iv01"/>
    </contour>
    <contour>
      <point x="283" y="1493" type="line" name="at01"/>
      <point x="485" y="1493" type="line"/>
      <point x="367" y="881" type="line"/>
      <point x="920" y="881" type="line" name="dv02"/>
      <point x="1038" y="1493" type="line" name="at02"/>
      <point x="1241" y="1493" type="line"/>
      <point x="950" y="0" type="line" name="ab01"/>
      <point x="748" y="0" type="line"/>
      <point x="887" y="711" type="line" name="dv01"/>
      <point x="332" y="711" type="line"/>
      <point x="195" y="0" type="line" name="ab02"/>
      <point x="-8" y="0" type="line"/>
    </contour>
  </outline>
</glyph>
<glyph name="Theta" format="1">
  <advance width="1233"/>
  <unicode hex="0398"/>
  <outline>
    <contour>
      <point x="26" y="501" type="curve" smooth="yes" name="hr00"/>
      <point x="26" y="561"/>
      <point x="32" y="619"/>
      <point x="43" y="676" type="curve" smooth="yes"/>
      <point x="68" y="807"/>
      <point x="117" y="927"/>
      <point x="189" y="1036" type="curve" smooth="yes"/>
      <point x="261" y="1146"/>
      <point x="348" y="1233"/>
      <point x="449" y="1297" type="curve" smooth="yes"/>
      <point x="551" y="1361"/>
      <point x="658" y="1393"/>
      <point x="769" y="1393" type="curve"/>
      <point x="1049" y="1396"/>
      <point x="1217" y="1166"/>
      <point x="1215" y="865" type="curve" smooth="yes"/>
      <point x="1215" y="808"/>
      <point x="1209" y="747"/>
      <point x="1197" y="684" type="curve" smooth="yes"/>
      <point x="1170" y="547"/>
      <point x="1120" y="425"/>
      <point x="1047" y="316" type="curve" smooth="yes"/>
      <point x="974" y="207"/>
      <point x="886" y="123"/>
      <point x="785" y="62" type="curve" smooth="yes"/>
      <point x="684" y="1"/>
      <point x="581" y="-29"/>
      <point x="475" y="-29" type="curve"/>
      <point x="199" y="-33"/>
      <point x="23" y="199"/>
    </contour>
    <contour>
      <point x="995" y="685" type="curve" smooth="yes"/>
      <point x="1006" y="745"/>
      <point x="1012" y="802"/>
      <point x="1012" y="856" type="curve" smooth="yes"/>
      <point x="1012" y="961"/>
      <point x="989" y="1046"/>
      <point x="943" y="1111" type="curve" smooth="yes"/>
      <point x="897" y="1176"/>
      <point x="824" y="1208"/>
      <point x="725" y="1208" type="curve"/>
      <point x="464" y="1212"/>
      <point x="298" y="954"/>
      <point x="246" y="679" type="curve" smooth="yes"/>
      <point x="235" y="619"/>
      <point x="229" y="563"/>
      <point x="229" y="512" type="curve" smooth="yes"/>
      <point x="229" y="405"/>
      <point x="253" y="318"/>
      <point x="300" y="253" type="curve" smooth="yes"/>
      <point x="348" y="188"/>
      <point x="421" y="156"/>
      <point x="518" y="156" type="curve"/>
      <point x="768" y="152"/>
      <point x="941" y="399"/>
    </contour>
    <contour>
      <point x="403" y="764" type="line"/>
      <point x="870" y="764" type="line"/>
      <point x="837" y="594" type="line"/>
      <point x="370" y="594" type="line"/>
    </contour>
  </outline>
</glyph>
<glyph name="Phi" format="1">
  <advance width="1233"/>
  <unicode hex="03A6"/>
  <outline>
    <contour>
      <point x="255" y="170" type="line" name="sv01"/>
      <point x="402" y="170" type="line"/>
      <point x="424" y="286" type="line"/>
      <point x="230" y="307" name="sh01"/>
      <point x="103" y="396" name="sh02"/>
      <point x="103" y="608" type="curve" smooth="yes"/>
      <point x="103" y="649" name="sv02"/>
      <point x="106" y="694"/>
      <point x="117" y="745" type="curve" name="at01"/>
      <point x="178" y="1060"/>
      <point x="366" y="1181" name="sv03"/>
      <point x="603" y="1205" type="curve" name="sv04"/>
      <point x="626" y="1323" type="line"/>
      <point x="479" y="1323" type="line" name="sh03"/>
      <point x="512" y="1493" type="line" name="sh04"/>
      <point x="1009" y="1493" type="line"/>
      <point x="976" y="1323" type="line" name="sv05"/>
      <point x="829" y="1323" type="line" name="sv06"/>
      <point x="806" y="1205" type="line" name="ab01"/>
      <point x="1001" y="1184"/>
      <point x="1128" y="1092" name="ih01"/>
      <point x="1128" y="880" type="curve" smooth="yes"/>
      <point x="1128" y="840" name="sh05"/>
      <point x="1125" y="796"/>
      <point x="1114" y="745" type="curve"/>
      <point x="1053" y="433" name="ih02"/>
      <point x="868" y="310"/>
      <point x="627" y="286" type="curve" name="ah02"/>
      <point x="605" y="170" type="line"/>
      <point x="752" y="170" type="line"/>
      <point x="719" y="0" type="line" name="ah01"/>
      <point x="222" y="0" type="line" name="sh06"/>
    </contour>
    <contour>
      <point x="569" y="1029" type="line"/>
      <point x="520" y="1018"/>
      <point x="472" y="999"/>
      <point x="439" y="971" type="curve" smooth="yes"/>
      <point x="367" y="907"/>
      <point x="318" y="767"/>
      <point x="318" y="651" type="curve" smooth="yes"/>
      <point x="318" y="596"/>
      <point x="329" y="551"/>
      <point x="352" y="520" type="curve"/>
      <point x="375" y="492"/>
      <point x="412" y="473"/>
      <point x="459" y="462" type="curve"/>
    </contour>
    <contour>
      <point x="662" y="462" type="line"/>
      <point x="711" y="473"/>
      <point x="759" y="492"/>
      <point x="792" y="520" type="curve" smooth="yes"/>
      <point x="865" y="582"/>
      <point x="912" y="726"/>
      <point x="912" y="841" type="curve" smooth="yes"/>
      <point x="912" y="896"/>
      <point x="902" y="942"/>
      <point x="879" y="971" type="curve" smooth="yes"/>
      <point x="856" y="999"/>
      <point x="819" y="1018"/>
      <point x="772" y="1029" type="curve"/>
    </contour>
  </outline>
</glyph>
<glyph name="upsilondieresistonos" format="1">
  <advance width="1233"/>
  <unicode hex="03B0"/>
  <outline>
    <contour>
      <point x="1017" y="1888" type="line" name="av01"/>
      <point x="1236" y="1888" type="line"/>
      <point x="841" y="1512" type="line" name="at01"/>
      <point x="685" y="1512" type="line" name="ih01"/>
    </contour>
    <contour>
      <point x="449" y="1320" type="line" smooth="yes" name="sv01"/>
      <point x="429" y="1320"/>
      <point x="418" y="1333"/>
      <point x="422" y="1353" type="curve" smooth="yes" name="at02"/>
      <point x="450" y="1495" type="line" smooth="yes"/>
      <point x="453" y="1513"/>
      <point x="463" y="1522"/>
      <point x="482" y="1522" type="curve" smooth="yes"/>
      <point x="625" y="1522" type="line" smooth="yes" name="sv02"/>
      <point x="645" y="1522"/>
      <point x="656" y="1509"/>
      <point x="652" y="1489" type="curve" smooth="yes" name="at03"/>
      <point x="624" y="1347" type="line" smooth="yes" name="sv03"/>
      <point x="621" y="1329"/>
      <point x="610" y="1320"/>
      <point x="592" y="1320" type="curve" smooth="yes"/>
    </contour>
    <contour>
      <point x="885" y="1320" type="line" smooth="yes" name="ab01"/>
      <point x="865" y="1320" name="sh01"/>
      <point x="854" y="1333"/>
      <point x="858" y="1353" type="curve" smooth="yes" name="sv04"/>
      <point x="886" y="1495" type="line" smooth="yes"/>
      <point x="889" y="1513" name="at04"/>
      <point x="899" y="1522"/>
      <point x="918" y="1522" type="curve" smooth="yes"/>
      <point x="1061" y="1522" type="line" smooth="yes" name="sh03"/>
      <point x="1081" y="1522" name="sv05"/>
      <point x="1092" y="1509"/>
      <point x="1088" y="1489" type="curve" smooth="yes" name="ah02"/>
      <point x="1060" y="1347" type="line" smooth="yes" name="ih02"/>
      <point x="1057" y="1329"/>
      <point x="1046" y="1320" name="sh02"/>
      <point x="1028" y="1320" type="curve" smooth="yes"/>
    </contour>
    <contour>
      <point x="485" y="0" type="curve" smooth="yes"/>
      <point x="302" y="0" name="ah01"/>
      <point x="216" y="81" name="sh04"/>
      <point x="216" y="257" type="curve" smooth="yes"/>
      <point x="216" y="301"/>
      <point x="221" y="350"/>
      <point x="232" y="406" type="curve" smooth="yes"/>
      <point x="342" y="977" type="line"/>
      <point x="132" y="977" type="line"/>
      <point x="160" y="1120" type="line"/>
      <point x="558" y="1120" type="line"/>
      <point x="417" y="395" type="line" smooth="yes"/>
      <point x="408" y="347"/>
      <point x="402" y="307"/>
      <point x="402" y="275" type="curve" smooth="yes"/>
      <point x="402" y="190"/>
      <point x="437" y="156"/>
      <point x="525" y="156" type="curve" smooth="yes"/>
      <point x="750" y="156"/>
      <point x="894" y="387"/>
      <point x="958" y="640" type="curve" smooth="yes"/>
      <point x="973" y="697"/>
      <point x="982" y="756"/>
      <point x="982" y="820" type="curve" smooth="yes"/>
      <point x="982" y="913"/>
      <point x="960" y="1012"/>
      <point x="895" y="1120" type="curve"/>
      <point x="1081" y="1120" type="line" name="hr01"/>
      <point x="1129" y="1037"/>
      <point x="1161" y="932"/>
      <point x="1161" y="803" type="curve" smooth="yes"/>
      <point x="1161" y="751"/>
      <point x="1156" y="697"/>
      <point x="1144" y="638" type="curve" smooth="yes"/>
      <point x="1084" y="342"/>
      <point x="860" y="0"/>
    </contour>
  </outline>
</glyph>
<glyph name="tau" format="1">
  <advance width="1233"/>
  <unicode hex="03C4"/>
  <outline>
    <contour>
      <point x="726" y="0" type="line" smooth="yes" name="ab01"/>
      <point x="533" y="0" name="dh01"/>
      <point x="444" y="79"/>
      <point x="444" y="254" type="curve" smooth="yes" name="sv01"/>
      <point x="444" y="299"/>
      <point x="450" y="349" name="at01"/>
      <point x="461" y="406" type="curve" smooth="yes"/>
      <point x="564" y="936" type="line" name="sv02"/>
      <point x="203" y="936" type="line" name="sv03"/>
      <point x="238" y="1120" type="line"/>
      <point x="1152" y="1120" type="line" name="dh02"/>
      <point x="1117" y="936" type="line"/>
      <point x="752" y="936" type="line" name="sv04"/>
      <point x="646" y="395" type="line" smooth="yes" name="sv05"/>
      <point x="636" y="344" name="ab02"/>
      <point x="631" y="302"/>
      <point x="631" y="270" type="curve" smooth="yes"/>
      <point x="631" y="241"/>
      <point x="635" y="219"/>
      <point x="643" y="204" type="curve" smooth="yes"/>
      <point x="661" y="172"/>
      <point x="706" y="156"/>
      <point x="778" y="156" type="curve" smooth="yes"/>
      <point x="866" y="156" type="line"/>
      <point x="836" y="0" type="line"/>
    </contour>
  </outline>
</glyph>
<glyph name="phi" format="1">
  <advance width="1233"/>
  <unicode hex="03C6"/>
  <outline>
    <contour>
      <point x="422" y="-25" type="line" name="ab01"/>
      <point x="201" y="-25" name="sh01"/>
      <point x="69" y="121"/>
      <point x="69" y="384" type="curve" smooth="yes" name="ih01"/>
      <point x="69" y="436"/>
      <point x="75" y="494"/>
      <point x="86" y="559" type="curve" name="sh03"/>
      <point x="158" y="951"/>
      <point x="377" y="1096" name="sv01"/>
      <point x="581" y="1128" type="curve"/>
      <point x="549" y="965" type="line" name="at01"/>
      <point x="501" y="947" name="sh02"/>
      <point x="457" y="913"/>
      <point x="416" y="864" type="curve" smooth="yes" name="ab02"/>
      <point x="320" y="749" name="av01"/>
      <point x="263" y="559"/>
      <point x="263" y="405" type="curve" smooth="yes" name="sv02"/>
      <point x="263" y="341"/>
      <point x="273" y="285" name="ah02"/>
      <point x="294" y="242" type="curve" smooth="yes"/>
      <point x="329" y="173" name="sv03"/>
      <point x="390" y="139"/>
      <point x="454" y="139" type="curve" name="ah01"/>
      <point x="587" y="826" type="line" smooth="yes" name="sh04"/>
      <point x="626" y="1027"/>
      <point x="733" y="1128"/>
      <point x="885" y="1128" type="curve" smooth="yes"/>
      <point x="1061" y="1128"/>
      <point x="1187" y="991"/>
      <point x="1187" y="741" type="curve" smooth="yes"/>
      <point x="1187" y="685"/>
      <point x="1181" y="627"/>
      <point x="1168" y="560" type="curve" smooth="yes"/>
      <point x="1096" y="188"/>
      <point x="866" y="-24"/>
      <point x="605" y="-24" type="curve"/>
      <point x="527" y="-426" type="line"/>
      <point x="344" y="-426" type="line"/>
    </contour>
    <contour>
      <point x="637" y="140" type="line"/>
      <point x="759" y="140"/>
      <point x="913" y="251"/>
      <point x="974" y="560" type="curve" smooth="yes"/>
      <point x="986" y="620"/>
      <point x="991" y="671"/>
      <point x="991" y="718" type="curve" smooth="yes"/>
      <point x="991" y="786"/>
      <point x="979" y="837"/>
      <point x="959" y="880" type="curve" smooth="yes"/>
      <point x="931" y="939"/>
      <point x="890" y="971"/>
      <point x="859" y="971" type="curve" smooth="yes"/>
      <point x="824" y="971"/>
      <point x="789" y="925"/>
      <point x="770" y="826" type="curve" smooth="yes" name="hr02"/>
    </contour>
  </outline>
</glyph>
<glyph name="uni0404" format="1">
  <advance width="1233"/>
  <unicode hex="0404"/>
  <outline>
    <contour>
      <point x="589" y="-29" type="curve" smooth="yes" name="dv01"/>
      <point x="210" y="-29" name="dh01"/>
      <point x="112" y="237"/>
      <point x="112" y="491" type="curve" smooth="yes" name="at01"/>
      <point x="112" y="568"/>
      <point x="121" y="652"/>
      <point x="139" y="744" type="curve" smooth="yes" name="sv01"/>
      <point x="238" y="1240"/>
      <point x="517" y="1520" name="dv04"/>
      <point x="894" y="1520" type="curve" smooth="yes" name="dv03"/>
      <point x="1012" y="1520"/>
      <point x="1117" y="1493" name="dh02"/>
      <point x="1208" y="1438" type="curve" name="dv02"/>
      <point x="1167" y="1231" type="line"/>
      <point x="1082" y="1314"/>
      <point x="977" y="1356"/>
      <point x="852" y="1356" type="curve" smooth="yes"/>
      <point x="601" y="1356"/>
      <point x="471" y="1181"/>
      <point x="372" y="831" type="curve"/>
      <point x="999" y="831" type="line"/>
      <point x="966" y="661" type="line"/>
      <point x="334" y="661" type="line"/>
      <point x="323" y="602"/>
      <point x="318" y="537"/>
      <point x="318" y="486" type="curve" smooth="yes"/>
      <point x="318" y="342"/>
      <point x="359" y="135"/>
      <point x="621" y="135" type="curve" smooth="yes"/>
      <point x="744" y="135"/>
      <point x="867" y="180"/>
      <point x="979" y="260" type="curve"/>
      <point x="938" y="53" type="line"/>
      <point x="826" y="-2"/>
      <point x="710" y="-29"/>
    </contour>
  </outline>
</glyph>
<glyph name="uni0423" format="1">
  <advance width="1233"/>
  <unicode hex="0423"/>
  <outline>
    <contour>
      <point x="92" y="172" type="line" name="sv01"/>
      <point x="201" y="172" type="line" smooth="yes"/>
      <point x="308" y="172"/>
      <point x="376" y="238"/>
      <point x="440" y="342" type="curve" name="at01"/>
      <point x="484" y="416" type="line"/>
      <point x="269" y="1493" type="line" name="iv01"/>
      <point x="486" y="1493" type="line" name="at02"/>
      <point x="636" y="663" type="line"/>
      <point x="1105" y="1493" type="line"/>
      <point x="1318" y="1493" type="line"/>
      <point x="699" y="425" type="line" name="ab01"/>
      <point x="638" y="318"/>
      <point x="574" y="221"/>
      <point x="518" y="156" type="curve" smooth="yes"/>
      <point x="455" y="82"/>
      <point x="364" y="0"/>
      <point x="207" y="0" type="curve" smooth="yes"/>
      <point x="59" y="0" type="line"/>
    </contour>
  </outline>
</glyph>
<glyph name="uni0436" format="1">
  <advance width="1233"/>
  <unicode hex="0436"/>
  <outline>
    <contour>
      <point x="348" y="716" type="line" name="hr00"/>
      <point x="188" y="1120" type="line" name="at01"/>
      <point x="387" y="1120" type="line"/>
      <point x="558" y="688" type="line" name="iv01"/>
      <point x="642" y="1120" type="line" name="at02"/>
      <point x="810" y="1120" type="line"/>
      <point x="726" y="688" type="line" name="iv02"/>
      <point x="1065" y="1120" type="line" name="at03"/>
      <point x="1264" y="1120" type="line"/>
      <point x="946" y="716" type="line"/>
      <point x="1066" y="0" type="line" name="ab01"/>
      <point x="887" y="0" type="line"/>
      <point x="799" y="528" type="line" name="iv03"/>
      <point x="660" y="351" type="line"/>
      <point x="592" y="0" type="line" name="ab02"/>
      <point x="424" y="0" type="line"/>
      <point x="492" y="351" type="line"/>
      <point x="423" y="528" type="line" name="iv04"/>
      <point x="129" y="0" type="line" name="ab03"/>
      <point x="-50" y="0" type="line"/>
    </contour>
  </outline>
</glyph>
<glyph name="uni043B" format="1">
  <advance width="1233"/>
  <unicode hex="043B"/>
  <outline>
    <contour>
      <point x="-39" y="150" type="line" name="sv01"/>
      <point x="-4" y="150" type="line" smooth="yes"/>
      <point x="120" y="150"/>
      <point x="179" y="221"/>
      <point x="235" y="408" type="curve" smooth="yes" name="at01"/>
      <point x="267" y="512"/>
      <point x="291" y="640" name="ab01"/>
      <point x="307" y="722" type="curve" smooth="yes"/>
      <point x="385" y="1120" type="line" name="sv02"/>
      <point x="1170" y="1120" type="line"/>
      <point x="952" y="0" type="line"/>
      <point x="768" y="0" type="line"/>
      <point x="957" y="970" type="line" name="ab02"/>
      <point x="540" y="970" type="line"/>
      <point x="492" y="725" type="line" smooth="yes"/>
      <point x="452" y="522"/>
      <point x="401" y="254"/>
      <point x="263" y="106" type="curve" smooth="yes"/>
      <point x="197" y="35"/>
      <point x="120" y="0"/>
      <point x="-13" y="0" type="curve" smooth="yes"/>
      <point x="-68" y="0" type="line"/>
    </contour>
  </outline>
</glyph>
<glyph name="uni0459" format="1">
  <advance width="1233"/>
  <unicode hex="0459"/>
  <outline>
    <contour>
      <point x="-71" y="150" type="line" name="sv01"/>
      <point x="-36" y="150" type="line" smooth="yes"/>
      <point x="88" y="150"/>
      <point x="147" y="221"/>
      <point x="203" y="408" type="curve" smooth="yes" name="at01"/>
      <point x="235" y="512"/>
      <point x="259" y="640" name="dv02"/>
      <point x="275" y="722" type="curve" smooth="yes"/>
      <point x="353" y="1120" type="line" name="dh02"/>
      <point x="918" y="1120" type="line"/>
      <point x="830" y="667" type="line" name="ab01"/>
      <point x="851" y="667" type="line" smooth="yes"/>
      <point x="1071" y="667" name="sv02"/>
      <point x="1191" y="560"/>
      <point x="1191" y="389" type="curve" smooth="yes"/>
      <point x="1191" y="321"/>
      <point x="1172" y="181" name="ab02"/>
      <point x="1017" y="82" type="curve" smooth="yes"/>
      <point x="930" y="26" name="sv03"/>
      <point x="828" y="0"/>
      <point x="721" y="0" type="curve" smooth="yes" name="dh01"/>
      <point x="532" y="0" type="line" name="dv01"/>
      <point x="721" y="970" type="line"/>
      <point x="492" y="970" type="line" name="sv04"/>
      <point x="444" y="725" type="line" smooth="yes"/>
      <point x="404" y="523" name="sh01"/>
      <point x="351" y="252"/>
      <point x="215" y="105" type="curve" smooth="yes"/>
      <point x="150" y="35"/>
      <point x="73" y="0"/>
      <point x="-61" y="0" type="curve" smooth="yes"/>
      <point x="-100" y="0" type="line"/>
    </contour>
    <contour>
      <point x="743" y="153" type="line" smooth="yes"/>
      <point x="882" y="153"/>
      <point x="958" y="188"/>
      <point x="971" y="257" type="curve" smooth="yes"/>
      <point x="984" y="326"/>
      <point x="991" y="363"/>
      <point x="991" y="390" type="curve" smooth="yes"/>
      <point x="991" y="467"/>
      <point x="933" y="514"/>
      <point x="813" y="514" type="curve" smooth="yes"/>
      <point x="800" y="514" type="line"/>
      <point x="730" y="153" type="line"/>
    </contour>
  </outline>
</glyph>
<glyph name="uni0463" format="1">
  <advance width="1233"/>
  <unicode hex="0463"/>
  <outline>
    <contour>
      <point x="353" y="973" type="line" name="sv01"/>
      <point x="105" y="973" type="line" name="sv02"/>
      <point x="134" y="1120" type="line" name="at02"/>
      <point x="382" y="1120" type="line"/>
      <point x="466" y="1556" type="line" name="at01"/>
      <point x="650" y="1556" type="line"/>
      <point x="566" y="1120" type="line" name="at03"/>
      <point x="991" y="1120" type="line"/>
      <point x="962" y="973" type="line" name="sv03"/>
      <point x="537" y="973" type="line" name="sv04"/>
      <point x="478" y="667" type="line"/>
      <point x="734" y="667" type="line" smooth="yes" name="dv02"/>
      <point x="982" y="667" name="dh02"/>
      <point x="1122" y="581"/>
      <point x="1122" y="406" type="curve" smooth="yes" name="ab01"/>
      <point x="1122" y="383"/>
      <point x="1120" y="359" name="sv05"/>
      <point x="1115" y="332" type="curve" smooth="yes"/>
      <point x="1072" y="111" name="dh01"/>
      <point x="891" y="0" name="dv01"/>
      <point x="604" y="0" type="curve" smooth="yes"/>
      <point x="164" y="0" type="line"/>
    </contour>
    <contour>
      <point x="626" y="156" type="line" smooth="yes"/>
      <point x="797" y="156" name="sh01"/>
      <point x="896" y="217"/>
      <point x="919" y="334" type="curve" smooth="yes"/>
      <point x="922" y="347"/>
      <point x="923" y="359"/>
      <point x="923" y="371" type="curve" smooth="yes"/>
      <point x="923" y="467"/>
      <point x="841" y="514"/>
      <point x="696" y="514" type="curve" smooth="yes"/>
      <point x="448" y="514" type="line"/>
      <point x="378" y="156" type="line"/>
    </contour>
  </outline>
</glyph>
<glyph name="uni04A5" format="1">
  <advance width="1233"/>
  <unicode hex="04A5"/>
  <outline>
    <contour>
      <point x="265" y="1120" type="line" name="at01"/>
      <point x="433" y="1120" type="line"/>
      <point x="344" y="665" type="line"/>
      <point x="754" y="665" type="line" name="dv02"/>
      <point x="843" y="1120" type="line" name="at02"/>
      <point x="1339" y="1120" type="line"/>
      <point x="1310" y="970" type="line" name="sv01"/>
      <point x="982" y="970" type="line"/>
      <point x="793" y="0" type="line" name="ab01"/>
      <point x="625" y="0" type="line"/>
      <point x="725" y="515" type="line" name="dv01"/>
      <point x="315" y="515" type="line"/>
      <point x="215" y="0" type="line" name="ab02"/>
      <point x="47" y="0" type="line"/>
    </contour>
  </outline>
</glyph>
<glyph name="uni04B1" format="1">
  <advance width="1233"/>
  <unicode hex="04B1"/>
  <outline>
    <contour>
      <point x="361" y="-185" type="line" name="dv03"/>
      <point x="161" y="-185" type="line"/>
      <point x="190" y="-35" type="line" name="sv01"/>
      <point x="390" y="-35" type="line" name="dv04"/>
      <point x="400" y="18" type="line"/>
      <point x="187" y="1120" type="line" name="at01"/>
      <point x="382" y="1120" type="line"/>
      <point x="540" y="244" type="line"/>
      <point x="1040" y="1120" type="line" name="at02"/>
      <point x="1235" y="1120" type="line"/>
      <point x="592" y="18" type="line"/>
      <point x="582" y="-35" type="line" name="dv02"/>
      <point x="782" y="-35" type="line"/>
      <point x="753" y="-185" type="line" name="sv02"/>
      <point x="553" y="-185" type="line"/>
      <point x="506" y="-426" type="line" name="dv01"/>
      <point x="314" y="-426" type="line"/>
    </contour>
  </outline>
</glyph>
<glyph name="uni04C1" format="1">
  <advance width="1233"/>
  <unicode hex="04C1"/>
  <outline>
    <contour>
      <point x="782" y="1619" type="curve" smooth="yes" name="dv01"/>
      <point x="604" y="1619" name="dh01"/>
      <point x="515" y="1687"/>
      <point x="515" y="1824" type="curve" smooth="yes" name="dh02"/>
      <point x="515" y="1836" name="dv02"/>
      <point x="516" y="1848" name="sv01"/>
      <point x="517" y="1861" type="curve"/>
      <point x="636" y="1861" type="line"/>
      <point x="637" y="1789"/>
      <point x="697" y="1750" name="at01"/>
      <point x="810" y="1750" type="curve" smooth="yes"/>
      <point x="919" y="1750" name="ih01"/>
      <point x="990" y="1787" name="at02"/>
      <point x="1025" y="1861" type="curve"/>
      <point x="1144" y="1861" type="line" name="iv01"/>
      <point x="1097" y="1701" name="at03"/>
      <point x="975" y="1619"/>
    </contour>
    <contour>
      <point x="347" y="891" type="line" name="ab01"/>
      <point x="177" y="1493" type="line"/>
      <point x="384" y="1493" type="line" name="iv02"/>
      <point x="552" y="898" type="line"/>
      <point x="668" y="1493" type="line" name="ab02"/>
      <point x="855" y="1493" type="line"/>
      <point x="739" y="898" type="line"/>
      <point x="1139" y="1493" type="line" name="iv03"/>
      <point x="1346" y="1493" type="line" name="ab03"/>
      <point x="942" y="891" type="line"/>
      <point x="1073" y="0" type="line"/>
      <point x="876" y="0" type="line"/>
      <point x="780" y="650" type="line"/>
      <point x="655" y="464" type="line"/>
      <point x="565" y="0" type="line"/>
      <point x="378" y="0" type="line" name="hr01"/>
      <point x="468" y="464" type="line" name="hr02"/>
      <point x="415" y="650" type="line"/>
      <point x="67" y="0" type="line"/>
      <point x="-130" y="0" type="line"/>
    </contour>
  </outline>
</glyph>
<glyph name="uni04E0" format="1">
  <advance width="1233"/>
  <unicode hex="04E0"/>
  <outline>
    <contour>
      <point x="474" y="-28" type="curve" smooth="yes" name="dv01"/>
      <point x="141" y="-28" name="sh01"/>
      <point x="-41" y="96" name="sh02"/>
      <point x="-41" y="331" type="curve" smooth="yes" name="sh04"/>
      <point x="-41" y="364" name="sh03"/>
      <point x="-37" y="398" name="dv02"/>
      <point x="-30" y="435" type="curve" name="sh05"/>
      <point x="171" y="435" type="line" name="ah02"/>
      <point x="167" y="412" name="dv03"/>
      <point x="164" y="390"/>
      <point x="164" y="369" type="curve" smooth="yes"/>
      <point x="164" y="224" name="sh06"/>
      <point x="274" y="142"/>
      <point x="502" y="142" type="curve" smooth="yes" name="at01"/>
      <point x="750" y="142"/>
      <point x="912" y="240"/>
      <point x="949" y="435" type="curve" smooth="yes" name="ih01"/>
      <point x="953" y="456"/>
      <point x="955" y="476" name="sh07"/>
      <point x="955" y="496" type="curve" smooth="yes"/>
      <point x="955" y="637"/>
      <point x="852" y="716" name="ah01"/>
      <point x="653" y="716" type="curve" smooth="yes" name="sh08"/>
      <point x="479" y="716" type="line"/>
      <point x="512" y="882" type="line"/>
      <point x="967" y="1323" type="line"/>
      <point x="230" y="1323" type="line"/>
      <point x="263" y="1493" type="line"/>
      <point x="1232" y="1493" type="line"/>
      <point x="1200" y="1325" type="line" name="hr01"/>
      <point x="738" y="884" type="line"/>
      <point x="892" y="884"/>
      <point x="1052" y="800"/>
      <point x="1116" y="677" type="curve" name="hr02"/>
      <point x="1143" y="628"/>
      <point x="1156" y="570"/>
      <point x="1156" y="503" type="curve" smooth="yes"/>
      <point x="1156" y="363"/>
      <point x="1092" y="202"/>
      <point x="932" y="93" type="curve" smooth="yes"/>
      <point x="815" y="12"/>
      <point x="663" y="-28"/>
    </contour>
  </outline>
</glyph>
<glyph name="uni04E1" format="1">
  <advance width="1233"/>
  <unicode hex="04E1"/>
  <outline>
    <contour>
      <point x="342" y="-436" type="curve" smooth="yes" name="dv01"/>
      <point x="214" y="-436"/>
      <point x="93" y="-415"/>
      <point x="-51" y="-362" type="curve" name="dv02"/>
      <point x="-13" y="-167" type="line"/>
      <point x="87" y="-232" name="dh01"/>
      <point x="216" y="-266"/>
      <point x="361" y="-266" type="curve" smooth="yes" name="dv03"/>
      <point x="621" y="-266"/>
      <point x="772" y="-160"/>
      <point x="807" y="27" type="curve" smooth="yes" name="ih01"/>
      <point x="811" y="48"/>
      <point x="813" y="68" name="at01"/>
      <point x="813" y="88" type="curve" smooth="yes"/>
      <point x="813" y="149"/>
      <point x="794" y="197" name="dv04"/>
      <point x="755" y="234" type="curve" smooth="yes"/>
      <point x="702" y="285" name="dh02"/>
      <point x="618" y="308"/>
      <point x="511" y="308" type="curve" smooth="yes"/>
      <point x="337" y="308" type="line"/>
      <point x="370" y="474" type="line" name="sh01"/>
      <point x="897" y="973" type="line"/>
      <point x="230" y="973" type="line"/>
      <point x="258" y="1120" type="line"/>
      <point x="1132" y="1120" type="line"/>
      <point x="1100" y="952" type="line"/>
      <point x="596" y="476" type="line"/>
      <point x="766" y="476"/>
      <point x="915" y="381"/>
      <point x="974" y="269" type="curve" smooth="yes"/>
      <point x="999" y="221"/>
      <point x="1014" y="162"/>
      <point x="1014" y="95" type="curve" smooth="yes"/>
      <point x="1014" y="-45"/>
      <point x="950" y="-206"/>
      <point x="790" y="-315" type="curve"/>
      <point x="669" y="-399"/>
      <point x="515" y="-436"/>
    </contour>
  </outline>
</glyph>
<glyph name="uni04EB" format="1">
  <advance width="1233"/>
  <unicode hex="04EB"/>
  <outline>
    <contour>
      <point x="469" y="1350" type="line" smooth="yes" name="dv03"/>
      <point x="449" y="1350"/>
      <point x="438" y="1363"/>
      <point x="442" y="1383" type="curve" smooth="yes" name="dv04"/>
      <point x="470" y="1525" type="line" smooth="yes"/>
      <point x="473" y="1543"/>
      <point x="483" y="1552"/>
      <point x="502" y="1552" type="curve" smooth="yes"/>
      <point x="645" y="1552" type="line" smooth="yes"/>
      <point x="664" y="1552" name="sv01"/>
      <point x="673" y="1544"/>
      <point x="673" y="1527" type="curve" smooth="yes"/>
      <point x="673" y="1524" name="sv02"/>
      <point x="673" y="1521"/>
      <point x="672" y="1519" type="curve" smooth="yes"/>
      <point x="644" y="1377" type="line" smooth="yes"/>
      <point x="641" y="1359"/>
      <point x="630" y="1350"/>
      <point x="612" y="1350" type="curve" smooth="yes" name="dv01"/>
    </contour>
    <contour>
      <point x="860" y="1350" type="line" smooth="yes" name="sh01"/>
      <point x="840" y="1350"/>
      <point x="829" y="1363"/>
      <point x="833" y="1383" type="curve" smooth="yes" name="at01"/>
      <point x="861" y="1525" type="line" smooth="yes" name="sh02"/>
      <point x="864" y="1543"/>
      <point x="874" y="1552"/>
      <point x="893" y="1552" type="curve" smooth="yes" name="sh03"/>
      <point x="1036" y="1552" type="line" smooth="yes" name="ah02"/>
      <point x="1055" y="1552" name="sv03"/>
      <point x="1064" y="1544"/>
      <point x="1064" y="1527" type="curve" smooth="yes" name="dv02"/>
      <point x="1064" y="1524" name="dv05"/>
      <point x="1064" y="1521" name="sh05"/>
      <point x="1063" y="1519" type="curve" smooth="yes" name="sh04"/>
      <point x="1035" y="1377" type="line" smooth="yes"/>
      <point x="1032" y="1359" name="ah01"/>
      <point x="1021" y="1350" name="sh06"/>
      <point x="1003" y="1350" type="curve" smooth="yes"/>
    </contour>
    <contour>
      <point x="502" y="-29" type="curve" smooth="yes"/>
      <point x="246" y="-29"/>
      <point x="116" y="108"/>
      <point x="116" y="364" type="curve" smooth="yes"/>
      <point x="116" y="423"/>
      <point x="123" y="488"/>
      <point x="137" y="559" type="curve" smooth="yes"/>
      <point x="174" y="750"/>
      <point x="241" y="893"/>
      <point x="345" y="996" type="curve" smooth="yes"/>
      <point x="452" y="1101"/>
      <point x="580" y="1147"/>
      <point x="729" y="1147" type="curve" smooth="yes"/>
      <point x="986" y="1147"/>
      <point x="1117" y="1012"/>
      <point x="1117" y="753" type="curve" smooth="yes"/>
      <point x="1117" y="694"/>
      <point x="1110" y="630"/>
      <point x="1096" y="559" type="curve" smooth="yes"/>
      <point x="1021" y="178"/>
      <point x="815" y="-29"/>
    </contour>
    <contour>
      <point x="910" y="611" type="line"/>
      <point x="917" y="654"/>
      <point x="920" y="694"/>
      <point x="920" y="731" type="curve" smooth="yes"/>
      <point x="920" y="894"/>
      <point x="853" y="991"/>
      <point x="700" y="991" type="curve" smooth="yes"/>
      <point x="513" y="991"/>
      <point x="399" y="846"/>
      <point x="343" y="611" type="curve"/>
    </contour>
    <contour>
      <point x="532" y="127" type="curve" smooth="yes"/>
      <point x="720" y="127"/>
      <point x="819" y="270"/>
      <point x="873" y="447" type="curve"/>
      <point x="316" y="447" type="line"/>
      <point x="314" y="426"/>
      <point x="313" y="406"/>
      <point x="313" y="387" type="curve" smooth="yes"/>
      <point x="313" y="239"/>
      <point x="367" y="127"/>
    </contour>
  </outline>
</glyph>
<glyph name="uni04F3" format="1">
  <advance width="1233"/>
  <unicode hex="04F3"/>
  <outline>
    <contour>
      <point x="703" y="1648" type="line" name="dv04"/>
      <point x="892" y="1648" type="line"/>
      <point x="590" y="1272" type="line" name="sv01"/>
      <point x="455" y="1272" type="line"/>
    </contour>
    <contour>
      <point x="1043" y="1648" type="line"/>
      <point x="1240" y="1648" type="line" name="sv02"/>
      <point x="916" y="1272" type="line"/>
      <point x="781" y="1272" type="line" name="dv03"/>
    </contour>
    <contour>
      <point x="5" y="-272" type="line"/>
      <point x="113" y="-272" type="line" smooth="yes" name="dv02"/>
      <point x="224" y="-272"/>
      <point x="298" y="-208"/>
      <point x="371" y="-66" type="curve" smooth="yes" name="at01"/>
      <point x="414" y="18" type="line"/>
      <point x="197" y="1120" type="line"/>
      <point x="380" y="1120" type="line" name="at02"/>
      <point x="552" y="258" type="line"/>
      <point x="1035" y="1120" type="line"/>
      <point x="1240" y="1120" type="line"/>
      <point x="801" y="360" type="line" smooth="yes"/>
      <point x="735" y="246" name="dv01"/>
      <point x="666" y="123"/>
      <point x="636" y="72" type="curve" smooth="yes"/>
      <point x="531" y="-112"/>
      <point x="468" y="-220"/>
      <point x="427" y="-276" type="curve"/>
      <point x="347" y="-381"/>
      <point x="245" y="-426"/>
      <point x="124" y="-426" type="curve" smooth="yes"/>
      <point x="-24" y="-426" type="line"/>
    </contour>
  </outline>
</glyph>
<glyph name="uni04F9" format="1">
  <advance width="1233"/>
  <unicode hex="04F9"/>
  <outline>
    <contour>
      <point x="469" y="1320" type="line" smooth="yes" name="dv01"/>
      <point x="449" y="1320"/>
      <point x="438" y="1333"/>
      <point x="442" y="1353" type="curve" smooth="yes" name="dv02"/>
      <point x="470" y="1495" type="line" smooth="yes"/>
      <point x="473" y="1513"/>
      <point x="483" y="1522"/>
      <point x="502" y="1522" type="curve" smooth="yes"/>
      <point x="645" y="1522" type="line" smooth="yes"/>
      <point x="664" y="1522" name="sv01"/>
      <point x="673" y="1514"/>
      <point x="673" y="1497" type="curve" smooth="yes"/>
      <point x="673" y="1494" name="sv02"/>
      <point x="673" y="1491"/>
      <point x="672" y="1489" type="curve" smooth="yes"/>
      <point x="644" y="1347" type="line" smooth="yes"/>
      <point x="641" y="1329"/>
      <point x="630" y="1320"/>
      <point x="612" y="1320" type="curve" smooth="yes" name="at01"/>
    </contour>
    <contour>
      <point x="860" y="1320" type="line" smooth="yes"/>
      <point x="840" y="1320"/>
      <point x="829" y="1333" name="dv04"/>
      <point x="833" y="1353" type="curve" smooth="yes" name="dh02"/>
      <point x="861" y="1495" type="line" smooth="yes"/>
      <point x="864" y="1513" name="ab01"/>
      <point x="874" y="1522"/>
      <point x="893" y="1522" type="curve" smooth="yes" name="at02"/>
      <point x="1036" y="1522" type="line" smooth="yes"/>
      <point x="1055" y="1522" name="ab02"/>
      <point x="1064" y="1514"/>
      <point x="1064" y="1497" type="curve" smooth="yes" name="sv03"/>
      <point x="1064" y="1494"/>
      <point x="1064" y="1491" name="dh01"/>
      <point x="1063" y="1489" type="curve" smooth="yes" name="dv03"/>
      <point x="1035" y="1347" type="line" smooth="yes"/>
      <point x="1032" y="1329"/>
      <point x="1021" y="1320"/>
      <point x="1003" y="1320" type="curve" smooth="yes"/>
    </contour>
    <contour>
      <point x="213" y="1120" type="line"/>
      <point x="395" y="1120" type="line"/>
      <point x="307" y="667" type="line"/>
      <point x="398" y="667" type="line" smooth="yes"/>
      <point x="677" y="667"/>
      <point x="786" y="555"/>
      <point x="786" y="408" type="curve" smooth="yes"/>
      <point x="786" y="383"/>
      <point x="783" y="359"/>
      <point x="778" y="332" type="curve" smooth="yes"/>
      <point x="735" y="108"/>
      <point x="553" y="0"/>
      <point x="268" y="0" type="curve" smooth="yes"/>
      <point x="-5" y="0" type="line"/>
    </contour>
    <contour>
      <point x="1054" y="1120" type="line"/>
      <point x="1238" y="1120" type="line"/>
      <point x="1020" y="0" type="line"/>
      <point x="836" y="0" type="line"/>
    </contour>
    <contour>
      <point x="290" y="153" type="line" smooth="yes"/>
      <point x="463" y="153"/>
      <point x="560" y="213"/>
      <point x="583" y="334" type="curve" smooth="yes"/>
      <point x="586" y="349"/>
      <point x="587" y="363"/>
      <point x="587" y="374" type="curve" smooth="yes"/>
      <point x="587" y="467"/>
      <point x="511" y="514"/>
      <point x="360" y="514" type="curve" smooth="yes"/>
      <point x="277" y="514" type="line"/>
      <point x="207" y="153" type="line"/>
    </contour>
  </outline>
</glyph>
<glyph name="uni0531" format="1">
  <advance width="1233"/>
  <unicode hex="0531"/>
  <outline>
    <contour>
      <point x="893" y="-60" type="line" name="av01"/>
      <point x="840" y="-33"/>
      <point x="787" y="0" name="dv01"/>
      <point x="736" y="39" type="curve"/>
      <point x="653" y="-6" name="dh01"/>
      <point x="555" y="-29"/>
      <point x="443" y="-29" type="curve" smooth="yes" name="at01"/>
      <point x="295" y="-29"/>
      <point x="186" y="10"/>
      <point x="121" y="90" type="curve" smooth="yes" name="dh02"/>
      <point x="76" y="145"/>
      <point x="53" y="220" name="dv02"/>
      <point x="53" y="314" type="curve" smooth="yes" name="iv01"/>
      <point x="53" y="357"/>
      <point x="58" y="405"/>
      <point x="68" y="457" type="curve" smooth="yes"/>
      <point x="269" y="1493" type="line"/>
      <point x="471" y="1493" type="line" name="at02"/>
      <point x="258" y="395" type="line" smooth="yes"/>
      <point x="253" y="368"/>
      <point x="250" y="343"/>
      <point x="250" y="319" type="curve" smooth="yes"/>
      <point x="250" y="284"/>
      <point x="256" y="250"/>
      <point x="272" y="221" type="curve" smooth="yes"/>
      <point x="300" y="170"/>
      <point x="359" y="135"/>
      <point x="474" y="135" type="curve" smooth="yes"/>
      <point x="524" y="135"/>
      <point x="568" y="142"/>
      <point x="606" y="155" type="curve"/>
      <point x="538" y="227"/>
      <point x="488" y="298"/>
      <point x="463" y="366" type="curve"/>
      <point x="618" y="458" type="line"/>
      <point x="642" y="390"/>
      <point x="685" y="328"/>
      <point x="745" y="268" type="curve"/>
      <point x="776" y="317"/>
      <point x="785" y="364"/>
      <point x="792" y="395" type="curve"/>
      <point x="1005" y="1493" type="line"/>
      <point x="1207" y="1493" type="line"/>
      <point x="1006" y="457" type="line" smooth="yes"/>
      <point x="982" y="333"/>
      <point x="940" y="238"/>
      <point x="880" y="162" type="curve"/>
      <point x="916" y="138"/>
      <point x="954" y="117"/>
      <point x="993" y="98" type="curve"/>
    </contour>
  </outline>
</glyph>
<glyph name="uni0535" format="1">
  <advance width="1233"/>
  <unicode hex="0535"/>
  <outline>
    <contour>
      <point x="449" y="-29" type="curve" smooth="yes" name="dv01"/>
      <point x="301" y="-29"/>
      <point x="192" y="10" name="dh01"/>
      <point x="127" y="90" type="curve" smooth="yes"/>
      <point x="82" y="145" name="at01"/>
      <point x="59" y="220"/>
      <point x="59" y="314" type="curve" smooth="yes" name="at02"/>
      <point x="59" y="357"/>
      <point x="64" y="405" name="sv01"/>
      <point x="74" y="457" type="curve" smooth="yes"/>
      <point x="275" y="1493" type="line"/>
      <point x="477" y="1493" type="line" name="dh02"/>
      <point x="405" y="1120" type="line"/>
      <point x="1179" y="1120" type="line" name="dv02"/>
      <point x="1146" y="950" type="line"/>
      <point x="372" y="950" type="line"/>
      <point x="264" y="395" type="line" smooth="yes"/>
      <point x="259" y="368"/>
      <point x="256" y="343"/>
      <point x="256" y="319" type="curve" smooth="yes"/>
      <point x="256" y="284"/>
      <point x="262" y="250"/>
      <point x="278" y="221" type="curve" smooth="yes"/>
      <point x="306" y="170"/>
      <point x="363" y="135"/>
      <point x="479" y="135" type="curve" smooth="yes"/>
      <point x="594" y="135"/>
      <point x="668" y="170"/>
      <point x="716" y="221" type="curve" smooth="yes"/>
      <point x="763" y="270"/>
      <point x="786" y="334"/>
      <point x="798" y="395" type="curve" smooth="yes"/>
      <point x="841" y="618" type="line"/>
      <point x="1043" y="618" type="line"/>
      <point x="1012" y="457" type="line" smooth="yes"/>
      <point x="980" y="290"/>
      <point x="913" y="170"/>
      <point x="817" y="90" type="curve" smooth="yes"/>
      <point x="721" y="10"/>
      <point x="597" y="-29"/>
    </contour>
  </outline>
</glyph>
<glyph name="uni053E" format="1">
  <advance width="1233"/>
  <unicode hex="053E"/>
  <outline>
    <contour>
      <point x="474" y="-29" type="curve" smooth="yes" name="dv01"/>
      <point x="338" y="-29"/>
      <point x="241" y="1" name="sh02"/>
      <point x="170" y="58" type="curve" smooth="yes" name="sh01"/>
      <point x="97" y="118"/>
      <point x="67" y="195" name="sh04"/>
      <point x="55" y="290" type="curve" smooth="yes" name="sv02"/>
      <point x="51" y="323" name="at02"/>
      <point x="49" y="356"/>
      <point x="49" y="391" type="curve" smooth="yes" name="sv03"/>
      <point x="49" y="466"/>
      <point x="58" y="542"/>
      <point x="74" y="621" type="curve" smooth="yes" name="at01"/>
      <point x="109" y="789" name="sh06"/>
      <point x="172" y="946"/>
      <point x="257" y="1081" type="curve" name="iv01"/>
      <point x="119" y="1081" type="line" name="sv04"/>
      <point x="199" y="1493" type="line" name="ih01"/>
      <point x="382" y="1493" type="line"/>
      <point x="334" y="1248" type="line" name="sh05"/>
      <point x="386" y="1248" type="line"/>
      <point x="463" y="1329"/>
      <point x="554" y="1400"/>
      <point x="654" y="1448" type="curve" smooth="yes"/>
      <point x="755" y="1497" name="dv02"/>
      <point x="858" y="1520"/>
      <point x="979" y="1520" type="curve" smooth="yes"/>
      <point x="1042" y="1520"/>
      <point x="1105" y="1514" name="ah02"/>
      <point x="1157" y="1502" type="curve" smooth="yes" name="sh07"/>
      <point x="1209" y="1490"/>
      <point x="1254" y="1472" name="sv01"/>
      <point x="1310" y="1448" type="curve" name="sv05"/>
      <point x="1268" y="1233" type="line"/>
      <point x="1144" y="1326" name="sh03"/>
      <point x="1027" y="1357"/>
      <point x="918" y="1357" type="curve" smooth="yes"/>
      <point x="793" y="1357" name="ah01"/>
      <point x="687" y="1316" name="sh08"/>
      <point x="599" y="1247" type="curve"/>
      <point x="819" y="1242"/>
      <point x="974" y="1183"/>
      <point x="1065" y="1079" type="curve" smooth="yes"/>
      <point x="1132" y="1003"/>
      <point x="1167" y="895"/>
      <point x="1167" y="762" type="curve" smooth="yes"/>
      <point x="1167" y="711"/>
      <point x="1162" y="658"/>
      <point x="1151" y="601" type="curve" smooth="yes"/>
      <point x="1130" y="493"/>
      <point x="1091" y="382"/>
      <point x="1040" y="291" type="curve" smooth="yes"/>
      <point x="989" y="200"/>
      <point x="923" y="120"/>
      <point x="827" y="61" type="curve" smooth="yes"/>
      <point x="731" y="2"/>
      <point x="615" y="-29"/>
    </contour>
    <contour>
      <point x="512" y="135" type="curve" smooth="yes"/>
      <point x="624" y="135"/>
      <point x="701" y="159"/>
      <point x="761" y="202" type="curve" smooth="yes"/>
      <point x="817" y="242"/>
      <point x="854" y="296"/>
      <point x="882" y="373" type="curve" smooth="yes"/>
      <point x="890" y="395"/>
      <point x="922" y="484"/>
      <point x="943" y="600" type="curve" smooth="yes"/>
      <point x="954" y="660"/>
      <point x="961" y="716"/>
      <point x="961" y="767" type="curve" smooth="yes" name="hr01"/>
      <point x="961" y="794"/>
      <point x="960" y="817"/>
      <point x="956" y="840" type="curve" smooth="yes"/>
      <point x="944" y="916"/>
      <point x="912" y="972"/>
      <point x="837" y="1013" type="curve" smooth="yes"/>
      <point x="758" y="1056"/>
      <point x="640" y="1081"/>
      <point x="464" y="1081" type="curve" smooth="yes"/>
      <point x="452" y="1081" type="line"/>
      <point x="371" y="956"/>
      <point x="316" y="793"/>
      <point x="281" y="622" type="curve" smooth="yes"/>
      <point x="257" y="502"/>
      <point x="246" y="395"/>
      <point x="246" y="354" type="curve" smooth="yes"/>
      <point x="246" y="297"/>
      <point x="257" y="245"/>
      <point x="294" y="205" type="curve" smooth="yes"/>
      <point x="334" y="161"/>
      <point x="399" y="135"/>
    </contour>
  </outline>
</glyph>
<glyph name="uni0541" format="1">
  <advance width="1233"/>
  <unicode hex="0541"/>
  <outline>
    <contour>
      <point x="829" y="-48" type="line" name="av01"/>
      <point x="796" y="24"/>
      <point x="761" y="88" name="dv01"/>
      <point x="724" y="148" type="curve"/>
      <point x="587" y="36" name="sh01"/>
      <point x="436" y="-29" name="sh02"/>
      <point x="284" y="-29" type="curve" smooth="yes"/>
      <point x="189" y="-29" name="dv04"/>
      <point x="113" y="-3"/>
      <point x="66" y="46" type="curve" smooth="yes"/>
      <point x="29" y="83" name="ah02"/>
      <point x="11" y="132"/>
      <point x="11" y="195" type="curve" smooth="yes" name="sv01"/>
      <point x="11" y="218"/>
      <point x="13" y="242"/>
      <point x="18" y="265" type="curve" smooth="yes"/>
      <point x="37" y="362"/>
      <point x="86" y="439"/>
      <point x="151" y="490" type="curve" smooth="yes"/>
      <point x="219" y="542" name="at01"/>
      <point x="305" y="570"/>
      <point x="402" y="570" type="curve" smooth="yes" name="sh03"/>
      <point x="537" y="570"/>
      <point x="655" y="516"/>
      <point x="756" y="427" type="curve"/>
      <point x="853" y="564"/>
      <point x="918" y="712" name="dv02"/>
      <point x="954" y="887" type="curve" smooth="yes"/>
      <point x="970" y="964" name="dv03"/>
      <point x="978" y="1032" name="sh05"/>
      <point x="978" y="1091" type="curve" smooth="yes" name="sh04"/>
      <point x="978" y="1160"/>
      <point x="968" y="1213" name="ah01"/>
      <point x="949" y="1252" type="curve" smooth="yes" name="sh06"/>
      <point x="912" y="1328"/>
      <point x="834" y="1356"/>
      <point x="731" y="1356" type="curve" smooth="yes"/>
      <point x="628" y="1356"/>
      <point x="542" y="1329"/>
      <point x="474" y="1253" type="curve" smooth="yes"/>
      <point x="407" y="1178"/>
      <point x="357" y="1055"/>
      <point x="328" y="895" type="curve" smooth="yes"/>
      <point x="324" y="873" type="line"/>
      <point x="121" y="873" type="line"/>
      <point x="125" y="895" type="line" smooth="yes"/>
      <point x="165" y="1115"/>
      <point x="253" y="1275"/>
      <point x="369" y="1379" type="curve" smooth="yes"/>
      <point x="481" y="1479"/>
      <point x="615" y="1520"/>
      <point x="760" y="1520" type="curve" smooth="yes"/>
      <point x="907" y="1520"/>
      <point x="1033" y="1478"/>
      <point x="1106" y="1382" type="curve" smooth="yes"/>
      <point x="1159" y="1311"/>
      <point x="1188" y="1212"/>
      <point x="1188" y="1087" type="curve" smooth="yes"/>
      <point x="1188" y="1027"/>
      <point x="1181" y="963"/>
      <point x="1167" y="894" type="curve" smooth="yes"/>
      <point x="1144" y="781"/>
      <point x="1104" y="669"/>
      <point x="1057" y="573" type="curve" smooth="yes"/>
      <point x="1012" y="481"/>
      <point x="951" y="383"/>
      <point x="875" y="295" type="curve"/>
      <point x="929" y="221"/>
      <point x="972" y="141"/>
      <point x="1005" y="54" type="curve"/>
    </contour>
    <contour>
      <point x="320" y="133" type="curve" smooth="yes"/>
      <point x="411" y="133"/>
      <point x="522" y="183"/>
      <point x="626" y="279" type="curve"/>
      <point x="554" y="356"/>
      <point x="468" y="408"/>
      <point x="376" y="408" type="curve" smooth="yes"/>
      <point x="285" y="408"/>
      <point x="226" y="358"/>
      <point x="209" y="270" type="curve" smooth="yes"/>
      <point x="206" y="257"/>
      <point x="205" y="245"/>
      <point x="205" y="232" type="curve" smooth="yes"/>
      <point x="205" y="168"/>
      <point x="244" y="133"/>
    </contour>
  </outline>
</glyph>
<glyph name="uni0547" format="1">
  <advance width="1233"/>
  <unicode hex="0547"/>
  <outline>
    <contour>
      <point x="480" y="-29" type="curve" smooth="yes" name="dv01"/>
      <point x="335" y="-29"/>
      <point x="207" y="14" name="dh01"/>
      <point x="132" y="115" type="curve" smooth="yes"/>
      <point x="79" y="188"/>
      <point x="49" y="299" name="iv01"/>
      <point x="49" y="428" type="curve" smooth="yes"/>
      <point x="49" y="483"/>
      <point x="54" y="538" name="sh01"/>
      <point x="65" y="597" type="curve" smooth="yes" name="at01"/>
      <point x="105" y="806"/>
      <point x="203" y="973"/>
      <point x="299" y="1080" type="curve" smooth="yes"/>
      <point x="403" y="1197"/>
      <point x="500" y="1235"/>
      <point x="590" y="1240" type="curve"/>
      <point x="508" y="1280" type="line" smooth="yes" name="sv01"/>
      <point x="440" y="1313"/>
      <point x="362" y="1323"/>
      <point x="313" y="1323" type="curve" smooth="yes" name="dh02"/>
      <point x="268" y="1323" type="line"/>
      <point x="301" y="1493" type="line" name="dv02"/>
      <point x="424" y="1493" type="line" smooth="yes"/>
      <point x="492" y="1493"/>
      <point x="575" y="1477"/>
      <point x="663" y="1437" type="curve" smooth="yes"/>
      <point x="1128" y="1224" type="line"/>
      <point x="1087" y="1012" type="line"/>
      <point x="863" y="1115" type="line"/>
      <point x="842" y="1126"/>
      <point x="815" y="1132"/>
      <point x="792" y="1137" type="curve" smooth="yes"/>
      <point x="763" y="1144"/>
      <point x="731" y="1147"/>
      <point x="704" y="1147" type="curve" smooth="yes"/>
      <point x="601" y="1147"/>
      <point x="512" y="1086"/>
      <point x="444" y="998" type="curve" smooth="yes"/>
      <point x="408" y="951"/>
      <point x="378" y="897"/>
      <point x="347" y="824" type="curve" smooth="yes"/>
      <point x="292" y="692"/>
      <point x="259" y="530"/>
      <point x="259" y="399" type="curve" smooth="yes"/>
      <point x="259" y="274"/>
      <point x="287" y="199"/>
      <point x="370" y="160" type="curve" smooth="yes"/>
      <point x="406" y="143"/>
      <point x="452" y="135"/>
      <point x="508" y="135" type="curve" smooth="yes"/>
      <point x="620" y="135"/>
      <point x="698" y="166"/>
      <point x="762" y="238" type="curve" smooth="yes"/>
      <point x="829" y="314"/>
      <point x="877" y="433"/>
      <point x="907" y="596" type="curve" smooth="yes"/>
      <point x="911" y="618" type="line"/>
      <point x="1114" y="618" type="line"/>
      <point x="1110" y="596" type="line" smooth="yes"/>
      <point x="1071" y="379"/>
      <point x="986" y="216"/>
      <point x="866" y="111" type="curve" smooth="yes"/>
      <point x="747" y="7"/>
      <point x="613" y="-29"/>
    </contour>
  </outline>
</glyph>
<glyph name="uni0550" format="1">
  <advance width="1233"/>
  <unicode hex="0550"/>
  <outline>
    <contour>
      <point x="200" y="1036" type="line" smooth="yes" name="hr00"/>
      <point x="232" y="1203"/>
      <point x="299" y="1323" name="dv02"/>
      <point x="395" y="1403" type="curve" smooth="yes"/>
      <point x="491" y="1483" name="dh02"/>
      <point x="615" y="1522"/>
      <point x="763" y="1522" type="curve" smooth="yes"/>
      <point x="911" y="1522"/>
      <point x="1020" y="1483"/>
      <point x="1085" y="1403" type="curve" smooth="yes" name="dh01"/>
      <point x="1129" y="1347"/>
      <point x="1153" y="1274" name="dv01"/>
      <point x="1153" y="1178" type="curve" smooth="yes"/>
      <point x="1153" y="1135"/>
      <point x="1148" y="1088" name="ab01"/>
      <point x="1138" y="1036" type="curve" smooth="yes"/>
      <point x="1107" y="875" type="line"/>
      <point x="905" y="875" type="line" name="sh01"/>
      <point x="948" y="1098" type="line" smooth="yes"/>
      <point x="953" y="1125"/>
      <point x="956" y="1150"/>
      <point x="956" y="1175" type="curve" smooth="yes"/>
      <point x="956" y="1210"/>
      <point x="950" y="1243"/>
      <point x="934" y="1272" type="curve" smooth="yes"/>
      <point x="907" y="1320"/>
      <point x="851" y="1358"/>
      <point x="732" y="1358" type="curve" smooth="yes"/>
      <point x="616" y="1358"/>
      <point x="544" y="1323"/>
      <point x="496" y="1272" type="curve" smooth="yes"/>
      <point x="452" y="1225"/>
      <point x="427" y="1165"/>
      <point x="414" y="1098" type="curve" smooth="yes"/>
      <point x="201" y="0" type="line"/>
      <point x="0" y="0" type="line"/>
    </contour>
  </outline>
</glyph>
<glyph name="uni0554" format="1">
  <advance width="1233"/>
  <unicode hex="0554"/>
  <outline>
    <contour>
      <point x="141" y="244" type="line" name="dv01"/>
      <point x="-49" y="244" type="line"/>
      <point x="-15" y="419" type="line" name="sv01"/>
      <point x="175" y="419" type="line" name="dv02"/>
      <point x="304" y="1080" type="line" smooth="yes"/>
      <point x="328" y="1205"/>
      <point x="381" y="1314" name="at01"/>
      <point x="477" y="1395" type="curve" smooth="yes"/>
      <point x="570" y="1475" name="dh02"/>
      <point x="696" y="1520"/>
      <point x="857" y="1520" type="curve" smooth="yes"/>
      <point x="1025" y="1520" name="dv03"/>
      <point x="1134" y="1472"/>
      <point x="1193" y="1393" type="curve" smooth="yes" name="iv01"/>
      <point x="1236" y="1337" name="sv02"/>
      <point x="1254" y="1260" name="sv03"/>
      <point x="1254" y="1180" type="curve" smooth="yes" name="sv04"/>
      <point x="1254" y="1145"/>
      <point x="1251" y="1112" name="ab01"/>
      <point x="1244" y="1077" type="curve" smooth="yes"/>
      <point x="1220" y="946" name="dv04"/>
      <point x="1157" y="840"/>
      <point x="1069" y="763" type="curve" smooth="yes"/>
      <point x="971" y="677" name="dh01"/>
      <point x="850" y="634"/>
      <point x="706" y="634" type="curve" smooth="yes"/>
      <point x="645" y="634" name="sv05"/>
      <point x="596" y="642"/>
      <point x="549" y="661" type="curve" smooth="yes"/>
      <point x="510" y="677"/>
      <point x="464" y="705"/>
      <point x="441" y="745" type="curve"/>
      <point x="377" y="419" type="line" name="hr01"/>
      <point x="1101" y="419" type="line" name="sh01"/>
      <point x="1067" y="244" type="line"/>
      <point x="343" y="244" type="line"/>
      <point x="296" y="0" type="line"/>
      <point x="94" y="0" type="line"/>
    </contour>
    <contour>
      <point x="733" y="798" type="curve" smooth="yes"/>
      <point x="833" y="798"/>
      <point x="895" y="823"/>
      <point x="944" y="875" type="curve" smooth="yes"/>
      <point x="983" y="916"/>
      <point x="1028" y="989"/>
      <point x="1044" y="1077" type="curve" smooth="yes"/>
      <point x="1048" y="1101"/>
      <point x="1050" y="1124"/>
      <point x="1050" y="1147" type="curve" smooth="yes"/>
      <point x="1050" y="1202"/>
      <point x="1038" y="1247"/>
      <point x="1022" y="1278" type="curve" smooth="yes"/>
      <point x="1009" y="1301"/>
      <point x="990" y="1322"/>
      <point x="954" y="1337" type="curve"/>
      <point x="922" y="1349"/>
      <point x="875" y="1356"/>
      <point x="823" y="1356" type="curve" smooth="yes"/>
      <point x="715" y="1356"/>
      <point x="650" y="1326"/>
      <point x="603" y="1279" type="curve" smooth="yes"/>
      <point x="554" y="1231"/>
      <point x="520" y="1157"/>
      <point x="505" y="1080" type="curve" smooth="yes"/>
      <point x="500" y="1053"/>
      <point x="498" y="1029"/>
      <point x="498" y="1004" type="curve" smooth="yes"/>
      <point x="498" y="955"/>
      <point x="507" y="911"/>
      <point x="528" y="878" type="curve" smooth="yes" name="hr02"/>
      <point x="561" y="826"/>
      <point x="626" y="798"/>
    </contour>
  </outline>
</glyph>
<glyph name="uni055C" format="1">
  <advance width="1233"/>
  <unicode hex="055C"/>
  <outline>
    <contour>
      <point x="170" y="1265" type="line" name="av01"/>
      <point x="186" y="1345"/>
      <point x="229" y="1418"/>
      <point x="289" y="1477" type="curve" smooth="yes"/>
      <point x="349" y="1536"/>
      <point x="428" y="1577" name="av03"/>
      <point x="513" y="1597" type="curve" smooth="yes"/>
      <point x="548" y="1605"/>
      <point x="586" y="1614"/>
      <point x="629" y="1623" type="curve" smooth="yes"/>
      <point x="713" y="1642"/>
      <point x="791" y="1673" name="av02"/>
      <point x="851" y="1726" type="curve" smooth="yes"/>
      <point x="881" y="1753"/>
      <point x="900" y="1787"/>
      <point x="909" y="1829" type="curve"/>
      <point x="1061" y="1829" type="line"/>
      <point x="1046" y="1749"/>
      <point x="1004" y="1678"/>
      <point x="947" y="1621" type="curve" smooth="yes"/>
      <point x="890" y="1564"/>
      <point x="816" y="1521"/>
      <point x="739" y="1501" type="curve" smooth="yes"/>
      <point x="692" y="1488"/>
      <point x="646" y="1478"/>
      <point x="599" y="1469" type="curve" smooth="yes"/>
      <point x="507" y="1452"/>
      <point x="431" y="1425"/>
      <point x="376" y="1374" type="curve" smooth="yes"/>
      <point x="349" y="1348"/>
      <point x="331" y="1312"/>
      <point x="322" y="1265" type="curve"/>
    </contour>
  </outline>
</glyph>
<glyph name="uni0561" format="1">
  <advance width="1233"/>
  <unicode hex="0561"/>
  <outline>
    <contour>
      <point x="231" y="-27" type="curve" smooth="yes" name="ab01"/>
      <point x="148" y="-27"/>
      <point x="94" y="-3" name="dh01"/>
      <point x="67" y="76" type="curve" smooth="yes"/>
      <point x="57" y="106" name="at01"/>
      <point x="52" y="143"/>
      <point x="52" y="187" type="curve" smooth="yes"/>
      <point x="52" y="259" name="sh01"/>
      <point x="65" y="350" name="dh02"/>
      <point x="88" y="471" type="curve" smooth="yes" name="sv01"/>
      <point x="214" y="1120" type="line" name="hr01"/>
      <point x="382" y="1120" type="line"/>
      <point x="257" y="479" type="line" smooth="yes" name="at02"/>
      <point x="242" y="400"/>
      <point x="233" y="348"/>
      <point x="226" y="287" type="curve" smooth="yes"/>
      <point x="223" y="263"/>
      <point x="221" y="242" name="sv02"/>
      <point x="221" y="223" type="curve" smooth="yes"/>
      <point x="221" y="163"/>
      <point x="240" y="127" name="at03"/>
      <point x="311" y="127" type="curve" smooth="yes"/>
      <point x="367" y="127" name="ab03"/>
      <point x="406" y="149"/>
      <point x="433" y="188" type="curve" smooth="yes" name="iv01"/>
      <point x="465" y="235" name="ab02"/>
      <point x="491" y="334" name="iv02"/>
      <point x="519" y="479" type="curve" smooth="yes"/>
      <point x="644" y="1120" type="line"/>
      <point x="812" y="1120" type="line"/>
      <point x="687" y="479" type="line" smooth="yes"/>
      <point x="664" y="360"/>
      <point x="653" y="280"/>
      <point x="653" y="229" type="curve" smooth="yes"/>
      <point x="653" y="210"/>
      <point x="655" y="195"/>
      <point x="658" y="183" type="curve" smooth="yes"/>
      <point x="667" y="151"/>
      <point x="695" y="127"/>
      <point x="751" y="127" type="curve" smooth="yes"/>
      <point x="845" y="127"/>
      <point x="879" y="199"/>
      <point x="905" y="291" type="curve" smooth="yes"/>
      <point x="919" y="341"/>
      <point x="933" y="404"/>
      <point x="948" y="479" type="curve" smooth="yes"/>
      <point x="1073" y="1120" type="line"/>
      <point x="1240" y="1120" type="line"/>
      <point x="1022" y="0" type="line"/>
      <point x="875" y="0" type="line"/>
      <point x="874" y="96" type="line"/>
      <point x="809" y="9"/>
      <point x="736" y="-27"/>
      <point x="652" y="-27" type="curve" smooth="yes"/>
      <point x="560" y="-27"/>
      <point x="496" y="17"/>
      <point x="477" y="114" type="curve"/>
      <point x="412" y="18"/>
      <point x="342" y="-27"/>
    </contour>
  </outline>
</glyph>
<glyph name="uni0575" format="1">
  <advance width="1233"/>
  <unicode hex="0575"/>
  <outline>
    <contour>
      <point x="197" y="-270" type="line" name="hr00"/>
      <point x="431" y="-270" type="line" smooth="yes" name="dv02"/>
      <point x="554" y="-270"/>
      <point x="627" y="-187" name="at01"/>
      <point x="659" y="-20" type="curve" smooth="yes"/>
      <point x="881" y="1120" type="line"/>
      <point x="1065" y="1120" type="line" name="dv01"/>
      <point x="843" y="-20" type="line" smooth="yes"/>
      <point x="792" y="-281"/>
      <point x="641" y="-426"/>
      <point x="420" y="-426" type="curve" smooth="yes"/>
      <point x="166" y="-426" type="line"/>
    </contour>
  </outline>
</glyph>
<glyph name="uni057B" format="1">
  <advance width="1233"/>
  <unicode hex="057B"/>
  <outline>
    <contour>
      <point x="210" y="-426" type="line" smooth="yes" name="dv01"/>
      <point x="159" y="-426"/>
      <point x="117" y="-408"/>
      <point x="90" y="-379" type="curve" smooth="yes"/>
      <point x="67" y="-355"/>
      <point x="55" y="-327"/>
      <point x="55" y="-295" type="curve" smooth="yes"/>
      <point x="55" y="-286"/>
      <point x="56" y="-278"/>
      <point x="57" y="-269" type="curve" smooth="yes"/>
      <point x="73" y="-161" name="sh02"/>
      <point x="178" y="-66" name="sh01"/>
      <point x="266" y="14" type="curve" smooth="yes"/>
      <point x="313" y="57" name="sh04"/>
      <point x="338" y="86"/>
      <point x="358" y="133" type="curve" smooth="yes" name="dv04"/>
      <point x="375" y="172"/>
      <point x="387" y="223" name="sh05"/>
      <point x="394" y="262" type="curve" smooth="yes" name="sh06"/>
      <point x="397" y="282"/>
      <point x="399" y="300"/>
      <point x="399" y="317" type="curve" smooth="yes"/>
      <point x="399" y="364"/>
      <point x="387" y="402"/>
      <point x="367" y="446" type="curve" smooth="yes"/>
      <point x="352" y="477"/>
      <point x="332" y="510" name="dv02"/>
      <point x="323" y="525" type="curve" smooth="yes"/>
      <point x="290" y="580"/>
      <point x="261" y="628" name="ih01"/>
      <point x="250" y="689" type="curve" smooth="yes"/>
      <point x="247" y="704" name="sh07"/>
      <point x="246" y="721" name="ah02"/>
      <point x="246" y="738" type="curve" smooth="yes"/>
      <point x="246" y="787" name="dv03"/>
      <point x="259" y="837"/>
      <point x="286" y="886" type="curve" smooth="yes" name="sh03"/>
      <point x="320" y="948"/>
      <point x="369" y="1001"/>
      <point x="434" y="1046" type="curve" smooth="yes"/>
      <point x="498" y="1090"/>
      <point x="567" y="1120"/>
      <point x="639" y="1136" type="curve" smooth="yes"/>
      <point x="675" y="1144" name="ah01"/>
      <point x="709" y="1148" name="sh08"/>
      <point x="752" y="1148" type="curve" smooth="yes"/>
      <point x="883" y="1148"/>
      <point x="997" y="1112"/>
      <point x="1065" y="1044" type="curve" smooth="yes"/>
      <point x="1118" y="991"/>
      <point x="1149" y="914"/>
      <point x="1149" y="826" type="curve" smooth="yes"/>
      <point x="1149" y="799"/>
      <point x="1146" y="774"/>
      <point x="1141" y="747" type="curve" smooth="yes"/>
      <point x="1120" y="642"/>
      <point x="1057" y="538"/>
      <point x="976" y="442" type="curve" smooth="yes"/>
      <point x="889" y="339"/>
      <point x="783" y="246"/>
      <point x="691" y="170" type="curve" smooth="yes"/>
      <point x="646" y="133"/>
      <point x="569" y="70"/>
      <point x="544" y="51" type="curve" smooth="yes"/>
      <point x="444" y="-28"/>
      <point x="374" y="-83"/>
      <point x="323" y="-139" type="curve" smooth="yes"/>
      <point x="296" y="-168"/>
      <point x="285" y="-186"/>
      <point x="280" y="-207" type="curve" smooth="yes"/>
      <point x="279" y="-212"/>
      <point x="279" y="-217"/>
      <point x="279" y="-221" type="curve" smooth="yes"/>
      <point x="279" y="-245"/>
      <point x="290" y="-259"/>
      <point x="301" y="-267" type="curve" smooth="yes"/>
      <point x="316" y="-279"/>
      <point x="335" y="-283"/>
      <point x="350" y="-283" type="curve" smooth="yes"/>
      <point x="889" y="-283" type="line"/>
      <point x="862" y="-426" type="line"/>
    </contour>
    <contour>
      <point x="478" y="188" type="curve"/>
      <point x="578" y="269"/>
      <point x="684" y="353"/>
      <point x="776" y="448" type="curve" smooth="yes"/>
      <point x="865" y="540"/>
      <point x="932" y="632"/>
      <point x="953" y="736" type="curve" smooth="yes"/>
      <point x="957" y="757"/>
      <point x="959" y="777"/>
      <point x="959" y="797" type="curve" smooth="yes"/>
      <point x="959" y="849"/>
      <point x="944" y="895"/>
      <point x="913" y="928" type="curve" smooth="yes"/>
      <point x="872" y="972"/>
      <point x="801" y="994"/>
      <point x="724" y="994" type="curve" smooth="yes"/>
      <point x="657" y="994"/>
      <point x="597" y="976"/>
      <point x="546" y="941" type="curve" smooth="yes"/>
      <point x="483" y="898"/>
      <point x="436" y="839"/>
      <point x="436" y="760" type="curve" smooth="yes"/>
      <point x="436" y="725"/>
      <point x="447" y="694"/>
      <point x="466" y="654" type="curve" smooth="yes"/>
      <point x="479" y="626"/>
      <point x="478" y="631"/>
      <point x="502" y="585" type="curve"/>
      <point x="529" y="538"/>
      <point x="552" y="489"/>
      <point x="561" y="433" type="curve" smooth="yes"/>
      <point x="563" y="420"/>
      <point x="564" y="407"/>
      <point x="564" y="396" type="curve" smooth="yes"/>
      <point x="564" y="380"/>
      <point x="562" y="364"/>
      <point x="559" y="348" type="curve" smooth="yes"/>
      <point x="547" y="289"/>
      <point x="521" y="239"/>
    </contour>
  </outline>
</glyph>
<glyph name="uni057C" format="1">
  <advance width="1233"/>
  <unicode hex="057C"/>
  <outline>
    <contour>
      <point x="238" y="1120" type="line" name="at01"/>
      <point x="402" y="1120" type="line"/>
      <point x="388" y="948" type="line" name="iv01"/>
      <point x="481" y="1084" name="at02"/>
      <point x="601" y="1147"/>
      <point x="757" y="1147" type="curve" smooth="yes" name="dh02"/>
      <point x="893" y="1147"/>
      <point x="975" y="1099"/>
      <point x="1019" y="1015" type="curve" smooth="yes" name="sv01"/>
      <point x="1045" y="965"/>
      <point x="1058" y="904" name="ab01"/>
      <point x="1058" y="832" type="curve" smooth="yes"/>
      <point x="1058" y="784"/>
      <point x="1052" y="732"/>
      <point x="1041" y="675" type="curve" smooth="yes"/>
      <point x="1020" y="566" name="dh01"/>
      <point x="985" y="474"/>
      <point x="929" y="383" type="curve" smooth="yes" name="sv02"/>
      <point x="874" y="295"/>
      <point x="805" y="219"/>
      <point x="720" y="143" type="curve" name="ab02"/>
      <point x="1017" y="143" type="line"/>
      <point x="989" y="0" type="line"/>
      <point x="474" y="0" type="line" name="sh01"/>
      <point x="500" y="132" type="line"/>
      <point x="597" y="201"/>
      <point x="672" y="274"/>
      <point x="728" y="354" type="curve" smooth="yes"/>
      <point x="784" y="435"/>
      <point x="821" y="528"/>
      <point x="841" y="632" type="curve" smooth="yes"/>
      <point x="850" y="677"/>
      <point x="855" y="720"/>
      <point x="855" y="760" type="curve" smooth="yes"/>
      <point x="855" y="807"/>
      <point x="848" y="848"/>
      <point x="833" y="883" type="curve" smooth="yes"/>
      <point x="805" y="947"/>
      <point x="746" y="987"/>
      <point x="654" y="987" type="curve" smooth="yes"/>
      <point x="566" y="987"/>
      <point x="498" y="950"/>
      <point x="442" y="890" type="curve" smooth="yes"/>
      <point x="387" y="830"/>
      <point x="350" y="753"/>
      <point x="331" y="653" type="curve" smooth="yes"/>
      <point x="204" y="0" type="line" name="hr01"/>
      <point x="20" y="0" type="line"/>
    </contour>
  </outline>
</glyph>
<glyph name="uni10D5" format="1">
  <advance width="1233"/>
  <unicode hex="10D5"/>
  <outline>
    <contour>
      <point x="475" y="-425" type="curve" smooth="yes" name="dv01"/>
      <point x="214" y="-425" name="dh01"/>
      <point x="83" y="-326"/>
      <point x="83" y="-128" type="curve" smooth="yes"/>
      <point x="83" y="-95" name="ih01"/>
      <point x="87" y="-58"/>
      <point x="94" y="-17" type="curve" name="dh02"/>
      <point x="108" y="44" name="dv02"/>
      <point x="157" y="112"/>
      <point x="241" y="185" type="curve"/>
      <point x="433" y="185" type="line" name="dh03"/>
      <point x="340" y="102" name="dv05"/>
      <point x="293" y="39"/>
      <point x="281" y="-17" type="curve" smooth="yes"/>
      <point x="277" y="-36" name="dv06"/>
      <point x="273" y="-72"/>
      <point x="273" y="-100" type="curve" smooth="yes" name="ih02"/>
      <point x="273" y="-223" name="dv03"/>
      <point x="347" y="-283"/>
      <point x="506" y="-283" type="curve" smooth="yes" name="sh01"/>
      <point x="685" y="-283" name="sh02"/>
      <point x="790" y="-205"/>
      <point x="818" y="-60" type="curve" smooth="yes" name="sh03"/>
      <point x="837" y="38" type="line" smooth="yes"/>
      <point x="842" y="65" name="dv04"/>
      <point x="845" y="88" name="sh04"/>
      <point x="845" y="112" type="curve" smooth="yes"/>
      <point x="845" y="225"/>
      <point x="779" y="281" name="sh05"/>
      <point x="647" y="281" type="curve" smooth="yes" name="dh04"/>
      <point x="574" y="281" type="line"/>
      <point x="602" y="421" type="line"/>
      <point x="676" y="421" type="line" smooth="yes"/>
      <point x="829" y="421"/>
      <point x="919" y="504" name="sh06"/>
      <point x="948" y="660" type="curve" smooth="yes"/>
      <point x="953" y="688"/>
      <point x="956" y="712"/>
      <point x="956" y="737" type="curve" smooth="yes"/>
      <point x="956" y="853"/>
      <point x="894" y="903"/>
      <point x="758" y="903" type="curve" smooth="yes"/>
      <point x="603" y="903"/>
      <point x="497" y="836"/>
      <point x="470" y="701" type="curve" smooth="yes"/>
      <point x="465" y="676"/>
      <point x="463" y="649"/>
      <point x="463" y="621" type="curve" smooth="yes"/>
      <point x="463" y="581"/>
      <point x="467" y="540"/>
      <point x="476" y="493" type="curve"/>
      <point x="315" y="493" type="line"/>
      <point x="296" y="528"/>
      <point x="286" y="570"/>
      <point x="286" y="617" type="curve" smooth="yes" name="hr02"/>
      <point x="286" y="643"/>
      <point x="289" y="671"/>
      <point x="295" y="701" type="curve" smooth="yes"/>
      <point x="339" y="922"/>
      <point x="502" y="1045"/>
      <point x="785" y="1045" type="curve" smooth="yes"/>
      <point x="1029" y="1045"/>
      <point x="1145" y="956"/>
      <point x="1145" y="769" type="curve" smooth="yes"/>
      <point x="1145" y="734"/>
      <point x="1141" y="695"/>
      <point x="1133" y="656" type="curve" smooth="yes"/>
      <point x="1104" y="516"/>
      <point x="1018" y="419"/>
      <point x="846" y="355" type="curve"/>
      <point x="842" y="335" type="line"/>
      <point x="967" y="312"/>
      <point x="1029" y="241"/>
      <point x="1029" y="120" type="curve" smooth="yes"/>
      <point x="1029" y="93"/>
      <point x="1026" y="65"/>
      <point x="1020" y="34" type="curve" smooth="yes"/>
      <point x="1005" y="-45" type="line" smooth="yes"/>
      <point x="957" y="-298"/>
      <point x="778" y="-425"/>
    </contour>
  </outline>
</glyph>
<glyph name="uni10D9" format="1">
  <advance width="1233"/>
  <unicode hex="10D9"/>
  <outline>
    <contour>
      <point x="485" y="-423" type="curve" smooth="yes" name="dv01"/>
      <point x="221" y="-423" name="dh01"/>
      <point x="87" y="-320"/>
      <point x="87" y="-119" type="curve" smooth="yes"/>
      <point x="87" y="-84" name="ih02"/>
      <point x="91" y="-39"/>
      <point x="99" y="0" type="curve" smooth="yes" name="dh02"/>
      <point x="119" y="96" name="dv02"/>
      <point x="167" y="170"/>
      <point x="258" y="241" type="curve"/>
      <point x="431" y="241" type="line" name="dh03"/>
      <point x="347" y="164" name="dv05"/>
      <point x="301" y="76"/>
      <point x="286" y="0" type="curve" smooth="yes"/>
      <point x="282" y="-21" name="dv06"/>
      <point x="278" y="-57"/>
      <point x="278" y="-86" type="curve" smooth="yes" name="ih01"/>
      <point x="278" y="-217" name="dv03"/>
      <point x="360" y="-282" name="dv04"/>
      <point x="513" y="-282" type="curve" smooth="yes" name="sh01"/>
      <point x="682" y="-282"/>
      <point x="793" y="-202"/>
      <point x="824" y="-30" type="curve" smooth="yes"/>
      <point x="833" y="20" type="line" name="dh04"/>
      <point x="840" y="52"/>
      <point x="843" y="75"/>
      <point x="843" y="106" type="curve" smooth="yes"/>
      <point x="843" y="231"/>
      <point x="781" y="292" name="sh02"/>
      <point x="648" y="292" type="curve" smooth="yes"/>
      <point x="583" y="292" type="line"/>
      <point x="613" y="444" type="line"/>
      <point x="678" y="444" type="line" smooth="yes"/>
      <point x="827" y="444"/>
      <point x="919" y="507"/>
      <point x="944" y="642" type="curve" smooth="yes"/>
      <point x="947" y="657"/>
      <point x="948" y="672"/>
      <point x="948" y="683" type="curve" smooth="yes" name="hr02"/>
      <point x="948" y="810"/>
      <point x="826" y="872"/>
      <point x="567" y="872" type="curve"/>
      <point x="597" y="1026" type="line"/>
      <point x="954" y="1026"/>
      <point x="1132" y="926"/>
      <point x="1132" y="725" type="curve" smooth="yes"/>
      <point x="1132" y="698"/>
      <point x="1129" y="669"/>
      <point x="1124" y="642" type="curve" smooth="yes"/>
      <point x="1097" y="507"/>
      <point x="1003" y="420"/>
      <point x="808" y="385" type="curve"/>
      <point x="804" y="365" type="line"/>
      <point x="964" y="336"/>
      <point x="1031" y="250"/>
      <point x="1031" y="110" type="curve" smooth="yes"/>
      <point x="1031" y="75"/>
      <point x="1028" y="52"/>
      <point x="1021" y="20" type="curve"/>
      <point x="1012" y="-30" type="line" smooth="yes"/>
      <point x="965" y="-286"/>
      <point x="790" y="-423"/>
    </contour>
  </outline>
</glyph>
<glyph name="uni10DC" format="1">
  <advance width="1233"/>
  <unicode hex="10DC"/>
  <outline>
    <contour>
      <point x="459" y="0" type="curve" smooth="yes" name="ab01"/>
      <point x="215" y="0" name="sh01"/>
      <point x="89" y="111"/>
      <point x="89" y="336" type="curve" smooth="yes"/>
      <point x="89" y="381"/>
      <point x="94" y="433" name="dv02"/>
      <point x="105" y="490" type="curve" smooth="yes" name="dv01"/>
      <point x="240" y="1184" type="line" smooth="yes"/>
      <point x="285" y="1415"/>
      <point x="419" y="1531" name="sv01"/>
      <point x="640" y="1531" type="curve" smooth="yes"/>
      <point x="1102" y="1531" type="line" name="dv04"/>
      <point x="1074" y="1388" type="line" name="sh02"/>
      <point x="592" y="1388" type="line" smooth="yes"/>
      <point x="499" y="1388"/>
      <point x="440" y="1329" name="sv02"/>
      <point x="417" y="1212" type="curve" smooth="yes" name="sh03"/>
      <point x="360" y="918" type="line" name="ah02"/>
      <point x="395" y="918" type="line" name="dv03"/>
      <point x="448" y="993"/>
      <point x="580" y="1049" name="sh04"/>
      <point x="712" y="1049" type="curve" smooth="yes"/>
      <point x="881" y="1049" name="ah01"/>
      <point x="1048" y="958" name="sh05"/>
      <point x="1048" y="701" type="curve" smooth="yes"/>
      <point x="1048" y="656"/>
      <point x="1043" y="605"/>
      <point x="1032" y="548" type="curve" smooth="yes"/>
      <point x="964" y="181"/>
      <point x="772" y="0"/>
    </contour>
    <contour>
      <point x="492" y="146" type="line" smooth="yes"/>
      <point x="669" y="146"/>
      <point x="802" y="284"/>
      <point x="847" y="545" type="curve" smooth="yes"/>
      <point x="855" y="593"/>
      <point x="860" y="645"/>
      <point x="860" y="682" type="curve" smooth="yes"/>
      <point x="860" y="826"/>
      <point x="785" y="904"/>
      <point x="640" y="904" type="curve" smooth="yes"/>
      <point x="455" y="904"/>
      <point x="338" y="778"/>
      <point x="291" y="525" type="curve" smooth="yes"/>
      <point x="281" y="471"/>
      <point x="276" y="423"/>
      <point x="276" y="381" type="curve" smooth="yes"/>
      <point x="276" y="224"/>
      <point x="347" y="146"/>
      <point x="489" y="146" type="curve" smooth="yes"/>
    </contour>
  </outline>
</glyph>
<glyph name="uni10E9" format="1">
  <advance width="1233"/>
  <unicode hex="10E9"/>
  <outline>
    <contour>
      <point x="245" y="1214" type="line" name="hr00"/>
      <point x="290" y="1451" name="at01"/>
      <point x="439" y="1556" name="sh01"/>
      <point x="686" y="1556" type="curve" smooth="yes"/>
      <point x="914" y="1556"/>
      <point x="1034" y="1468" name="dh02"/>
      <point x="1034" y="1289" type="curve" smooth="yes"/>
      <point x="1034" y="1273" name="ab01"/>
      <point x="1033" y="1258"/>
      <point x="1031" y="1243" type="curve" smooth="yes"/>
      <point x="1020" y="1179" name="dh01"/>
      <point x="972" y="1093" name="sv01"/>
      <point x="885" y="986" type="curve" name="dv01"/>
      <point x="990" y="934"/>
      <point x="1043" y="834" name="ab02"/>
      <point x="1043" y="685" type="curve" smooth="yes"/>
      <point x="1043" y="630"/>
      <point x="1036" y="571" name="dv02"/>
      <point x="1025" y="516" type="curve" smooth="yes" name="sv02"/>
      <point x="980" y="293" name="sh02"/>
      <point x="857" y="127"/>
      <point x="645" y="0" type="curve" name="sv03"/>
      <point x="467" y="0" type="line"/>
      <point x="672" y="133"/>
      <point x="796" y="307"/>
      <point x="839" y="520" type="curve" smooth="yes" name="sh03"/>
      <point x="849" y="571"/>
      <point x="854" y="616"/>
      <point x="854" y="655" type="curve" smooth="yes"/>
      <point x="854" y="802"/>
      <point x="790" y="882"/>
      <point x="647" y="883" type="curve"/>
      <point x="636" y="884"/>
      <point x="626" y="884"/>
      <point x="615" y="884" type="curve" smooth="yes"/>
      <point x="440" y="884"/>
      <point x="338" y="783"/>
      <point x="299" y="587" type="curve"/>
      <point x="185" y="0" type="line"/>
      <point x="7" y="0" type="line"/>
    </contour>
    <contour>
      <point x="393" y="917" type="line"/>
      <point x="440" y="986"/>
      <point x="531" y="1021"/>
      <point x="666" y="1021" type="curve" smooth="yes"/>
      <point x="698" y="1021"/>
      <point x="732" y="1019"/>
      <point x="768" y="1015" type="curve"/>
      <point x="823" y="1103"/>
      <point x="855" y="1173"/>
      <point x="865" y="1224" type="curve"/>
      <point x="865" y="1236" type="line" smooth="yes"/>
      <point x="865" y="1356"/>
      <point x="791" y="1415"/>
      <point x="662" y="1415" type="curve" smooth="yes"/>
      <point x="521" y="1415"/>
      <point x="446" y="1345"/>
      <point x="418" y="1201" type="curve" smooth="yes"/>
      <point x="363" y="917" type="line"/>
    </contour>
  </outline>
</glyph>
<glyph name="uni10EC" format="1">
  <advance width="1233"/>
  <unicode hex="10EC"/>
  <outline>
    <contour>
      <point x="93" y="355" type="curve" smooth="yes" name="dh01"/>
      <point x="93" y="398"/>
      <point x="99" y="460"/>
      <point x="112" y="527" type="curve" smooth="yes" name="at01"/>
      <point x="250" y="1236" type="line" smooth="yes"/>
      <point x="290" y="1445"/>
      <point x="411" y="1556" name="at02"/>
      <point x="599" y="1556" type="curve" smooth="yes" name="dh06"/>
      <point x="733" y="1556"/>
      <point x="791" y="1499"/>
      <point x="807" y="1363" type="curve" name="dh05"/>
      <point x="827" y="1363" type="line" name="sv01"/>
      <point x="894" y="1492"/>
      <point x="992" y="1556" name="sh02"/>
      <point x="1107" y="1556" type="curve" smooth="yes" name="sv02"/>
      <point x="1224" y="1556"/>
      <point x="1278" y="1491" name="dh03"/>
      <point x="1278" y="1350" type="curve" smooth="yes" name="sv03"/>
      <point x="1278" y="1303"/>
      <point x="1272" y="1251" name="sv04"/>
      <point x="1260" y="1192" type="curve"/>
      <point x="1107" y="1192" type="line" name="dv02"/>
      <point x="1117" y="1243" name="dh04"/>
      <point x="1122" y="1286"/>
      <point x="1122" y="1322" type="curve" smooth="yes" name="ab01"/>
      <point x="1122" y="1394"/>
      <point x="1103" y="1418" name="dh02"/>
      <point x="1052" y="1418" type="curve" smooth="yes" name="sv05"/>
      <point x="963" y="1418"/>
      <point x="893" y="1347" name="sh01"/>
      <point x="866" y="1210" type="curve" smooth="yes" name="dv01"/>
      <point x="859" y="1175" type="line"/>
      <point x="702" y="1175" type="line"/>
      <point x="709" y="1208" type="line" smooth="yes"/>
      <point x="714" y="1232"/>
      <point x="718" y="1265" name="sh03"/>
      <point x="718" y="1292" type="curve" smooth="yes"/>
      <point x="718" y="1376"/>
      <point x="681" y="1418"/>
      <point x="608" y="1418" type="curve" smooth="yes" name="hr01"/>
      <point x="513" y="1418"/>
      <point x="452" y="1347"/>
      <point x="425" y="1205" type="curve" smooth="yes"/>
      <point x="369" y="916" type="line"/>
      <point x="389" y="916" type="line"/>
      <point x="446" y="991"/>
      <point x="577" y="1048"/>
      <point x="709" y="1048" type="curve" smooth="yes"/>
      <point x="877" y="1048"/>
      <point x="1042" y="955"/>
      <point x="1042" y="694" type="curve" smooth="yes" name="hr02"/>
      <point x="1042" y="639"/>
      <point x="1035" y="576"/>
      <point x="1023" y="516" type="curve" smooth="yes"/>
      <point x="951" y="156"/>
      <point x="697" y="-3"/>
      <point x="475" y="-3" type="curve" smooth="yes"/>
      <point x="271" y="-3"/>
      <point x="93" y="128"/>
    </contour>
    <contour>
      <point x="286" y="390" type="curve" smooth="yes"/>
      <point x="286" y="234"/>
      <point x="389" y="144"/>
      <point x="506" y="144" type="curve" smooth="yes"/>
      <point x="637" y="144"/>
      <point x="785" y="256"/>
      <point x="838" y="516" type="curve" smooth="yes"/>
      <point x="849" y="572"/>
      <point x="855" y="630"/>
      <point x="855" y="675" type="curve" smooth="yes"/>
      <point x="855" y="826"/>
      <point x="789" y="904"/>
      <point x="653" y="904" type="curve" smooth="yes"/>
      <point x="651" y="904" type="line" smooth="yes"/>
      <point x="471" y="904"/>
      <point x="353" y="800"/>
      <point x="306" y="565" type="curve" smooth="yes"/>
      <point x="293" y="498"/>
      <point x="286" y="431"/>
    </contour>
  </outline>
</glyph>
<glyph name="uni10F9" format="1">
  <advance width="1233"/>
  <unicode hex="10F9"/>
  <outline>
    <contour>
      <point x="490" y="-425" type="curve" smooth="yes" name="dv01"/>
      <point x="285" y="-425" name="ih01"/>
      <point x="190" y="-353"/>
      <point x="190" y="-200" type="curve" smooth="yes" name="ih02"/>
      <point x="190" y="-173" name="dh01"/>
      <point x="193" y="-144"/>
      <point x="199" y="-113" type="curve" smooth="yes" name="dv04"/>
      <point x="229" y="41" name="dh04"/>
      <point x="329" y="146"/>
      <point x="500" y="202" type="curve"/>
      <point x="273" y="252"/>
      <point x="160" y="362" name="sh01"/>
      <point x="160" y="532" type="curve" smooth="yes" name="dv02"/>
      <point x="160" y="559"/>
      <point x="163" y="588" name="sv01"/>
      <point x="169" y="619" type="curve" smooth="yes"/>
      <point x="228" y="924"/>
      <point x="503" y="1061"/>
      <point x="753" y="1061" type="curve" smooth="yes"/>
      <point x="984" y="1061"/>
      <point x="1194" y="944" name="dh03"/>
      <point x="1194" y="735" type="curve" smooth="yes" name="dv03"/>
      <point x="1194" y="706" name="sh02"/>
      <point x="1190" y="660" name="dh02"/>
      <point x="1182" y="619" type="curve" smooth="yes"/>
      <point x="1145" y="428"/>
      <point x="993" y="285" name="sh03"/>
      <point x="733" y="173" type="curve"/>
      <point x="523" y="96"/>
      <point x="407" y="4"/>
      <point x="385" y="-102" type="curve" smooth="yes"/>
      <point x="381" y="-122"/>
      <point x="379" y="-145"/>
      <point x="379" y="-164" type="curve" smooth="yes"/>
      <point x="379" y="-247"/>
      <point x="421" y="-284"/>
      <point x="520" y="-284" type="curve" smooth="yes" name="hr01"/>
      <point x="631" y="-284"/>
      <point x="711" y="-236"/>
      <point x="730" y="-143" type="curve" smooth="yes"/>
      <point x="745" y="-67" type="line"/>
      <point x="923" y="-67" type="line"/>
      <point x="908" y="-143" type="line" smooth="yes"/>
      <point x="871" y="-332"/>
      <point x="726" y="-425"/>
    </contour>
    <contour>
      <point x="623" y="326" type="curve"/>
      <point x="837" y="353"/>
      <point x="961" y="450"/>
      <point x="995" y="619" type="curve" smooth="yes"/>
      <point x="1001" y="650"/>
      <point x="1004" y="677"/>
      <point x="1004" y="702" type="curve" smooth="yes" name="hr02"/>
      <point x="1004" y="847"/>
      <point x="913" y="917"/>
      <point x="741" y="917" type="curve" smooth="yes"/>
      <point x="529" y="917"/>
      <point x="390" y="811"/>
      <point x="359" y="619" type="curve" smooth="yes"/>
      <point x="355" y="592"/>
      <point x="353" y="568"/>
      <point x="353" y="549" type="curve" smooth="yes" name="hr03"/>
      <point x="353" y="430"/>
      <point x="438" y="347"/>
    </contour>
  </outline>
</glyph>
<glyph name="ygrave" format="1">
  <advance width="1233"/>
  <unicode hex="1EF3"/>
  <outline>
    <contour>
      <point x="470" y="1646" type="line" name="av01"/>
      <point x="668" y="1646" type="line"/>
      <point x="865" y="1270" type="line" name="iv01"/>
      <point x="722" y="1270" type="line"/>
    </contour>
    <contour>
      <point x="20" y="-272" type="line"/>
      <point x="128" y="-272" type="line" smooth="yes" name="dv02"/>
      <point x="239" y="-272"/>
      <point x="313" y="-208"/>
      <point x="386" y="-66" type="curve" smooth="yes" name="at01"/>
      <point x="429" y="18" type="line"/>
      <point x="212" y="1120" type="line"/>
      <point x="395" y="1120" type="line" name="at02"/>
      <point x="567" y="258" type="line"/>
      <point x="1050" y="1120" type="line"/>
      <point x="1255" y="1120" type="line"/>
      <point x="816" y="360" type="line" smooth="yes"/>
      <point x="750" y="246" name="dv01"/>
      <point x="681" y="123"/>
      <point x="651" y="72" type="curve" smooth="yes"/>
      <point x="546" y="-112"/>
      <point x="483" y="-220"/>
      <point x="442" y="-276" type="curve"/>
      <point x="362" y="-381"/>
      <point x="260" y="-426"/>
      <point x="139" y="-426" type="curve" smooth="yes"/>
      <point x="-9" y="-426" type="line"/>
    </contour>
  </outline>
</glyph>
<glyph name="uni2037" format="1">
  <advance width="1233"/>
  <unicode hex="2037"/>
  <outline>
    <contour>
      <point x="418" y="1493" type="line" name="at01"/>
      <point x="621" y="1493" type="line"/>
      <point x="722" y="1120" type="line" name="at04"/>
      <point x="635" y="1120" type="line"/>
    </contour>
    <contour>
      <point x="718" y="1493" type="line" name="at02"/>
      <point x="921" y="1493" type="line"/>
      <point x="1022" y="1120" type="line" name="at05"/>
      <point x="935" y="1120" type="line"/>
    </contour>
    <contour>
      <point x="1018" y="1493" type="line" name="at03"/>
      <point x="1221" y="1493" type="line"/>
      <point x="1322" y="1120" type="line" name="at06"/>
      <point x="1235" y="1120" type="line"/>
    </contour>
  </outline>
</glyph>
<glyph name="uni2045" format="1">
  <advance width="1233"/>
  <unicode hex="2045"/>
  <outline>
    <contour>
      <point x="621" y="1556" type="line" name="at01"/>
      <point x="1044" y="1556" type="line"/>
      <point x="1016" y="1413" type="line" name="sv01"/>
      <point x="776" y="1413" type="line"/>
      <point x="640" y="714" type="line"/>
      <point x="880" y="714" type="line" name="dv04"/>
      <point x="852" y="571" type="line" name="dv03"/>
      <point x="612" y="571" type="line"/>
      <point x="477" y="-127" type="line"/>
      <point x="717" y="-127" type="line" name="dv02"/>
      <point x="690" y="-270" type="line" name="dv01"/>
      <point x="264" y="-270" type="line"/>
    </contour>
  </outline>
</glyph>
<glyph name="uni20A2" format="1">
  <advance width="1233"/>
  <unicode hex="20A2"/>
  <outline>
    <contour>
      <point x="587" y="-29" type="curve" smooth="yes" name="av01"/>
      <point x="264" y="-29" name="dh01"/>
      <point x="78" y="192"/>
      <point x="78" y="562" type="curve" smooth="yes" name="at01"/>
      <point x="78" y="801"/>
      <point x="154" y="1047" name="iv01"/>
      <point x="274" y="1226" type="curve" smooth="yes" name="sv01"/>
      <point x="411" y="1429"/>
      <point x="587" y="1520" name="dh02"/>
      <point x="802" y="1520" type="curve" smooth="yes"/>
      <point x="955" y="1520"/>
      <point x="1074" y="1474" name="dv02"/>
      <point x="1185" y="1378" type="curve"/>
      <point x="1151" y="1165" type="line" name="sv02"/>
      <point x="1043" y="1294"/>
      <point x="930" y="1356" name="iv02"/>
      <point x="789" y="1356" type="curve" smooth="yes" name="dv01"/>
      <point x="600" y="1356"/>
      <point x="460" y="1248" name="iv03"/>
      <point x="357" y="1024" type="curve" smooth="yes" name="iv04"/>
      <point x="289" y="875"/>
      <point x="255" y="713"/>
      <point x="255" y="560" type="curve" smooth="yes"/>
      <point x="255" y="273"/>
      <point x="374" y="163"/>
      <point x="533" y="139" type="curve"/>
      <point x="674" y="1008" type="line" name="hr01"/>
      <point x="812" y="1008" type="line"/>
      <point x="785" y="851" type="line"/>
      <point x="858" y="968"/>
      <point x="960" y="1032"/>
      <point x="1077" y="1032" type="curve" smooth="yes"/>
      <point x="1105" y="1032"/>
      <point x="1135" y="1028"/>
      <point x="1163" y="1019" type="curve"/>
      <point x="1138" y="855" type="line"/>
      <point x="1110" y="874"/>
      <point x="1072" y="883"/>
      <point x="1035" y="883" type="curve" smooth="yes"/>
      <point x="889" y="883"/>
      <point x="770" y="743"/>
      <point x="733" y="514" type="curve"/>
      <point x="671" y="140" type="line"/>
      <point x="769" y="153"/>
      <point x="890" y="193"/>
      <point x="1023" y="313" type="curve"/>
      <point x="984" y="74" type="line"/>
      <point x="851" y="6"/>
      <point x="716" y="-29"/>
    </contour>
  </outline>
</glyph>
<glyph name="Omega" format="1">
  <advance width="1233"/>
  <unicode hex="2126"/>
  <outline>
    <contour>
      <point x="-33" y="172" type="line" name="sv01"/>
      <point x="212" y="172" type="line" name="ih01"/>
      <point x="120" y="297" name="sh01"/>
      <point x="76" y="428"/>
      <point x="76" y="585" type="curve" smooth="yes" name="dv02"/>
      <point x="76" y="646" name="sh03"/>
      <point x="83" y="712"/>
      <point x="97" y="782" type="curve" smooth="yes" name="ih02"/>
      <point x="177" y="1194" name="sv02"/>
      <point x="433" y="1460" name="ab01"/>
      <point x="759" y="1460" type="curve" smooth="yes"/>
      <point x="1028" y="1460"/>
      <point x="1177" y="1278"/>
      <point x="1177" y="985" type="curve" smooth="yes" name="ah02"/>
      <point x="1177" y="922" name="dv01"/>
      <point x="1170" y="854"/>
      <point x="1156" y="782" type="curve" smooth="yes" name="sh02"/>
      <point x="1108" y="531"/>
      <point x="1002" y="348" name="ab02"/>
      <point x="804" y="172" type="curve"/>
      <point x="1052" y="172" type="line" name="ah01"/>
      <point x="1018" y="0" type="line" name="sh04"/>
      <point x="555" y="0" type="line"/>
      <point x="589" y="172" type="line"/>
      <point x="768" y="271"/>
      <point x="911" y="514"/>
      <point x="964" y="799" type="curve" smooth="yes"/>
      <point x="975" y="862"/>
      <point x="981" y="919"/>
      <point x="981" y="971" type="curve" smooth="yes"/>
      <point x="981" y="1175"/>
      <point x="896" y="1294"/>
      <point x="728" y="1294" type="curve" smooth="yes"/>
      <point x="525" y="1294"/>
      <point x="361" y="1117"/>
      <point x="297" y="799" type="curve" smooth="yes"/>
      <point x="281" y="721"/>
      <point x="273" y="647"/>
      <point x="273" y="577" type="curve" smooth="yes"/>
      <point x="273" y="390"/>
      <point x="327" y="244"/>
      <point x="430" y="172" type="curve"/>
      <point x="396" y="0" type="line"/>
      <point x="-67" y="0" type="line"/>
    </contour>
  </outline>
</glyph>
<glyph name="uni2151" format="1">
  <advance width="1233"/>
  <unicode hex="2151"/>
  <outline>
    <contour>
      <point x="111" y="934" type="line" name="sv01"/>
      <point x="317" y="934" type="line"/>
      <point x="434" y="1545" type="line"/>
      <point x="203" y="1504" type="line"/>
      <point x="225" y="1620" type="line"/>
      <point x="463" y="1659" type="line" name="av01"/>
      <point x="600" y="1659" type="line"/>
      <point x="459" y="934" type="line"/>
      <point x="664" y="934" type="line" name="sh03"/>
      <point x="643" y="824" type="line" name="dv06"/>
      <point x="90" y="824" type="line"/>
    </contour>
    <contour>
      <point x="47" y="612" type="line"/>
      <point x="1106" y="870" type="line"/>
      <point x="1133" y="762" type="line"/>
      <point x="70" y="504" type="line"/>
    </contour>
    <contour>
      <point x="680" y="-275" type="curve" smooth="yes" name="sh04"/>
      <point x="608" y="-275"/>
      <point x="547" y="-263"/>
      <point x="490" y="-242" type="curve" name="dv01"/>
      <point x="514" y="-138" type="line" name="ih01"/>
      <point x="566" y="-165" name="dv02"/>
      <point x="628" y="-180" name="sh01"/>
      <point x="693" y="-180" type="curve" smooth="yes"/>
      <point x="873" y="-180" name="dv05"/>
      <point x="982" y="-69" name="sh05"/>
      <point x="1030" y="139" type="curve"/>
      <point x="969" y="63"/>
      <point x="890" y="23" name="dv03"/>
      <point x="778" y="23" type="curve" smooth="yes" name="ah02"/>
      <point x="625" y="23" name="dv04"/>
      <point x="533" y="100" name="sh02"/>
      <point x="533" y="239" type="curve" smooth="yes"/>
      <point x="533" y="323" name="ah01"/>
      <point x="567" y="415" name="sh06"/>
      <point x="632" y="484" type="curve" smooth="yes"/>
      <point x="700" y="556"/>
      <point x="792" y="592"/>
      <point x="907" y="592" type="curve" smooth="yes"/>
      <point x="1082" y="592"/>
      <point x="1187" y="506"/>
      <point x="1187" y="327" type="curve" smooth="yes"/>
      <point x="1187" y="220"/>
      <point x="1149" y="73"/>
      <point x="1089" y="-35" type="curve" smooth="yes"/>
      <point x="1000" y="-195"/>
      <point x="864" y="-275"/>
    </contour>
    <contour>
      <point x="814" y="111" type="curve" smooth="yes"/>
      <point x="957" y="111"/>
      <point x="1051" y="225"/>
      <point x="1051" y="353" type="curve" smooth="yes"/>
      <point x="1051" y="453"/>
      <point x="994" y="504"/>
      <point x="902" y="504" type="curve" smooth="yes"/>
      <point x="761" y="504"/>
      <point x="670" y="378"/>
      <point x="670" y="253" type="curve" smooth="yes"/>
      <point x="670" y="156"/>
      <point x="723" y="111"/>
    </contour>
  </outline>
</glyph>
<glyph name="uni2158" format="1">
  <advance width="1233"/>
  <unicode hex="2158"/>
  <outline>
    <contour>
      <point x="434" y="1008" type="line" name="sv01"/>
      <point x="48" y="1008" type="line" name="sv02"/>
      <point x="71" y="1129" type="line" name="at01"/>
      <point x="536" y="1659" type="line" name="av01"/>
      <point x="698" y="1659" type="line"/>
      <point x="593" y="1119" type="line" name="at02"/>
      <point x="710" y="1119" type="line"/>
      <point x="690" y="1008" type="line" name="sv03"/>
      <point x="571" y="1008" type="line" name="sv04"/>
      <point x="538" y="824" type="line" name="sv05"/>
      <point x="399" y="824" type="line" name="sv06"/>
    </contour>
    <contour>
      <point x="456" y="1119" type="line" name="at03"/>
      <point x="532" y="1510" type="line"/>
      <point x="190" y="1119" type="line"/>
    </contour>
    <contour>
      <point x="47" y="612" type="line"/>
      <point x="1106" y="870" type="line"/>
      <point x="1133" y="762" type="line"/>
      <point x="70" y="504" type="line"/>
    </contour>
    <contour>
      <point x="685" y="-285" type="curve" smooth="yes" name="dv01"/>
      <point x="597" y="-285"/>
      <point x="509" y="-273"/>
      <point x="445" y="-249" type="curve" name="dv02"/>
      <point x="472" y="-135" type="line" name="dh01"/>
      <point x="548" y="-172" name="dv03"/>
      <point x="630" y="-191"/>
      <point x="706" y="-191" type="curve" smooth="yes"/>
      <point x="878" y="-191" name="dv06"/>
      <point x="999" y="-92" name="dv05"/>
      <point x="999" y="35" type="curve" smooth="yes"/>
      <point x="999" y="135" name="iv01"/>
      <point x="924" y="190" name="dv04"/>
      <point x="793" y="190" type="curve" smooth="yes" name="dh02"/>
      <point x="725" y="190"/>
      <point x="649" y="175"/>
      <point x="581" y="147" type="curve"/>
      <point x="679" y="565" type="line" name="sh01"/>
      <point x="1187" y="565" type="line"/>
      <point x="1164" y="470" type="line"/>
      <point x="781" y="470" type="line"/>
      <point x="732" y="266" type="line"/>
      <point x="775" y="278"/>
      <point x="814" y="283"/>
      <point x="853" y="283" type="curve" smooth="yes"/>
      <point x="1022" y="283"/>
      <point x="1134" y="191"/>
      <point x="1134" y="51" type="curve" smooth="yes"/>
      <point x="1134" y="-45"/>
      <point x="1083" y="-132"/>
      <point x="999" y="-196" type="curve" smooth="yes" name="hr02"/>
      <point x="919" y="-256"/>
      <point x="822" y="-285"/>
    </contour>
  </outline>
</glyph>
<glyph name="uni2159" format="1">
  <advance width="1233"/>
  <unicode hex="2159"/>
  <outline>
    <contour>
      <point x="111" y="934" type="line" name="sv01"/>
      <point x="317" y="934" type="line"/>
      <point x="434" y="1545" type="line"/>
      <point x="203" y="1504" type="line"/>
      <point x="225" y="1620" type="line"/>
      <point x="463" y="1659" type="line" name="av01"/>
      <point x="600" y="1659" type="line"/>
      <point x="459" y="934" type="line"/>
      <point x="664" y="934" type="line" name="dv07"/>
      <point x="643" y="824" type="line" name="dv06"/>
      <point x="90" y="824" type="line"/>
    </contour>
    <contour>
      <point x="47" y="612" type="line"/>
      <point x="1106" y="870" type="line"/>
      <point x="1133" y="762" type="line" name="sh02"/>
      <point x="70" y="504" type="line"/>
    </contour>
    <contour>
      <point x="771" y="-285" type="curve" smooth="yes" name="dv01"/>
      <point x="592" y="-285" name="sh03"/>
      <point x="491" y="-199"/>
      <point x="491" y="-23" type="curve" smooth="yes" name="sh04"/>
      <point x="491" y="84"/>
      <point x="528" y="233"/>
      <point x="589" y="342" type="curve" name="dv05"/>
      <point x="677" y="503" name="ih01"/>
      <point x="814" y="582" name="dv04"/>
      <point x="997" y="582" type="curve" smooth="yes" name="sh01"/>
      <point x="1068" y="582"/>
      <point x="1131" y="570"/>
      <point x="1187" y="549" type="curve" name="dv02"/>
      <point x="1163" y="445" type="line" name="ah02"/>
      <point x="1111" y="472" name="dv03"/>
      <point x="1049" y="487" name="sh05"/>
      <point x="984" y="487" type="curve" smooth="yes"/>
      <point x="809" y="487" name="ah01"/>
      <point x="696" y="380" name="sh06"/>
      <point x="647" y="167" type="curve"/>
      <point x="712" y="248"/>
      <point x="792" y="284"/>
      <point x="897" y="284" type="curve" smooth="yes"/>
      <point x="1050" y="284"/>
      <point x="1143" y="209"/>
      <point x="1143" y="69" type="curve" smooth="yes"/>
      <point x="1143" y="-16"/>
      <point x="1108" y="-109"/>
      <point x="1044" y="-177" type="curve" smooth="yes"/>
      <point x="971" y="-256"/>
      <point x="875" y="-285"/>
    </contour>
    <contour>
      <point x="776" y="-197" type="curve" smooth="yes"/>
      <point x="918" y="-197"/>
      <point x="1007" y="-71"/>
      <point x="1007" y="53" type="curve" smooth="yes"/>
      <point x="1007" y="150"/>
      <point x="954" y="195"/>
      <point x="862" y="195" type="curve" smooth="yes"/>
      <point x="717" y="195"/>
      <point x="626" y="79"/>
      <point x="626" y="-45" type="curve" smooth="yes"/>
      <point x="626" y="-145"/>
      <point x="684" y="-197"/>
    </contour>
  </outline>
</glyph>
<glyph name="uni21AA" format="1">
  <advance width="1233"/>
  <unicode hex="21AA"/>
  <outline>
    <contour>
      <point x="786" y="319" type="line"/>
      <point x="946" y="479" type="line" name="dv01"/>
      <point x="325" y="479" type="line" smooth="yes"/>
      <point x="281" y="479"/>
      <point x="207" y="510" name="dh01"/>
      <point x="151" y="564" type="curve"/>
      <point x="91" y="624" name="av02"/>
      <point x="66" y="699" name="sh01"/>
      <point x="66" y="771" type="curve" smooth="yes"/>
      <point x="66" y="850" name="dh02"/>
      <point x="95" y="917"/>
      <point x="152" y="974" type="curve" smooth="yes"/>
      <point x="215" y="1035" name="dv02"/>
      <point x="282" y="1059"/>
      <point x="357" y="1059" type="curve"/>
      <point x="357" y="895" type="line"/>
      <point x="324" y="895"/>
      <point x="290" y="881" name="av01"/>
      <point x="267" y="858" type="curve" smooth="yes"/>
      <point x="247" y="839"/>
      <point x="230" y="809"/>
      <point x="230" y="770" type="curve" smooth="yes"/>
      <point x="230" y="735"/>
      <point x="244" y="703"/>
      <point x="267" y="680" type="curve" smooth="yes" name="hr01"/>
      <point x="288" y="659"/>
      <point x="322" y="643"/>
      <point x="365" y="643" type="curve" smooth="yes"/>
      <point x="946" y="643" type="line"/>
      <point x="786" y="803" type="line"/>
      <point x="876" y="893" type="line"/>
      <point x="1167" y="602" type="line"/>
      <point x="1167" y="520" type="line"/>
      <point x="876" y="229" type="line"/>
    </contour>
  </outline>
</glyph>
<glyph name="uni21D6" format="1">
  <advance width="1233"/>
  <unicode hex="21D6"/>
  <outline>
    <contour>
      <point x="282" y="507" type="line" name="iv01"/>
      <point x="282" y="395" type="line" name="dh02"/>
      <point x="155" y="395" type="line" name="dh01"/>
      <point x="155" y="807" type="line"/>
      <point x="213" y="865" type="line"/>
      <point x="625" y="865" type="line" name="dv01"/>
      <point x="625" y="738" type="line" name="sh01"/>
      <point x="515" y="738" type="line"/>
      <point x="1078" y="174" type="line" name="hr01"/>
      <point x="1020" y="116" type="line"/>
      <point x="398" y="738" type="line" name="sv01"/>
      <point x="282" y="738" type="line" name="sh02"/>
      <point x="282" y="622" type="line" name="hr02"/>
      <point x="904" y="0" type="line"/>
      <point x="846" y="-58" type="line" name="av01"/>
    </contour>
  </outline>
</glyph>
<glyph name="partialdiff" format="1">
  <advance width="1233"/>
  <unicode hex="2202"/>
  <outline>
    <contour>
      <point x="545" y="-25" type="curve" smooth="yes" name="ab01"/>
      <point x="449" y="-25"/>
      <point x="358" y="11" name="dh01"/>
      <point x="291" y="82" type="curve" smooth="yes"/>
      <point x="223" y="154" name="dv04"/>
      <point x="190" y="249"/>
      <point x="190" y="361" type="curve" smooth="yes" name="ih01"/>
      <point x="190" y="477" name="sh02"/>
      <point x="227" y="595" name="sh01"/>
      <point x="300" y="682" type="curve" smooth="yes"/>
      <point x="376" y="771" name="dv01"/>
      <point x="477" y="809"/>
      <point x="578" y="809" type="curve" smooth="yes"/>
      <point x="641" y="809"/>
      <point x="695" y="794"/>
      <point x="738" y="764" type="curve" smooth="yes"/>
      <point x="777" y="737" name="dv02"/>
      <point x="814" y="694"/>
      <point x="842" y="621" type="curve" name="dh04"/>
      <point x="853" y="680"/>
      <point x="860" y="734"/>
      <point x="865" y="790" type="curve" smooth="yes" name="sv01"/>
      <point x="870" y="845"/>
      <point x="872" y="900" name="dh03"/>
      <point x="872" y="939" type="curve" smooth="yes"/>
      <point x="872" y="1027" name="dv03"/>
      <point x="863" y="1094"/>
      <point x="836" y="1141" type="curve" smooth="yes" name="dh02"/>
      <point x="811" y="1185"/>
      <point x="772" y="1206"/>
      <point x="727" y="1206" type="curve" smooth="yes"/>
      <point x="683" y="1206" name="sh03"/>
      <point x="651" y="1187"/>
      <point x="600" y="1148" type="curve" smooth="yes"/>
      <point x="555" y="1113"/>
      <point x="524" y="1090"/>
      <point x="491" y="1090" type="curve" smooth="yes"/>
      <point x="482" y="1090"/>
      <point x="454" y="1092"/>
      <point x="431" y="1112" type="curve"/>
      <point x="416" y="1127"/>
      <point x="408" y="1146"/>
      <point x="408" y="1166" type="curve" smooth="yes"/>
      <point x="408" y="1202"/>
      <point x="433" y="1246"/>
      <point x="480" y="1277" type="curve"/>
      <point x="524" y="1308"/>
      <point x="586" y="1325"/>
      <point x="654" y="1325" type="curve" smooth="yes"/>
      <point x="770" y="1325"/>
      <point x="869" y="1274"/>
      <point x="941" y="1170" type="curve" smooth="yes"/>
      <point x="1009" y="1070"/>
      <point x="1047" y="930"/>
      <point x="1047" y="746" type="curve" smooth="yes"/>
      <point x="1047" y="523"/>
      <point x="992" y="331"/>
      <point x="904" y="195" type="curve" smooth="yes"/>
      <point x="812" y="54"/>
      <point x="686" y="-25"/>
    </contour>
    <contour>
      <point x="543" y="31" type="curve" smooth="yes" name="hr01"/>
      <point x="614" y="31"/>
      <point x="676" y="72"/>
      <point x="723" y="160" type="curve" smooth="yes"/>
      <point x="768" y="244"/>
      <point x="793" y="360"/>
      <point x="793" y="483" type="curve" smooth="yes"/>
      <point x="793" y="575"/>
      <point x="779" y="632"/>
      <point x="750" y="673" type="curve" smooth="yes"/>
      <point x="721" y="714"/>
      <point x="680" y="735"/>
      <point x="628" y="735" type="curve" smooth="yes"/>
      <point x="557" y="735"/>
      <point x="495" y="695"/>
      <point x="448" y="607" type="curve" smooth="yes"/>
      <point x="401" y="519"/>
      <point x="377" y="401"/>
      <point x="377" y="282" type="curve" smooth="yes"/>
      <point x="377" y="187"/>
      <point x="392" y="131"/>
      <point x="420" y="92" type="curve" smooth="yes"/>
      <point x="449" y="52"/>
      <point x="492" y="31"/>
    </contour>
  </outline>
</glyph>
<glyph name="uni220A" format="1">
  <advance width="1233"/>
  <unicode hex="220A"/>
  <outline>
    <contour>
      <point x="630" y="165" type="line" smooth="yes" name="dv01"/>
      <point x="448" y="165"/>
      <point x="285" y="255"/>
      <point x="197" y="402" type="curve" smooth="yes"/>
      <point x="150" y="479"/>
      <point x="130" y="559" name="dv04"/>
      <point x="130" y="639" type="curve" smooth="yes" name="dv03"/>
      <point x="130" y="815"/>
      <point x="227" y="971"/>
      <point x="379" y="1054" type="curve" smooth="yes" name="dv06"/>
      <point x="456" y="1096" name="dv05"/>
      <point x="539" y="1117"/>
      <point x="630" y="1117" type="curve" smooth="yes" name="dv02"/>
      <point x="1102" y="1117" type="line"/>
      <point x="1102" y="947" type="line" name="sv01"/>
      <point x="630" y="947" type="line" smooth="yes"/>
      <point x="453" y="947"/>
      <point x="345" y="823"/>
      <point x="315" y="726" type="curve"/>
      <point x="1102" y="726" type="line"/>
      <point x="1102" y="556" type="line"/>
      <point x="315" y="556" type="line"/>
      <point x="345" y="459"/>
      <point x="453" y="335"/>
      <point x="630" y="335" type="curve" smooth="yes"/>
      <point x="1102" y="335" type="line"/>
      <point x="1102" y="165" type="line"/>
    </contour>
  </outline>
</glyph>
<glyph name="suchthat" format="1">
  <advance width="1233"/>
  <unicode hex="220B"/>
  <outline>
    <contour>
      <point x="130" y="170" type="line" name="sv01"/>
      <point x="602" y="170" type="line" smooth="yes"/>
      <point x="727" y="170"/>
      <point x="832" y="286" name="dv03"/>
      <point x="888" y="450" type="curve" smooth="yes"/>
      <point x="907" y="506"/>
      <point x="923" y="576" name="dv04"/>
      <point x="928" y="647" type="curve"/>
      <point x="130" y="647" type="line" name="dv01"/>
      <point x="130" y="817" type="line"/>
      <point x="928" y="817" type="line"/>
      <point x="917" y="948" name="dv02"/>
      <point x="871" y="1118"/>
      <point x="768" y="1219" type="curve" smooth="yes"/>
      <point x="717" y="1269"/>
      <point x="661" y="1294" name="ab01"/>
      <point x="602" y="1294" type="curve" smooth="yes"/>
      <point x="130" y="1294" type="line"/>
      <point x="130" y="1464" type="line"/>
      <point x="602" y="1464" type="line" smooth="yes"/>
      <point x="783" y="1464"/>
      <point x="949" y="1324"/>
      <point x="1037" y="1100" type="curve" smooth="yes"/>
      <point x="1082" y="987"/>
      <point x="1104" y="864"/>
      <point x="1104" y="735" type="curve" smooth="yes"/>
      <point x="1104" y="461"/>
      <point x="1003" y="221"/>
      <point x="855" y="98" type="curve" smooth="yes"/>
      <point x="779" y="34"/>
      <point x="694" y="0"/>
      <point x="602" y="0" type="curve" smooth="yes"/>
      <point x="130" y="0" type="line"/>
    </contour>
  </outline>
</glyph>
<glyph name="uni2244" format="1">
  <advance width="1233"/>
  <unicode hex="2244"/>
  <outline>
    <contour>
      <point x="232" y="199" type="line"/>
      <point x="321" y="353" type="line" name="sv01"/>
      <point x="88" y="353" type="line"/>
      <point x="88" y="524" type="line"/>
      <point x="425" y="524" type="line" name="dv02"/>
      <point x="571" y="755" type="line"/>
      <point x="515" y="780" name="dv03"/>
      <point x="454" y="798"/>
      <point x="386" y="798" type="curve" smooth="yes" name="iv01"/>
      <point x="339" y="798"/>
      <point x="291" y="789" name="dv04"/>
      <point x="240" y="769" type="curve" smooth="yes"/>
      <point x="179" y="745"/>
      <point x="125" y="708"/>
      <point x="88" y="673" type="curve" name="av02"/>
      <point x="88" y="845" type="line"/>
      <point x="204" y="945" name="iv02"/>
      <point x="321" y="964" name="dv06"/>
      <point x="403" y="964" type="curve" smooth="yes" name="iv03"/>
      <point x="469" y="964"/>
      <point x="518" y="951" name="dv05"/>
      <point x="614" y="914" type="curve" smooth="yes"/>
      <point x="627" y="909" type="line" name="sv02"/>
      <point x="656" y="893" type="line"/>
      <point x="854" y="1237" type="line"/>
      <point x="967" y="1137" type="line" name="dv01"/>
      <point x="800" y="849" type="line" name="av01"/>
      <point x="823" y="845"/>
      <point x="845" y="843"/>
      <point x="866" y="843" type="curve" smooth="yes"/>
      <point x="974" y="843"/>
      <point x="1068" y="893"/>
      <point x="1145" y="966" type="curve"/>
      <point x="1145" y="788" type="line"/>
      <point x="1073" y="718"/>
      <point x="930" y="672"/>
      <point x="840" y="672" type="curve" smooth="yes"/>
      <point x="799" y="672"/>
      <point x="765" y="682"/>
      <point x="702" y="702" type="curve"/>
      <point x="592" y="524" type="line"/>
      <point x="1146" y="524" type="line"/>
      <point x="1146" y="353" type="line"/>
      <point x="498" y="353" type="line"/>
      <point x="346" y="99" type="line"/>
    </contour>
  </outline>
</glyph>
<glyph name="uni225D" format="1">
  <advance width="1233"/>
  <unicode hex="225D"/>
  <outline>
    <contour>
      <point x="238" y="994" type="curve" smooth="yes" name="sv01"/>
      <point x="135" y="994" name="dh01"/>
      <point x="69" y="1078" name="sv02"/>
      <point x="69" y="1205" type="curve" smooth="yes"/>
      <point x="69" y="1332" name="dh03"/>
      <point x="135" y="1417" name="dh04"/>
      <point x="238" y="1417" type="curve" smooth="yes" name="sv03"/>
      <point x="290" y="1417" name="sh01"/>
      <point x="335" y="1395" name="ih01"/>
      <point x="363" y="1346" type="curve"/>
      <point x="363" y="1564" type="line" name="dh09"/>
      <point x="430" y="1564" type="line" name="dv02"/>
      <point x="430" y="1004" type="line"/>
      <point x="363" y="1004" type="line" name="sh04"/>
      <point x="363" y="1065" type="line" name="sh06"/>
      <point x="335" y="1016" name="at01"/>
      <point x="290" y="994"/>
    </contour>
    <contour>
      <point x="970" y="1356" type="line"/>
      <point x="907" y="1356" type="line" name="sh07"/>
      <point x="907" y="1407" type="line" name="sv05"/>
      <point x="970" y="1407" type="line" name="sh03"/>
      <point x="970" y="1435" type="line" smooth="yes" name="sv06"/>
      <point x="970" y="1527" name="dh10"/>
      <point x="1009" y="1564" name="sv07"/>
      <point x="1101" y="1564" type="curve" smooth="yes" name="sh05"/>
      <point x="1164" y="1564" type="line" name="dv05"/>
      <point x="1164" y="1509" type="line" name="dh05"/>
      <point x="1100" y="1509" type="line" smooth="yes" name="dv03"/>
      <point x="1053" y="1509" name="dh08"/>
      <point x="1037" y="1492"/>
      <point x="1037" y="1443" type="curve" smooth="yes" name="dh06"/>
      <point x="1037" y="1407" type="line" name="dv06"/>
      <point x="1146" y="1407" type="line" name="ih02"/>
      <point x="1146" y="1356" type="line"/>
      <point x="1037" y="1356" type="line"/>
      <point x="1037" y="1004" type="line" name="sv08"/>
      <point x="970" y="1004" type="line" name="sh08"/>
    </contour>
    <contour>
      <point x="701" y="994" type="curve" smooth="yes" name="sv09"/>
      <point x="570" y="994"/>
      <point x="490" y="1071" name="dh02"/>
      <point x="490" y="1204" type="curve" smooth="yes"/>
      <point x="490" y="1334" name="dh07"/>
      <point x="569" y="1417" name="sv10"/>
      <point x="686" y="1417" type="curve" smooth="yes" name="sh09"/>
      <point x="798" y="1417"/>
      <point x="864" y="1343" name="sh02"/>
      <point x="864" y="1222" type="curve" smooth="yes" name="dv04"/>
      <point x="864" y="1190" type="line"/>
      <point x="560" y="1190" type="line"/>
      <point x="565" y="1098" name="sh10"/>
      <point x="615" y="1050" name="dv01"/>
      <point x="707" y="1050" type="curve" smooth="yes"/>
      <point x="752" y="1050"/>
      <point x="800" y="1062" name="sh11"/>
      <point x="849" y="1087" type="curve"/>
      <point x="849" y="1025" type="line"/>
      <point x="800" y="1004"/>
      <point x="750" y="994"/>
    </contour>
    <contour>
      <point x="251" y="1049" type="curve" smooth="yes"/>
      <point x="322" y="1049"/>
      <point x="363" y="1107"/>
      <point x="363" y="1206" type="curve" smooth="yes"/>
      <point x="363" y="1305"/>
      <point x="322" y="1362"/>
      <point x="251" y="1362" type="curve" smooth="yes"/>
      <point x="216" y="1362"/>
      <point x="188" y="1348"/>
      <point x="168" y="1321" type="curve" smooth="yes"/>
      <point x="148" y="1293"/>
      <point x="138" y="1255"/>
      <point x="138" y="1207" type="curve" smooth="yes"/>
      <point x="138" y="1107"/>
      <point x="180" y="1049"/>
    </contour>
    <contour>
      <point x="798" y="1242" type="line"/>
      <point x="795" y="1315"/>
      <point x="757" y="1361"/>
      <point x="685" y="1361" type="curve" smooth="yes"/>
      <point x="613" y="1361"/>
      <point x="569" y="1314"/>
      <point x="562" y="1241" type="curve"/>
    </contour>
    <contour>
      <point x="88" y="930" type="line"/>
      <point x="1145" y="930" type="line"/>
      <point x="1145" y="760" type="line"/>
      <point x="88" y="760" type="line"/>
    </contour>
    <contour>
      <point x="88" y="524" type="line"/>
      <point x="1145" y="524" type="line"/>
      <point x="1145" y="352" type="line"/>
      <point x="88" y="352" type="line"/>
    </contour>
  </outline>
</glyph>
<glyph name="notequal" format="1">
  <advance width="1233"/>
  <unicode hex="2260"/>
  <outline>
    <contour>
      <point x="125" y="141" type="line" name="hr00"/>
      <point x="289" y="352" type="line" name="sv01"/>
      <point x="88" y="352" type="line"/>
      <point x="88" y="524" type="line"/>
      <point x="418" y="524" type="line" name="dv02"/>
      <point x="602" y="760" type="line" name="sv02"/>
      <point x="88" y="760" type="line"/>
      <point x="88" y="930" type="line"/>
      <point x="735" y="930" type="line" name="dv04"/>
      <point x="981" y="1245" type="line" name="av02"/>
      <point x="1106" y="1143" type="line"/>
      <point x="942" y="930" type="line" name="sv03"/>
      <point x="1145" y="930" type="line"/>
      <point x="1145" y="760" type="line"/>
      <point x="811" y="760" type="line" name="dv03"/>
      <point x="627" y="524" type="line" name="sv04"/>
      <point x="1145" y="524" type="line"/>
      <point x="1145" y="352" type="line"/>
      <point x="498" y="352" type="line" name="dv01"/>
      <point x="250" y="37" type="line" name="av01"/>
    </contour>
  </outline>
</glyph>
<glyph name="notsubset" format="1">
  <advance width="1233"/>
  <unicode hex="2284"/>
  <outline>
    <contour>
      <point x="309" y="-7" type="line" name="hr00"/>
      <point x="379" y="198" type="line"/>
      <point x="323" y="221"/>
      <point x="274" y="254" name="dh01"/>
      <point x="227" y="302" type="curve" smooth="yes" name="at01"/>
      <point x="136" y="394"/>
      <point x="88" y="504" name="av02"/>
      <point x="88" y="636" type="curve" smooth="yes"/>
      <point x="88" y="908" name="at02"/>
      <point x="298" y="1119"/>
      <point x="565" y="1119" type="curve" smooth="yes" name="sv01"/>
      <point x="691" y="1119" type="line"/>
      <point x="766" y="1342" type="line"/>
      <point x="927" y="1289" type="line" name="dv02"/>
      <point x="870" y="1119" type="line" name="dv01"/>
      <point x="1145" y="1119" type="line"/>
      <point x="1145" y="969" type="line" name="sv02"/>
      <point x="819" y="969" type="line" name="av01"/>
      <point x="598" y="313" type="line" name="sv03"/>
      <point x="1145" y="313" type="line" name="sv04"/>
      <point x="1145" y="163" type="line" name="dh02"/>
      <point x="566" y="163" type="line"/>
      <point x="546" y="163" type="line"/>
      <point x="471" y="-60" type="line"/>
    </contour>
    <contour>
      <point x="639" y="969" type="line"/>
      <point x="565" y="969" type="line" smooth="yes"/>
      <point x="382" y="969"/>
      <point x="238" y="825"/>
      <point x="238" y="638" type="curve" smooth="yes"/>
      <point x="238" y="550"/>
      <point x="269" y="473"/>
      <point x="333" y="409" type="curve" smooth="yes"/>
      <point x="362" y="380"/>
      <point x="393" y="358"/>
      <point x="427" y="342" type="curve"/>
    </contour>
  </outline>
</glyph>
<glyph name="uni2285" format="1">
  <advance width="1233"/>
  <unicode hex="2285"/>
  <outline>
    <contour>
      <point x="306" y="-7" type="line" name="hr00"/>
      <point x="363" y="163" type="line" name="dv01"/>
      <point x="88" y="163" type="line"/>
      <point x="88" y="313" type="line"/>
      <point x="414" y="313" type="line" name="dv02"/>
      <point x="635" y="969" type="line" name="sv01"/>
      <point x="88" y="969" type="line" name="sv02"/>
      <point x="88" y="1119" type="line" name="at01"/>
      <point x="667" y="1119" type="line"/>
      <point x="687" y="1119" type="line" name="at02"/>
      <point x="762" y="1342" type="line" name="av02"/>
      <point x="924" y="1289" type="line"/>
      <point x="854" y="1084" type="line"/>
      <point x="910" y="1061"/>
      <point x="959" y="1028" name="dh02"/>
      <point x="1006" y="980" type="curve" smooth="yes" name="sv03"/>
      <point x="1097" y="888"/>
      <point x="1145" y="778" name="av01"/>
      <point x="1145" y="646" type="curve" smooth="yes" name="sv04"/>
      <point x="1145" y="374" name="dh01"/>
      <point x="935" y="163"/>
      <point x="668" y="163" type="curve" smooth="yes"/>
      <point x="542" y="163" type="line" name="iv01"/>
      <point x="467" y="-60" type="line"/>
    </contour>
    <contour>
      <point x="668" y="313" type="line" smooth="yes" name="sh01"/>
      <point x="851" y="313"/>
      <point x="995" y="457"/>
      <point x="995" y="644" type="curve" smooth="yes"/>
      <point x="995" y="732"/>
      <point x="964" y="809"/>
      <point x="900" y="873" type="curve" smooth="yes"/>
      <point x="871" y="902"/>
      <point x="840" y="924"/>
      <point x="806" y="940" type="curve"/>
      <point x="594" y="313" type="line"/>
    </contour>
  </outline>
</glyph>
<glyph name="uni2288" format="1">
  <advance width="1233"/>
  <unicode hex="2288"/>
  <outline>
    <contour>
      <point x="261" y="-159" type="line" name="hr00"/>
      <point x="315" y="0" type="line" name="ab01"/>
      <point x="88" y="0" type="line" name="sh01"/>
      <point x="88" y="170" type="line" name="sv01"/>
      <point x="371" y="170" type="line"/>
      <point x="429" y="342" type="line"/>
      <point x="278" y="384" name="dh01"/>
      <point x="88" y="539" name="sv02"/>
      <point x="88" y="797" type="curve" smooth="yes"/>
      <point x="88" y="1069" name="at01"/>
      <point x="298" y="1280"/>
      <point x="565" y="1280" type="curve" smooth="yes"/>
      <point x="743" y="1280" type="line" name="dv02"/>
      <point x="814" y="1494" type="line" name="dv01"/>
      <point x="972" y="1441" type="line"/>
      <point x="919" y="1280" type="line"/>
      <point x="1145" y="1280" type="line" name="dv04"/>
      <point x="1145" y="1130" type="line" name="dv03"/>
      <point x="869" y="1130" type="line"/>
      <point x="649" y="474" type="line" name="sv03"/>
      <point x="1145" y="474" type="line" name="sv04"/>
      <point x="1145" y="324" type="line" name="ab02"/>
      <point x="598" y="324" type="line"/>
      <point x="548" y="170" type="line" name="av01"/>
      <point x="1145" y="170" type="line" name="sv05"/>
      <point x="1145" y="0" type="line"/>
      <point x="491" y="0" type="line" name="dh02"/>
      <point x="420" y="-212" type="line"/>
    </contour>
    <contour>
      <point x="692" y="1130" type="line"/>
      <point x="565" y="1130" type="line" smooth="yes"/>
      <point x="382" y="1130"/>
      <point x="238" y="986"/>
      <point x="238" y="799" type="curve" smooth="yes"/>
      <point x="238" y="623"/>
      <point x="366" y="518"/>
      <point x="476" y="486" type="curve"/>
    </contour>
  </outline>
</glyph>
<glyph name="circleplus" format="1">
  <advance width="1233"/>
  <unicode hex="2295"/>
  <outline>
    <contour>
      <point x="617" y="106" type="curve" smooth="yes" name="dv01"/>
      <point x="465" y="106"/>
      <point x="331" y="168" name="dh01"/>
      <point x="236" y="263" type="curve" smooth="yes"/>
      <point x="132" y="367"/>
      <point x="80" y="503" name="dv04"/>
      <point x="80" y="644" type="curve" smooth="yes"/>
      <point x="80" y="793" name="dh06"/>
      <point x="137" y="925"/>
      <point x="237" y="1024" type="curve" smooth="yes"/>
      <point x="289" y="1076" name="dv02"/>
      <point x="352" y="1117"/>
      <point x="412" y="1142" type="curve" smooth="yes" name="dh05"/>
      <point x="479" y="1170"/>
      <point x="544" y="1182"/>
      <point x="613" y="1182" type="curve" smooth="yes" name="dv03"/>
      <point x="770" y="1182"/>
      <point x="901" y="1120" name="dh02"/>
      <point x="997" y="1024" type="curve" smooth="yes"/>
      <point x="1101" y="920"/>
      <point x="1153" y="786" name="dh03"/>
      <point x="1153" y="643" type="curve" smooth="yes"/>
      <point x="1153" y="504"/>
      <point x="1102" y="368" name="sh01"/>
      <point x="997" y="263" type="curve" smooth="yes"/>
      <point x="904" y="170" name="sh02"/>
      <point x="770" y="106" name="sv01"/>
    </contour>
    <contour>
      <point x="616" y="246" type="curve" smooth="yes" name="sv02"/>
      <point x="721" y="246" name="dh04"/>
      <point x="822" y="289"/>
      <point x="897" y="362" type="curve" smooth="yes"/>
      <point x="969" y="434"/>
      <point x="1012" y="532" name="sh03"/>
      <point x="1012" y="645" type="curve" smooth="yes"/>
      <point x="1012" y="745"/>
      <point x="979" y="843"/>
      <point x="896" y="924" type="curve" smooth="yes"/>
      <point x="857" y="963"/>
      <point x="814" y="992"/>
      <point x="768" y="1011" type="curve" smooth="yes"/>
      <point x="721" y="1031"/>
      <point x="671" y="1041"/>
      <point x="619" y="1041" type="curve" smooth="yes"/>
      <point x="515" y="1041"/>
      <point x="413" y="1001"/>
      <point x="336" y="925" type="curve" smooth="yes"/>
      <point x="259" y="848"/>
      <point x="221" y="746"/>
      <point x="221" y="642" type="curve" smooth="yes"/>
      <point x="221" y="530"/>
      <point x="264" y="434"/>
      <point x="337" y="362" type="curve" smooth="yes"/>
      <point x="412" y="289"/>
      <point x="509" y="246"/>
    </contour>
    <contour>
      <point x="546" y="572" type="line"/>
      <point x="271" y="572" type="line"/>
      <point x="271" y="712" type="line"/>
      <point x="546" y="712" type="line"/>
      <point x="546" y="989" type="line"/>
      <point x="686" y="989" type="line"/>
      <point x="686" y="712" type="line"/>
      <point x="962" y="712" type="line"/>
      <point x="962" y="572" type="line"/>
      <point x="686" y="572" type="line"/>
      <point x="686" y="298" type="line"/>
      <point x="546" y="298" type="line"/>
    </contour>
  </outline>
</glyph>
